<svg width="25" height="25" viewBox="0 0 25 25" fill="none" xmlns="http://www.w3.org/2000/svg">
<g clip-path="url(#clip0_1118_1468)">
<path d="M12.5 25C19.4036 25 25 19.4036 25 12.5C25 5.59644 19.4036 0 12.5 0C5.59644 0 0 5.59644 0 12.5C0 19.4036 5.59644 25 12.5 25Z" fill="#24292F"/>
<path d="M19.1644 10.0071L18.999 9.92683L18.8391 10.0174L14.9929 12.1959L14.4552 12.5004L14.9929 12.8049L18.8391 14.9834L18.999 15.074L19.1644 14.9937L21.661 13.7825L22.5277 15.5015L20.198 16.6312L19.986 16.734L20.0015 16.9691L20.1688 19.5123L18.2072 19.6364L18.0281 16.92L18.0157 16.7316L17.8514 16.6385L14.0051 14.46L13.4827 14.1641V14.7646V19.1215V19.3108L13.6411 19.4144L15.9481 20.923L14.8629 22.5193L12.6915 21.0995L12.4999 20.9743L12.3084 21.0995L10.137 22.5193L9.05176 20.923L11.3588 19.4144L11.5172 19.3108V19.1215V14.7646V14.1642L10.9947 14.46L7.14794 16.6385L6.98356 16.7316L6.97117 16.9201L6.79257 19.6364L4.83153 19.5123L4.99835 16.9691L5.01377 16.734L4.80184 16.6313L2.47266 15.5015L3.3389 13.7826L5.8349 14.9937L6.00024 15.074L6.16016 14.9834L10.007 12.805L10.5448 12.5004L10.007 12.1958L6.16016 10.0174L6.00024 9.92682L5.8349 10.0071L3.3389 11.2182L2.47266 9.49923L4.80184 8.36953L5.01377 8.26674L4.99835 8.03169L4.83153 5.4885L6.79257 5.36435L6.97117 8.08071L6.98356 8.26922L7.14794 8.36231L10.9947 10.5408L11.5172 10.8366V10.2362V5.87931V5.69L11.3588 5.58639L9.05176 4.07777L10.137 2.48145L12.3084 3.90126L12.4999 4.0265L12.6915 3.90126L14.8629 2.48145L15.9481 4.07777L13.6411 5.58639L13.4827 5.69V5.87931V10.2362V10.8367L14.0051 10.5408L17.8514 8.36229L18.0157 8.26922L18.0281 8.08077L18.2072 5.36434L20.1688 5.4885L20.0015 8.03163L19.986 8.26674L20.198 8.36953L22.5277 9.49923L21.661 11.2183L19.1644 10.0071Z" fill="white" stroke="#24292F" stroke-width="0.7"/>
</g>
<defs>
<clipPath id="clip0_1118_1468">
<rect width="25" height="25" fill="white"/>
</clipPath>
</defs>
</svg>
