<svg width="25" height="25" viewBox="0 0 25 25" fill="none" xmlns="http://www.w3.org/2000/svg">
<g clip-path="url(#clip0_1118_1465)">
<path d="M12.5 25C19.4036 25 25 19.4036 25 12.5C25 5.59644 19.4036 0 12.5 0C5.59644 0 0 5.59644 0 12.5C0 19.4036 5.59644 25 12.5 25Z" fill="#24292F"/>
<path d="M10.0782 21C8.94363 21 7.84935 20.5223 7.0754 19.6894C5.88471 18.4081 4.3997 16.4131 4.08861 14.1852C3.77068 11.9048 4.31697 9.79881 5.58764 8.40701C6.52022 7.38545 7.77551 6.8229 9.11832 6.8229C10.1593 6.8229 11.1811 7.19542 12.0737 7.90016L12.1225 7.93882L12.1294 7.87854C12.1699 7.52082 12.2368 7.1663 12.3297 6.81766L12.3396 6.78064L12.2996 6.77703C11.7739 6.7384 11.2797 6.52167 10.9055 6.16567C10.4269 5.70698 10.1999 5.06449 10.2687 4.35974C10.2776 4.27031 10.3188 4.18666 10.3851 4.12317C10.4514 4.05967 10.5387 4.02029 10.6321 4.01179C10.7189 4.00393 10.8061 4 10.8912 4C11.5294 4 12.0914 4.21493 12.516 4.62251C12.6831 4.78251 12.8217 4.96767 12.9262 5.17064L12.9563 5.2283L12.9874 5.17129C13.1803 4.8167 13.4018 4.47711 13.6499 4.15563C13.6875 4.10748 13.7363 4.06836 13.7924 4.04135C13.8484 4.01435 13.9103 4.00019 13.973 4C13.992 3.99999 14.011 4.00131 14.0298 4.00393L16.6067 4.35712C16.6861 4.36793 16.7604 4.40127 16.8199 4.45284C16.8795 4.50442 16.9215 4.57188 16.9408 4.64656C16.96 4.72123 16.9555 4.79971 16.9278 4.87191C16.9001 4.94411 16.8505 5.00672 16.7854 5.05171C15.8819 5.67421 14.9558 6.41139 14.2444 7.07026L14.2807 7.12432C14.7897 6.92714 15.3333 6.82483 15.8823 6.8229C17.2264 6.8229 18.4804 7.38545 19.4129 8.40701C20.6826 9.79913 21.2296 11.9048 20.9113 14.1849C20.6002 16.4128 19.1155 18.4084 17.9248 19.6891C17.1598 20.5128 16.0768 20.9905 14.9541 20.9997H14.9223C14.1534 21.0023 13.4026 20.7764 12.7731 20.3532C12.6842 20.2933 12.5998 20.2307 12.5222 20.1675L12.5003 20.1494L12.4781 20.1678C12.3998 20.2313 12.3153 20.2936 12.2271 20.3532C11.5978 20.7765 10.8471 21.0024 10.0782 21ZM12.5488 19.2176L12.5868 19.2255C12.6744 19.2442 12.7531 19.2903 12.8104 19.3566C12.9348 19.4958 13.0779 19.6188 13.236 19.7222C13.7301 20.0542 14.3195 20.2311 14.923 20.2287C15.8276 20.2287 16.7031 19.8454 17.3245 19.1767C18.4404 17.9759 19.83 16.1172 20.1141 14.0823C20.4016 12.0225 19.9254 10.1389 18.8075 8.91485C18.0301 8.06267 16.9906 7.59415 15.8826 7.59415C14.7747 7.59415 13.678 8.12394 12.8107 9.08555C12.7634 9.1406 12.701 9.1819 12.6305 9.2048L12.6234 9.20677C12.6134 9.20972 12.6032 9.21267 12.5926 9.21496C12.5878 9.21496 12.583 9.21693 12.5782 9.21791L12.5533 9.22184L12.5348 9.22381H12.5239C12.5164 9.22381 12.5082 9.22381 12.4999 9.22381H12.4948C12.4346 9.2234 12.3753 9.20992 12.3213 9.18438C12.2673 9.15885 12.22 9.12192 12.183 9.07637C11.3158 8.12066 10.2287 7.59415 9.119 7.59415C8.00934 7.59415 6.97147 8.06267 6.19375 8.91452C5.07589 10.1389 4.59968 12.0225 4.88889 14.0823C5.17263 16.1176 6.56398 17.9762 7.67843 19.1767C8.29958 19.8451 9.17507 20.2284 10.08 20.2284C10.6833 20.2307 11.2726 20.0538 11.7667 19.7219C11.9247 19.6188 12.0678 19.4959 12.1919 19.3566C12.2295 19.3126 12.2769 19.2772 12.3305 19.253C12.3841 19.2287 12.4427 19.2162 12.502 19.2163H12.5509L12.5488 19.2176ZM14.1456 4.81909C13.6773 5.47508 13.3317 6.20427 13.1245 6.97394L13.183 7.00441C13.893 6.26363 14.8177 5.52612 15.4686 5.0386L15.5319 4.99142L14.1576 4.80336L14.1456 4.81909ZM11.0765 4.82236C11.1132 5.12327 11.2533 5.40393 11.4747 5.62015C11.7003 5.83246 11.9931 5.96676 12.3071 6.00185L12.3512 6.00742L12.3454 5.96581C12.3117 5.66406 12.1712 5.38248 11.9473 5.16789C11.7234 4.9533 11.4296 4.81865 11.1148 4.78632L11.0707 4.78075L11.0765 4.82236Z" fill="#F5F5F5"/>
</g>
<defs>
<clipPath id="clip0_1118_1465">
<rect width="25" height="25" fill="white"/>
</clipPath>
</defs>
</svg>
