<svg width="25" height="25" viewBox="0 0 25 25" fill="none" xmlns="http://www.w3.org/2000/svg">
<g clip-path="url(#clip0_1118_1417)">
<path d="M12.5 25C19.4036 25 25 19.4036 25 12.5C25 5.59644 19.4036 0 12.5 0C5.59644 0 0 5.59644 0 12.5C0 19.4036 5.59644 25 12.5 25Z" fill="#24292F"/>
<mask id="mask0_1118_1417" style="mask-type:luminance" maskUnits="userSpaceOnUse" x="4" y="3" width="16" height="20">
<path d="M10.1001 15.488V12.4001C10.1001 12.241 10.0369 12.0884 9.92435 11.9759C9.81183 11.8634 9.65921 11.8001 9.50008 11.8001C9.34095 11.8001 9.18833 11.8634 9.07581 11.9759C8.96329 12.0884 8.90007 12.241 8.90007 12.4001V15.488C8.41666 15.6321 8.00128 15.9455 7.72989 16.3707C7.45849 16.7959 7.34922 17.3045 7.42204 17.8037C7.49487 18.3028 7.74493 18.7591 8.1265 19.089C8.50807 19.419 8.99565 19.6006 9.50008 19.6006C10.0045 19.6006 10.4921 19.419 10.8737 19.089C11.2552 18.7591 11.5053 18.3028 11.5781 17.8037C11.6509 17.3045 11.5417 16.7959 11.2703 16.3707C10.9989 15.9455 10.5835 15.6321 10.1001 15.488ZM9.50008 18.4003C9.32207 18.4003 9.14807 18.3475 9.00006 18.2486C8.85205 18.1497 8.73669 18.0091 8.66857 17.8447C8.60045 17.6802 8.58263 17.4992 8.61736 17.3247C8.65209 17.1501 8.7378 16.9897 8.86367 16.8638C8.98954 16.738 9.14991 16.6522 9.3245 16.6175C9.49908 16.5828 9.68005 16.6006 9.8445 16.6687C10.009 16.7369 10.1495 16.8522 10.2484 17.0002C10.3473 17.1482 10.4001 17.3222 10.4001 17.5002C10.3998 17.7389 10.3049 17.9676 10.1362 18.1364C9.96747 18.3051 9.7387 18.4 9.50008 18.4003ZM18.8682 9.22907L17.371 9.71555L18.2963 10.9891C18.343 11.0528 18.3766 11.1251 18.3952 11.2019C18.4139 11.2786 18.4172 11.3583 18.4049 11.4363C18.3927 11.5143 18.3652 11.5892 18.324 11.6566C18.2828 11.7239 18.2287 11.7825 18.1648 11.8289C18.1009 11.8753 18.0285 11.9087 17.9517 11.9271C17.8749 11.9454 17.7952 11.9484 17.7172 11.936C17.6393 11.9235 17.5645 11.8957 17.4973 11.8543C17.4301 11.8128 17.3717 11.7585 17.3255 11.6944L16.4002 10.4209L15.4749 11.6944C15.3814 11.8232 15.2405 11.9095 15.0834 11.9343C14.9262 11.9592 14.7656 11.9207 14.6369 11.8271C14.5081 11.7336 14.4218 11.5928 14.3969 11.4356C14.372 11.2785 14.4106 11.1179 14.5041 10.9891L15.4294 9.71555L13.9322 9.22907C13.8571 9.20491 13.7874 9.16615 13.7272 9.11502C13.6671 9.06389 13.6176 9.00138 13.5816 8.93109C13.5457 8.8608 13.524 8.7841 13.5177 8.70539C13.5114 8.62668 13.5208 8.54752 13.5452 8.47242C13.5696 8.39733 13.6086 8.3278 13.6599 8.2678C13.7112 8.2078 13.7739 8.15853 13.8443 8.12279C13.9147 8.08706 13.9915 8.06558 14.0702 8.05957C14.1489 8.05356 14.228 8.06315 14.3031 8.08779L15.8002 8.57424V7.00005C15.8002 6.84092 15.8634 6.68831 15.9759 6.57578C16.0885 6.46326 16.2411 6.40004 16.4002 6.40004C16.5593 6.40004 16.712 6.46326 16.8245 6.57578C16.937 6.68831 17.0002 6.84092 17.0002 7.00005V8.57424L18.4973 8.08779C18.5724 8.06315 18.6515 8.05356 18.7302 8.05957C18.809 8.06558 18.8857 8.08706 18.9561 8.12279C19.0265 8.15853 19.0892 8.2078 19.1405 8.2678C19.1918 8.3278 19.2308 8.39733 19.2552 8.47242C19.2796 8.54752 19.289 8.62668 19.2827 8.70539C19.2764 8.7841 19.2547 8.8608 19.2188 8.93109C19.1828 9.00138 19.1333 9.06389 19.0732 9.11502C19.013 9.16615 18.9433 9.20491 18.8682 9.22907ZM12.5001 14.1458V7.00005C12.5001 6.20439 12.1841 5.44131 11.6214 4.8787C11.0588 4.31608 10.2957 4 9.50008 4C8.70442 4 7.94134 4.31608 7.37872 4.8787C6.8161 5.44131 6.50003 6.20439 6.50003 7.00005V14.1458C5.82073 14.7533 5.34192 15.5529 5.12696 16.4385C4.912 17.3242 4.97103 18.2543 5.29623 19.1056C5.62143 19.957 6.19747 20.6896 6.94814 21.2064C7.6988 21.7233 8.5887 22 9.50008 22C10.4115 22 11.3014 21.7233 12.052 21.2064C12.8027 20.6896 13.3787 19.957 13.7039 19.1056C14.0291 18.2543 14.0882 17.3242 13.8732 16.4385C13.6582 15.5529 13.1794 14.7533 12.5001 14.1458ZM9.50008 20.8003C8.81562 20.8003 8.14809 20.5874 7.58995 20.1912C7.0318 19.7951 6.61065 19.2351 6.38482 18.589C6.15899 17.9429 6.13965 17.2425 6.32948 16.5849C6.51931 15.9273 6.90892 15.3449 7.44436 14.9186C7.52332 14.8632 7.58779 14.7896 7.6323 14.7041C7.67681 14.6185 7.70005 14.5235 7.70005 14.4271V7.00005C7.70005 6.52265 7.88969 6.06481 8.22727 5.72724C8.56484 5.38967 9.02268 5.20002 9.50008 5.20002C9.97748 5.20002 10.4353 5.38967 10.7729 5.72724C11.1105 6.06481 11.3001 6.52265 11.3001 7.00005V14.4271C11.3001 14.5222 11.3228 14.616 11.3663 14.7007C11.4097 14.7854 11.4727 14.8584 11.55 14.9139C12.0869 15.3395 12.478 15.9216 12.6691 16.5795C12.8602 17.2374 12.8419 17.9385 12.6166 18.5855C12.3912 19.2325 11.9702 19.7933 11.4117 20.1902C10.8533 20.587 10.1852 20.8003 9.50008 20.8003Z" fill="#F5F5F5" stroke="#8CC541" stroke-width="0.4"/>
</mask>
<g mask="url(#mask0_1118_1417)">
<path d="M10.1001 15.488V12.4001C10.1001 12.241 10.0369 12.0884 9.92435 11.9759C9.81183 11.8634 9.65921 11.8001 9.50008 11.8001C9.34095 11.8001 9.18833 11.8634 9.07581 11.9759C8.96329 12.0884 8.90007 12.241 8.90007 12.4001V15.488C8.41666 15.6321 8.00128 15.9455 7.72989 16.3707C7.45849 16.7959 7.34922 17.3045 7.42204 17.8037C7.49487 18.3028 7.74493 18.7591 8.1265 19.089C8.50807 19.419 8.99565 19.6006 9.50008 19.6006C10.0045 19.6006 10.4921 19.419 10.8737 19.089C11.2552 18.7591 11.5053 18.3028 11.5781 17.8037C11.6509 17.3045 11.5417 16.7959 11.2703 16.3707C10.9989 15.9455 10.5835 15.6321 10.1001 15.488ZM9.50008 18.4003C9.32207 18.4003 9.14807 18.3475 9.00006 18.2486C8.85205 18.1497 8.73669 18.0091 8.66857 17.8447C8.60045 17.6802 8.58263 17.4992 8.61736 17.3247C8.65209 17.1501 8.7378 16.9897 8.86367 16.8638C8.98954 16.738 9.14991 16.6522 9.3245 16.6175C9.49908 16.5828 9.68005 16.6006 9.8445 16.6687C10.009 16.7369 10.1495 16.8522 10.2484 17.0002C10.3473 17.1482 10.4001 17.3222 10.4001 17.5002C10.3998 17.7389 10.3049 17.9676 10.1362 18.1364C9.96747 18.3051 9.7387 18.4 9.50008 18.4003ZM18.8682 9.22907L17.371 9.71555L18.2963 10.9891C18.343 11.0528 18.3766 11.1251 18.3952 11.2019C18.4139 11.2786 18.4172 11.3583 18.4049 11.4363C18.3927 11.5143 18.3652 11.5892 18.324 11.6566C18.2828 11.7239 18.2287 11.7825 18.1648 11.8289C18.1009 11.8753 18.0285 11.9087 17.9517 11.9271C17.8749 11.9454 17.7952 11.9484 17.7172 11.936C17.6393 11.9235 17.5645 11.8957 17.4973 11.8543C17.4301 11.8128 17.3717 11.7585 17.3255 11.6944L16.4002 10.4209L15.4749 11.6944C15.3814 11.8232 15.2405 11.9095 15.0834 11.9343C14.9262 11.9592 14.7656 11.9207 14.6369 11.8271C14.5081 11.7336 14.4218 11.5928 14.3969 11.4356C14.372 11.2785 14.4106 11.1179 14.5041 10.9891L15.4294 9.71555L13.9322 9.22907C13.8571 9.20491 13.7874 9.16615 13.7272 9.11502C13.6671 9.06389 13.6176 9.00138 13.5816 8.93109C13.5457 8.8608 13.524 8.7841 13.5177 8.70539C13.5114 8.62668 13.5208 8.54752 13.5452 8.47242C13.5696 8.39733 13.6086 8.3278 13.6599 8.2678C13.7112 8.2078 13.7739 8.15853 13.8443 8.12279C13.9147 8.08706 13.9915 8.06558 14.0702 8.05957C14.1489 8.05356 14.228 8.06315 14.3031 8.08779L15.8002 8.57424V7.00005C15.8002 6.84092 15.8634 6.68831 15.9759 6.57578C16.0885 6.46326 16.2411 6.40004 16.4002 6.40004C16.5593 6.40004 16.712 6.46326 16.8245 6.57578C16.937 6.68831 17.0002 6.84092 17.0002 7.00005V8.57424L18.4973 8.08779C18.5724 8.06315 18.6515 8.05356 18.7302 8.05957C18.809 8.06558 18.8857 8.08706 18.9561 8.12279C19.0265 8.15853 19.0892 8.2078 19.1405 8.2678C19.1918 8.3278 19.2308 8.39733 19.2552 8.47242C19.2796 8.54752 19.289 8.62668 19.2827 8.70539C19.2764 8.7841 19.2547 8.8608 19.2188 8.93109C19.1828 9.00138 19.1333 9.06389 19.0732 9.11502C19.013 9.16615 18.9433 9.20491 18.8682 9.22907ZM12.5001 14.1458V7.00005C12.5001 6.20439 12.1841 5.44131 11.6214 4.8787C11.0588 4.31608 10.2957 4 9.50008 4C8.70442 4 7.94134 4.31608 7.37872 4.8787C6.8161 5.44131 6.50003 6.20439 6.50003 7.00005V14.1458C5.82073 14.7533 5.34192 15.5529 5.12696 16.4385C4.912 17.3242 4.97103 18.2543 5.29623 19.1056C5.62143 19.957 6.19747 20.6896 6.94814 21.2064C7.6988 21.7233 8.5887 22 9.50008 22C10.4115 22 11.3014 21.7233 12.052 21.2064C12.8027 20.6896 13.3787 19.957 13.7039 19.1056C14.0291 18.2543 14.0882 17.3242 13.8732 16.4385C13.6582 15.5529 13.1794 14.7533 12.5001 14.1458ZM9.50008 20.8003C8.81562 20.8003 8.14809 20.5874 7.58995 20.1912C7.0318 19.7951 6.61065 19.2351 6.38482 18.589C6.15899 17.9429 6.13965 17.2425 6.32948 16.5849C6.51931 15.9273 6.90892 15.3449 7.44436 14.9186C7.52332 14.8632 7.58779 14.7896 7.6323 14.7041C7.67681 14.6185 7.70005 14.5235 7.70005 14.4271V7.00005C7.70005 6.52265 7.88969 6.06481 8.22727 5.72724C8.56484 5.38967 9.02268 5.20002 9.50008 5.20002C9.97748 5.20002 10.4353 5.38967 10.7729 5.72724C11.1105 6.06481 11.3001 6.52265 11.3001 7.00005V14.4271C11.3001 14.5222 11.3228 14.616 11.3663 14.7007C11.4097 14.7854 11.4727 14.8584 11.55 14.9139C12.0869 15.3395 12.478 15.9216 12.6691 16.5795C12.8602 17.2374 12.8419 17.9385 12.6166 18.5855C12.3912 19.2325 11.9702 19.7933 11.4117 20.1902C10.8533 20.587 10.1852 20.8003 9.50008 20.8003Z" fill="#F5F5F5" stroke="#24292F" stroke-width="0.4"/>
</g>
</g>
<defs>
<clipPath id="clip0_1118_1417">
<rect width="25" height="25" fill="white"/>
</clipPath>
</defs>
</svg>
