<svg width="22" height="29" viewBox="0 0 22 29" fill="none" xmlns="http://www.w3.org/2000/svg">
<path d="M3.37902 28C2.74862 27.9982 2.14454 27.745 1.69878 27.2957C1.25301 26.8464 1.00179 26.2376 1 25.6022V3.39777C1.00206 2.76248 1.25337 2.15381 1.69908 1.70459C2.14479 1.25537 2.7487 1.00208 3.37902 1H18.7375C19.3678 1.00208 19.9717 1.25537 20.4174 1.70459C20.8631 2.15381 21.1144 2.76248 21.1165 3.39777V25.6022C21.1144 26.2375 20.8631 26.8462 20.4174 27.2954C19.9717 27.7446 19.3678 27.9979 18.7375 28H3.37902ZM3.37902 1.83451C2.96772 1.83534 2.57347 2.00024 2.28245 2.29317C1.99142 2.5861 1.82728 2.98323 1.8259 3.39777V25.6022C1.82727 26.0166 1.99125 26.4137 2.28204 26.7066C2.57283 26.9996 2.96681 27.1648 3.37798 27.166H18.7364C19.1476 27.1648 19.5416 26.9996 19.8323 26.7066C20.1231 26.4137 20.2871 26.0166 20.2885 25.6022V3.39777C20.2871 2.98341 20.1231 2.58644 19.8323 2.29354C19.5415 2.00064 19.1475 1.83562 18.7364 1.83451H3.37902ZM4.21901 24.271C4.10939 24.2709 4.00431 24.2269 3.9268 24.1488C3.84929 24.0707 3.80568 23.9648 3.80554 23.8543V19.5292C3.80568 19.4187 3.84929 19.3128 3.9268 19.2346C4.00431 19.1565 4.10939 19.1126 4.21901 19.1124H9.41558C9.5252 19.1126 9.63028 19.1565 9.70779 19.2346C9.78531 19.3128 9.82891 19.4187 9.82905 19.5292V23.8543C9.82891 23.9648 9.78531 24.0707 9.70779 24.1488C9.63028 24.2269 9.5252 24.2709 9.41558 24.271H4.21901ZM4.63144 23.4386H9.00211V19.9459H4.63196L4.63144 23.4386ZM11.627 22.1084C11.5715 22.1104 11.5162 22.1011 11.4643 22.0811C11.4125 22.0611 11.3652 22.0307 11.3252 21.9918C11.2852 21.953 11.2535 21.9064 11.2318 21.8549C11.21 21.8034 11.1989 21.748 11.1989 21.692C11.1989 21.636 11.21 21.5806 11.2318 21.5291C11.2535 21.4776 11.2852 21.431 11.3252 21.3921C11.3652 21.3533 11.4125 21.3229 11.4643 21.3029C11.5162 21.2828 11.5715 21.2735 11.627 21.2755H18.2979C18.3534 21.2735 18.4087 21.2828 18.4606 21.3029C18.5124 21.3229 18.5597 21.3533 18.5997 21.3921C18.6397 21.431 18.6714 21.4776 18.6931 21.5291C18.7149 21.5806 18.726 21.636 18.726 21.692C18.726 21.748 18.7149 21.8034 18.6931 21.8549C18.6714 21.9064 18.6397 21.953 18.5997 21.9918C18.5597 22.0307 18.5124 22.0611 18.4606 22.0811C18.4087 22.1011 18.3534 22.1104 18.2979 22.1084H11.627ZM4.21901 17.2361C4.10939 17.236 4.00431 17.192 3.9268 17.1139C3.84929 17.0358 3.80568 16.9298 3.80554 16.8194V11.6587C3.80568 11.5482 3.84929 11.4423 3.9268 11.3642C4.00431 11.286 4.10939 11.2421 4.21901 11.2419H7.38634C7.496 11.2419 7.60117 11.2858 7.67871 11.364C7.75625 11.4422 7.79981 11.5481 7.79981 11.6587C7.79981 11.7692 7.75625 11.8752 7.67871 11.9533C7.60117 12.0315 7.496 12.0754 7.38634 12.0754H4.633V16.4016H9.00368V14.5074C9.01128 14.3997 9.06005 14.2992 9.1397 14.227C9.21936 14.1549 9.32369 14.1167 9.43073 14.1205C9.53777 14.1243 9.63916 14.1698 9.71355 14.2475C9.78794 14.3252 9.82954 14.4289 9.82957 14.5368V16.8167C9.82943 16.9272 9.78583 17.0331 9.70832 17.1113C9.63081 17.1894 9.52572 17.2333 9.4161 17.2335L4.21901 17.2361ZM6.94155 15.2698C6.88618 15.2699 6.83137 15.2588 6.7804 15.237C6.72944 15.2152 6.68338 15.1832 6.64502 15.143L5.62857 14.0791L5.47195 13.9123C5.41586 13.8536 5.37814 13.7797 5.3635 13.6996C5.34886 13.6195 5.35795 13.5368 5.38963 13.4619C5.42131 13.387 5.47419 13.3231 5.54166 13.2783C5.60912 13.2334 5.6882 13.2096 5.769 13.2098C5.82423 13.2095 5.87894 13.2206 5.92976 13.2424C5.98058 13.2642 6.02643 13.2963 6.06449 13.3366L6.94259 14.2559L9.42863 11.6355C9.50397 11.5565 9.60726 11.5108 9.71594 11.5083C9.82462 11.5059 9.92985 11.5469 10.0086 11.6224C10.0872 11.6983 10.1326 11.8025 10.1351 11.9122C10.1375 12.0219 10.0967 12.128 10.0217 12.2075L7.26209 15.1146L7.25791 15.1198C7.24859 15.1311 7.23866 15.1418 7.22816 15.1519C7.15153 15.227 7.04893 15.2691 6.94207 15.2693L6.94155 15.2698ZM11.6265 14.6579C11.5168 14.6579 11.4117 14.6139 11.3341 14.5358C11.2566 14.4576 11.213 14.3516 11.213 14.2411C11.213 14.1306 11.2566 14.0246 11.3341 13.9465C11.4117 13.8683 11.5168 13.8244 11.6265 13.8244H18.2974C18.407 13.8244 18.5122 13.8683 18.5897 13.9465C18.6673 14.0246 18.7108 14.1306 18.7108 14.2411C18.7108 14.3516 18.6673 14.4576 18.5897 14.5358C18.5122 14.6139 18.407 14.6579 18.2974 14.6579H11.6265ZM4.21901 9.36614C4.10939 9.366 4.00431 9.32205 3.9268 9.24393C3.84929 9.16581 3.80568 9.05989 3.80554 8.94941V4.62322C3.80568 4.51274 3.84929 4.40683 3.9268 4.3287C4.00431 4.25058 4.10939 4.20663 4.21901 4.20649H9.41558C9.52515 4.20677 9.63016 4.25077 9.70764 4.32886C9.78512 4.40695 9.82877 4.51278 9.82905 4.62322V8.94941C9.82891 9.05989 9.78531 9.16581 9.70779 9.24393C9.63028 9.32205 9.5252 9.366 9.41558 9.36614H4.21901ZM4.63144 8.53268H9.00211V5.03995H4.63144V8.53268ZM11.627 7.20304C11.5174 7.20304 11.4122 7.15914 11.3347 7.08099C11.2571 7.00284 11.2135 6.89684 11.2135 6.78631C11.2135 6.67579 11.2571 6.5698 11.3347 6.49164C11.4122 6.41349 11.5174 6.36959 11.627 6.36959H18.2974C18.407 6.36959 18.5122 6.41349 18.5897 6.49164C18.6673 6.5698 18.7108 6.67579 18.7108 6.78631C18.7108 6.89684 18.6673 7.00284 18.5897 7.08099C18.5122 7.15914 18.407 7.20304 18.2974 7.20304H11.627Z" fill="white" stroke="white" stroke-width="0.5"/>
</svg>
