<svg width="25" height="25" viewBox="0 0 25 25" fill="none" xmlns="http://www.w3.org/2000/svg">
<circle cx="12.5" cy="12.5" r="12.5" fill="#8A4B53"/>
<path d="M16.6275 14.1016C16.6173 14.0035 16.5737 13.912 16.504 13.8422C16.4343 13.7725 16.3428 13.7289 16.2447 13.7187C16.1372 13.7056 16.0297 13.6992 15.9241 13.6947C16.5147 12.8957 16.7674 11.8963 16.6275 10.9125C16.6173 10.8144 16.5737 10.7229 16.504 10.6531C16.4343 10.5834 16.3428 10.5398 16.2447 10.5296C16.1372 10.5165 16.0297 10.5101 15.9241 10.5056C16.5154 9.70589 16.7681 8.70546 16.6275 7.72078C16.6155 7.62454 16.5714 7.53518 16.5022 7.46718C16.4331 7.39918 16.343 7.35652 16.2466 7.34613C15.563 7.25723 14.868 7.34921 14.231 7.61288C14.2663 7.41976 14.285 7.22397 14.2868 7.02767C14.277 6.45673 14.1361 5.89569 13.875 5.38788C13.6139 4.88007 13.2396 4.43908 12.7811 4.09896C12.7046 4.03729 12.6093 4.00366 12.511 4.00366C12.4127 4.00366 12.3174 4.03729 12.2409 4.09896C11.7821 4.43882 11.4076 4.87976 11.1465 5.38763C10.8854 5.89549 10.7446 6.45666 10.7352 7.02767C10.7371 7.22397 10.7557 7.41976 10.791 7.61288C10.1546 7.34942 9.46028 7.25744 8.77728 7.34613C8.71 7.35388 8.64549 7.3774 8.589 7.41476C8.53251 7.45213 8.48562 7.50229 8.45215 7.56118L9.24811 8.35733V8.18723C9.62443 8.17041 10.0002 8.23106 10.3521 8.36543C10.704 8.4998 11.0246 8.70503 11.294 8.9684C11.5551 9.23945 11.7588 9.56038 11.893 9.91199C12.0272 10.2636 12.0891 10.6387 12.075 11.0148H11.9027L13.4302 12.5449C13.521 12.4083 13.6248 12.2807 13.74 12.1639C14.0109 11.9027 14.3318 11.6989 14.6833 11.5647C15.0349 11.4304 15.4099 11.3685 15.7859 11.3827C15.8006 11.7586 15.7391 12.1335 15.6049 12.4849C15.4707 12.8363 15.2668 13.1569 15.0053 13.4272C14.8837 13.5417 14.7511 13.6439 14.6094 13.7322L15.4709 14.5755C15.5769 14.5703 15.6832 14.5703 15.7893 14.5755C15.7893 14.6756 15.781 14.7756 15.7698 14.8753L16.5249 15.6328C16.6574 15.1338 16.6922 14.6138 16.6275 14.1016V14.1016ZM11.6192 7.02055C11.6259 6.64441 11.7084 6.27349 11.8618 5.92999C12.0152 5.58649 12.2362 5.27745 12.5118 5.02137C12.7874 5.27741 13.0085 5.58642 13.1619 5.92993C13.3154 6.27344 13.398 6.64438 13.4047 7.02055C13.398 7.39672 13.3154 7.76766 13.1619 8.11116C13.0085 8.45467 12.7874 8.76369 12.5118 9.01972C12.2362 8.76364 12.0152 8.45461 11.8618 8.11111C11.7084 7.7676 11.6259 7.39669 11.6192 7.02055V7.02055ZM14.9989 10.2332C14.7286 10.4953 14.4079 10.6997 14.0562 10.834C13.7045 10.9683 13.3291 11.0297 12.953 11.0144C12.9322 10.6376 12.9911 10.2607 13.1258 9.90822C13.2605 9.55574 13.468 9.23564 13.7348 8.96881C14.0015 8.70198 14.3216 8.49442 14.674 8.35968C15.0264 8.22494 15.4032 8.16606 15.7799 8.18686C15.7942 8.56298 15.7324 8.93812 15.5982 9.28976C15.464 9.64141 15.2601 9.96232 14.9989 10.2332V10.2332Z" fill="#F5F5F5"/>
<path d="M8.77742 10.5281C8.67934 10.5384 8.58777 10.5821 8.51803 10.6519C8.44828 10.7216 8.40459 10.8132 8.39424 10.9113C8.25491 11.8952 8.50768 12.8944 9.09806 13.6935C8.99064 13.6896 8.8831 13.6975 8.77742 13.7172V13.7172C8.67916 13.7275 8.58746 13.7714 8.5177 13.8414C8.44793 13.9114 8.40434 14.0032 8.39424 14.1016C8.30986 14.6674 8.357 15.245 8.53201 15.7897C8.70702 16.3343 9.00518 16.8312 9.40333 17.2419C9.74255 17.5788 10.1457 17.8445 10.589 18.0234C11.0323 18.2022 11.5069 18.2907 11.9849 18.2835H12.0302V19.4371C12.0302 19.5513 12.0756 19.6609 12.1564 19.7417C12.2372 19.8225 12.3467 19.8679 12.461 19.8679C12.5752 19.8679 12.6848 19.8225 12.7656 19.7417C12.8463 19.6609 12.8917 19.5513 12.8917 19.4371V18.273H12.9906C13.9655 18.29 14.9072 17.9192 15.6089 17.2419C15.7525 17.0973 15.8833 16.9403 15.9995 16.7729L15.3691 16.1382C15.2648 16.3124 15.1399 16.4734 14.9972 16.6178C14.7259 16.8779 14.4053 17.0811 14.0542 17.2152C13.7031 17.3493 13.3287 17.4116 12.9531 17.3985C12.939 17.0224 13.0009 16.6474 13.1351 16.2957C13.2693 15.9441 13.473 15.6232 13.7341 15.3522C13.8794 15.2086 14.0413 15.0829 14.2162 14.9775L13.418 14.1765C13.2647 14.1979 13.1102 14.2087 12.9554 14.2087C12.9531 14.0525 12.9625 13.8963 12.9835 13.7415L8.48863 9.23999C8.60627 9.69772 8.8134 10.1276 9.09806 10.5048C8.9928 10.5112 8.8853 10.5153 8.77742 10.5281ZM11.2871 12.1571C11.5481 12.4281 11.7518 12.7491 11.886 13.1007C12.0202 13.4523 12.0821 13.8274 12.068 14.2035C11.6922 14.2164 11.3175 14.1539 10.9661 14.0197C10.6148 13.8856 10.2938 13.6824 10.0221 13.4223C9.76027 13.1518 9.55604 12.831 9.42179 12.4792C9.28755 12.1275 9.22609 11.7521 9.24114 11.3759C9.61748 11.3615 9.99285 11.4232 10.3447 11.5575C10.6966 11.6917 11.0178 11.8956 11.2889 12.1571H11.2871ZM11.2871 15.3462C11.5485 15.617 11.7525 15.9379 11.887 16.2895C12.0216 16.6412 12.0838 17.0163 12.0699 17.3925C11.6943 17.405 11.32 17.3423 10.9688 17.2083C10.6177 17.0742 10.2969 16.8714 10.0251 16.6118C9.76341 16.3412 9.55927 16.0203 9.42504 15.6686C9.2908 15.3169 9.22926 14.9416 9.24414 14.5654C9.62032 14.5498 9.99574 14.611 10.3475 14.7453C10.6992 14.8796 11.0199 15.0842 11.29 15.3465L11.2871 15.3462Z" fill="#F5F5F5"/>
<path d="M12.5121 2.00001C10.0824 1.99721 7.72685 2.83735 5.84709 4.37721C3.96732 5.91707 2.67965 8.06134 2.20356 10.4445C1.72747 12.8277 2.09242 15.3023 3.23622 17.4464C4.38003 19.5906 6.23187 21.2716 8.4761 22.203C10.7203 23.1344 13.218 23.2584 15.5434 22.554C17.8689 21.8495 19.8781 20.3603 21.2286 18.34C22.5791 16.3197 23.1873 13.8934 22.9496 11.4748C22.7119 9.05616 21.6429 6.79486 19.9248 5.07632C17.9594 3.10844 15.293 2.00189 12.5121 2.00001ZM12.5121 22.0513C10.6674 22.0533 8.86151 21.5209 7.31275 20.5185C5.76398 19.5161 4.53857 18.0865 3.78455 16.4026C3.03054 14.7186 2.78019 12.8522 3.06376 11.029C3.34732 9.20575 4.15267 7.50366 5.38249 6.12836L5.57614 5.93691L19.0566 19.428L18.8648 19.6217C17.1186 21.1865 14.8565 22.0516 12.5121 22.0513ZM19.6825 18.7997L19.4933 18.9915L6.01701 5.50343L6.20842 5.31386C8.03221 3.71427 10.3961 2.86864 12.8204 2.94857C15.2448 3.0285 17.5479 4.028 19.2624 5.74425C20.9769 7.46049 21.9744 9.76491 22.0524 12.1898C22.1304 14.6148 21.2831 16.9786 19.6825 18.8015V18.7997Z" fill="#F5F5F5"/>
</svg>
