<svg width="25" height="25" viewBox="0 0 25 25" fill="none" xmlns="http://www.w3.org/2000/svg">
<circle cx="12.5" cy="12.5" r="12.5" fill="#8A4B53"/>
<path d="M11.9586 20.5021C9.23059 19.7852 7.51425 17.9042 6.4202 16.7051C6.30929 16.5836 6.20477 16.469 6.10625 16.3634C3.82929 13.9227 3.96206 10.0982 6.40282 7.82123C8.84357 5.54426 12.668 5.67704 14.945 8.1178C15.5336 8.74869 15.839 9.18242 16.0113 9.56273C16.1813 9.93806 16.2313 10.2816 16.2729 10.763C16.2798 10.843 16.2864 10.9258 16.2933 11.0121C16.3715 11.9897 16.4851 13.4085 17.434 16.1325C17.5341 16.4199 17.7168 16.7688 17.9159 17.1231C18.0152 17.2999 18.1214 17.4829 18.2271 17.6651L18.2319 17.6734C18.3396 17.859 18.4469 18.044 18.5483 18.2247C18.7531 18.5894 18.9256 18.9223 19.0255 19.1916C19.0756 19.3265 19.1021 19.4315 19.1095 19.5078C19.1149 19.5626 19.1089 19.5857 19.1074 19.5904C18.9632 19.8051 18.6386 20.0314 18.1308 20.2315C17.6313 20.4283 16.9974 20.583 16.2956 20.6814C14.8894 20.8784 13.2563 20.8431 11.9586 20.5021Z" stroke="#F5F5F5" stroke-width="0.6"/>
<path fill-rule="evenodd" clip-rule="evenodd" d="M8.80186 6.16508L8.28027 4.39819Z" fill="white"/>
<path d="M8.80186 6.16508L8.28027 4.39819" stroke="white" stroke-width="0.951616" stroke-linecap="round" stroke-linejoin="round"/>
<path fill-rule="evenodd" clip-rule="evenodd" d="M8.30207 4.42191C8.30207 4.42191 8.96111 2.22967 11.4024 2.43102C11.4024 2.43102 11.683 4.42271 8.51879 4.89578" fill="white"/>
<path d="M7.53906 8.58765C5.6093 10.3879 5.50432 13.4117 7.30458 15.3415" stroke="white" stroke-width="0.6" stroke-linecap="round" stroke-linejoin="round"/>
</svg>
