<svg width="25" height="25" viewBox="0 0 25 25" fill="none" xmlns="http://www.w3.org/2000/svg">
<circle cx="12.5" cy="12.5" r="12.5" fill="#8A4B53"/>
<path d="M21 8.36966L18.176 8.74982C19.6308 6.96995 20.3154 5.58753 20.3496 5.51841L20.5892 5.03456L20.0758 5.1728C18.5868 5.57025 17.2335 6.69347 16.6014 7.26372L16.3789 5L16.0024 5.50113C15.1121 6.67619 14.8557 7.86976 14.8044 8.5079C14.1014 8.14501 13.3325 8.09317 12.5281 8.36966C10.5085 9.06087 8.62583 11.7048 7.39355 13.7784C6.02434 16.0779 5.08271 18.3749 5.01456 18.8415C4.96321 19.2217 5.04879 19.5512 5.25417 19.7574C5.40698 19.9117 5.66493 19.9993 5.95711 19.9993C6.02601 20.0021 6.095 19.9963 6.16249 19.982C6.64171 19.9129 8.90089 18.9637 11.1772 17.5973C13.2481 16.3532 15.8496 14.4523 16.5342 12.4132C16.7738 11.722 16.7738 11.0654 16.551 10.4606C18.2112 10.3223 20.0938 8.99175 20.1794 8.93991L21 8.36966ZM15.9853 12.2404C15.6259 13.2945 14.6846 14.3314 13.555 15.2472L12.1515 13.8302L11.7408 14.245L13.0925 15.6101C12.5965 15.9903 12.084 16.3359 11.5864 16.6642L11.0562 16.1285L10.6454 16.5432L11.0904 16.9925C11.0219 17.0271 10.9532 17.0789 10.885 17.1135C8.54025 18.5132 6.40087 19.3599 6.07569 19.4105C5.83608 19.4451 5.69916 19.376 5.66493 19.3414C5.6307 19.3069 5.56224 19.1686 5.59647 18.9267C5.61358 18.7366 5.95588 17.8207 6.53779 16.5938L6.70894 16.7666L7.11971 16.3519L6.81163 16.0421C7.1197 15.4373 7.47912 14.7819 7.87277 14.0894C8.04392 13.7957 8.2493 13.4673 8.45346 13.1563L9.20774 13.9179L9.6185 13.5031L8.77986 12.6564C9.29331 11.8961 9.85811 11.153 10.4743 10.5136L12.1515 12.2059L12.5623 11.7912L10.885 10.0977C11.4657 9.562 12.0831 9.12999 12.6992 8.92263C12.9631 8.82916 13.241 8.78239 13.5207 8.78438C14.154 8.78438 14.7359 9.0621 15.3007 9.63112C16.088 10.4087 16.3093 11.2727 15.9853 12.2404ZM16.3276 9.99401C16.1748 9.71629 15.9682 9.45832 15.7115 9.19911C15.5718 9.05707 15.4231 8.92431 15.2665 8.80167C15.2836 8.40422 15.4034 7.41924 16.0195 6.34786L16.2249 8.35361L16.5831 7.97221C16.6002 7.95493 17.9865 6.50339 19.6125 5.84673C18.9662 6.93468 18.2274 7.96385 17.4046 8.92263L16.9767 9.42376L18.912 9.16579C18.1931 9.54595 17.1833 9.97796 16.3276 9.99524V9.99401Z" fill="white"/>
</svg>
