<svg width="30" height="30" viewBox="0 0 30 30" fill="none" xmlns="http://www.w3.org/2000/svg">
<path d="M7.37902 29C6.74862 28.9982 6.14454 28.745 5.69878 28.2957C5.25301 27.8464 5.00179 27.2376 5 26.6022V4.39777C5.00206 3.76248 5.25337 3.15381 5.69908 2.70459C6.14479 2.25537 6.7487 2.00208 7.37902 2H22.7375C23.3678 2.00208 23.9717 2.25537 24.4174 2.70459C24.8631 3.15381 25.1144 3.76248 25.1165 4.39777V26.6022C25.1144 27.2375 24.8631 27.8462 24.4174 28.2954C23.9717 28.7446 23.3678 28.9979 22.7375 29H7.37902ZM7.37902 2.83451C6.96772 2.83534 6.57347 3.00024 6.28245 3.29317C5.99142 3.5861 5.82728 3.98323 5.8259 4.39777V26.6022C5.82727 27.0166 5.99125 27.4137 6.28204 27.7066C6.57283 27.9996 6.96681 28.1648 7.37798 28.166H22.7364C23.1476 28.1648 23.5416 27.9996 23.8323 27.7066C24.1231 27.4137 24.2871 27.0166 24.2885 26.6022V4.39777C24.2871 3.98341 24.1231 3.58644 23.8323 3.29354C23.5415 3.00064 23.1475 2.83562 22.7364 2.83451H7.37902ZM8.21901 25.271C8.10939 25.2709 8.00431 25.2269 7.9268 25.1488C7.84929 25.0707 7.80568 24.9648 7.80554 24.8543V20.5292C7.80568 20.4187 7.84929 20.3128 7.9268 20.2346C8.00431 20.1565 8.10939 20.1126 8.21901 20.1124H13.4156C13.5252 20.1126 13.6303 20.1565 13.7078 20.2346C13.7853 20.3128 13.8289 20.4187 13.829 20.5292V24.8543C13.8289 24.9648 13.7853 25.0707 13.7078 25.1488C13.6303 25.2269 13.5252 25.2709 13.4156 25.271H8.21901ZM8.63144 24.4386H13.0021V20.9459H8.63196L8.63144 24.4386ZM15.627 23.1085C15.5715 23.1104 15.5162 23.1011 15.4643 23.0811C15.4125 23.0611 15.3652 23.0307 15.3252 22.9918C15.2852 22.953 15.2535 22.9064 15.2318 22.8549C15.21 22.8034 15.1989 22.748 15.1989 22.692C15.1989 22.636 15.21 22.5806 15.2318 22.5291C15.2535 22.4776 15.2852 22.431 15.3252 22.3921C15.3652 22.3533 15.4125 22.3229 15.4643 22.3029C15.5162 22.2828 15.5715 22.2735 15.627 22.2755H22.2979C22.3534 22.2735 22.4087 22.2828 22.4606 22.3029C22.5124 22.3229 22.5597 22.3533 22.5997 22.3921C22.6397 22.431 22.6714 22.4776 22.6931 22.5291C22.7149 22.5806 22.726 22.636 22.726 22.692C22.726 22.748 22.7149 22.8034 22.6931 22.8549C22.6714 22.9064 22.6397 22.953 22.5997 22.9918C22.5597 23.0307 22.5124 23.0611 22.4606 23.0811C22.4087 23.1011 22.3534 23.1104 22.2979 23.1085H15.627ZM8.21901 18.2361C8.10939 18.236 8.00431 18.192 7.9268 18.1139C7.84929 18.0358 7.80568 17.9298 7.80554 17.8194V12.6587C7.80568 12.5482 7.84929 12.4423 7.9268 12.3642C8.00431 12.286 8.10939 12.2421 8.21901 12.2419H11.3863C11.496 12.2419 11.6012 12.2858 11.6787 12.364C11.7562 12.4422 11.7998 12.5481 11.7998 12.6587C11.7998 12.7692 11.7562 12.8752 11.6787 12.9533C11.6012 13.0315 11.496 13.0754 11.3863 13.0754H8.633V17.4016H13.0037V15.5074C13.0113 15.3997 13.06 15.2992 13.1397 15.227C13.2194 15.1549 13.3237 15.1167 13.4307 15.1205C13.5378 15.1243 13.6392 15.1698 13.7136 15.2475C13.7879 15.3252 13.8295 15.4289 13.8296 15.5368V17.8167C13.8294 17.9272 13.7858 18.0331 13.7083 18.1113C13.6308 18.1894 13.5257 18.2333 13.4161 18.2335L8.21901 18.2361ZM10.9415 16.2698C10.8862 16.2699 10.8314 16.2588 10.7804 16.237C10.7294 16.2152 10.6834 16.1832 10.645 16.143L9.62857 15.0791L9.47195 14.9123C9.41586 14.8536 9.37814 14.7797 9.3635 14.6996C9.34886 14.6195 9.35795 14.5368 9.38963 14.4619C9.42131 14.387 9.47419 14.3231 9.54166 14.2783C9.60912 14.2334 9.6882 14.2096 9.769 14.2098C9.82423 14.2095 9.87895 14.2206 9.92976 14.2424C9.98058 14.2642 10.0264 14.2963 10.0645 14.3366L10.9426 15.2559L13.4286 12.6355C13.504 12.5565 13.6073 12.5108 13.7159 12.5083C13.8246 12.5059 13.9299 12.5469 14.0086 12.6224C14.0872 12.6983 14.1326 12.8025 14.1351 12.9122C14.1375 13.0219 14.0967 13.128 14.0217 13.2075L11.2621 16.1146L11.2579 16.1198C11.2486 16.1311 11.2387 16.1418 11.2282 16.1519C11.1515 16.227 11.0489 16.2691 10.9421 16.2693L10.9415 16.2698ZM15.6265 15.6579C15.5168 15.6579 15.4117 15.6139 15.3341 15.5358C15.2566 15.4576 15.213 15.3516 15.213 15.2411C15.213 15.1306 15.2566 15.0246 15.3341 14.9465C15.4117 14.8683 15.5168 14.8244 15.6265 14.8244H22.2974C22.407 14.8244 22.5122 14.8683 22.5897 14.9465C22.6673 15.0246 22.7108 15.1306 22.7108 15.2411C22.7108 15.3516 22.6673 15.4576 22.5897 15.5358C22.5122 15.6139 22.407 15.6579 22.2974 15.6579H15.6265ZM8.21901 10.3661C8.10939 10.366 8.00431 10.322 7.9268 10.2439C7.84929 10.1658 7.80568 10.0599 7.80554 9.94941V5.62322C7.80568 5.51274 7.84929 5.40683 7.9268 5.3287C8.00431 5.25058 8.10939 5.20663 8.21901 5.20649H13.4156C13.5252 5.20677 13.6302 5.25077 13.7076 5.32886C13.7851 5.40695 13.8288 5.51278 13.829 5.62322V9.94941C13.8289 10.0599 13.7853 10.1658 13.7078 10.2439C13.6303 10.322 13.5252 10.366 13.4156 10.3661H8.21901ZM8.63144 9.53268H13.0021V6.03995H8.63144V9.53268ZM15.627 8.20304C15.5174 8.20304 15.4122 8.15914 15.3347 8.08099C15.2571 8.00284 15.2135 7.89684 15.2135 7.78632C15.2135 7.67579 15.2571 7.5698 15.3347 7.49164C15.4122 7.41349 15.5174 7.36959 15.627 7.36959H22.2974C22.407 7.36959 22.5122 7.41349 22.5897 7.49164C22.6673 7.5698 22.7108 7.67579 22.7108 7.78632C22.7108 7.89684 22.6673 8.00284 22.5897 8.08099C22.5122 8.15914 22.407 8.20304 22.2974 8.20304H15.627Z" fill="black" stroke="black" stroke-width="0.5"/>
</svg>
