<svg width="168" height="425" viewBox="0 0 168 425" fill="none" xmlns="http://www.w3.org/2000/svg">
<g clip-path="url(#clip0_90_232)">
<path d="M0 0V0.0782756V8.7773V365.338V374.116H8.7773H130.892V365.338H8.7773V8.7773H158.967V326.581H167.745V8.7773V2.48916V0H0Z" fill="white"/>
<path d="M68.0422 109.022C65.3078 111.517 60.7852 112.764 54.4744 112.764H33.0791V40.1033H53.2168C59.4441 40.1033 64.1493 41.3661 67.3325 43.8918C70.5157 46.4175 72.1073 50.5522 72.1073 56.2959V96.3626C72.1317 102.312 70.7766 106.531 68.0422 109.022ZM61.0548 49.9138C59.6632 48.5605 57.8298 47.8856 55.5546 47.8891H42.1434V104.978H55.4294C58.0595 104.978 59.9972 104.373 61.2427 103.162C62.4881 101.951 63.1108 100.038 63.1108 97.4219V55.3618C63.1108 53.0761 62.4255 51.2602 61.0548 49.9138Z" fill="white"/>
<path d="M131.879 108.349C128.661 111.292 124.041 112.764 118.019 112.764H115.409C109.387 112.764 104.769 111.292 101.555 108.349C98.34 105.406 96.731 100.995 96.7275 95.1154V40.1033H105.755V97.0879C105.744 98.1214 105.95 99.1456 106.362 100.094C106.774 101.041 107.382 101.892 108.145 102.588C109.746 104.122 111.826 104.889 114.387 104.889H119.083C121.644 104.889 123.72 104.127 125.314 102.604C126.078 101.908 126.685 101.058 127.096 100.11C127.507 99.1614 127.713 98.1369 127.699 97.1036V40.1033H136.721V95.1154C136.721 100.998 135.107 105.409 131.879 108.349Z" fill="white"/>
<path d="M42.5614 205.014L38.5119 223.388H29.2754L46.8143 150.728H58.754L75.9746 223.388H66.7433L62.8034 205.014H42.5614ZM61.1388 197.255L52.6276 157.595L44.2208 197.255H61.1388Z" fill="white"/>
<path d="M105.046 193.283V223.388H96.0186V150.728H115.53C121.413 150.728 125.859 152.025 128.868 154.62C131.877 157.216 133.382 161.316 133.382 166.92V176.903C133.382 184.72 130.268 189.591 124.041 191.514L138.47 223.383H128.607L115.217 193.278L105.046 193.283ZM122.538 160.277C121.324 159.105 119.411 158.517 116.798 158.513H105.046V185.503H116.777C119.4 185.503 121.314 184.896 122.517 183.682C123.723 182.476 124.333 180.551 124.333 177.941V165.986C124.354 163.335 123.744 161.457 122.538 160.277V160.277Z" fill="white"/>
<path d="M68.0422 330.276C65.3078 332.764 60.7852 334.009 54.4744 334.012H33.0791V261.352H53.2168C59.4441 261.352 64.1493 262.615 67.3325 265.14C70.5157 267.666 72.1073 271.801 72.1073 277.544V317.611C72.1317 323.564 70.7766 327.785 68.0422 330.276ZM61.0548 271.162C59.6632 269.809 57.8298 269.134 55.5546 269.138H42.1434V326.227H55.4294C58.0595 326.227 59.9972 325.621 61.2427 324.411C62.4881 323.2 63.1108 321.287 63.1108 318.67V276.61C63.1108 274.332 62.4255 272.516 61.0548 271.162Z" fill="white"/>
<path d="M114.386 246.719L125.183 258.654H116.568L102.864 246.719H114.386ZM112.518 326.435V268.929H103.177V261.352H130.892V268.929H121.551V326.435H130.892V334.012H103.177V326.435H112.518Z" fill="white"/>
</g>
<defs>
<clipPath id="clip0_90_232">
<rect width="167.745" height="425" fill="white"/>
</clipPath>
</defs>
</svg>
