<svg id="Layer_1" data-name="Layer 1" xmlns="http://www.w3.org/2000/svg" viewBox="0 0 28.72 28.72"><defs><style>.cls-1{fill:#97c022;}.cls-2{fill:#fff;}</style></defs><circle class="cls-1" cx="14.36" cy="14.36" r="14.36"/><path class="cls-2" d="M12.16,21.9a2.16,2.16,0,0,1,.64-1.56,2.12,2.12,0,0,1,1.56-.64,2.2,2.2,0,0,1,.86.17,2,2,0,0,1,.68.47,2.48,2.48,0,0,1,.46.71,2.22,2.22,0,0,1,.17.85,2.17,2.17,0,0,1-.17.84,2.35,2.35,0,0,1-.46.71,2,2,0,0,1-.68.47,2.2,2.2,0,0,1-.86.17,2.16,2.16,0,0,1-.86-.17,2.1,2.1,0,0,1-.7-.47,2.2,2.2,0,0,1-.47-.71A2.17,2.17,0,0,1,12.16,21.9Zm.45-3.72V4.49h3.47V18.18Z"/></svg>