<svg width="30" height="30" viewBox="0 0 30 30" fill="none" xmlns="http://www.w3.org/2000/svg">
<path d="M27.3064 29C27.1314 28.9991 26.9638 28.9281 26.8397 28.8022L20.8718 22.7123L20.1721 23.1581C18.39 24.2996 16.3291 24.9063 14.2251 24.9088C8.03561 24.9088 3 19.7703 3 13.4544C3 7.13849 8.03561 2 14.2251 2C20.4146 2 25.4502 7.13849 25.4502 13.4544C25.4449 16.2696 24.4238 18.9842 22.5817 21.08L21.9301 21.8266L27.8023 27.8199C27.866 27.8829 27.9164 27.9585 27.9504 28.0421C27.9843 28.1257 28.0012 28.2155 27.9999 28.306C27.9987 28.3965 27.9793 28.4858 27.943 28.5684C27.9066 28.6509 27.8542 28.725 27.7887 28.7862L27.7757 28.7995C27.6514 28.9271 27.4827 28.9992 27.3064 29V29ZM14.2251 3.37794C8.78029 3.37794 4.34827 7.89838 4.34827 13.4565C4.34827 19.0147 8.7782 23.5352 14.2251 23.5352C19.6542 23.5352 24.0706 19.0147 24.0706 13.4565C24.0706 7.89838 19.6542 3.37794 14.2251 3.37794Z" fill="black" fill-opacity="0.45"/>
</svg>
