<svg width="27" height="29" viewBox="0 0 27 29" fill="none" xmlns="http://www.w3.org/2000/svg">
<path d="M25.3064 28C25.1314 27.9991 24.9638 27.9281 24.8397 27.8022L18.8718 21.7123L18.1721 22.1581C16.39 23.2996 14.3291 23.9063 12.2251 23.9088C6.03561 23.9088 1 18.7703 1 12.4544C1 6.13849 6.03561 1 12.2251 1C18.4146 1 23.4502 6.13849 23.4502 12.4544C23.4449 15.2696 22.4238 17.9842 20.5817 20.08L19.9301 20.8266L25.8023 26.8199C25.866 26.8829 25.9164 26.9585 25.9503 27.0421C25.9843 27.1257 26.0012 27.2155 25.9999 27.306C25.9987 27.3965 25.9793 27.4858 25.9429 27.5684C25.9066 27.6509 25.8542 27.725 25.7887 27.7862L25.7757 27.7995C25.6514 27.9271 25.4827 27.9992 25.3064 28ZM12.2251 2.37794C6.78029 2.37794 2.34827 6.89838 2.34827 12.4565C2.34827 18.0147 6.7782 22.5352 12.2251 22.5352C17.6542 22.5352 22.0706 18.0147 22.0706 12.4565C22.0706 6.89838 17.6542 2.37794 12.2251 2.37794Z" fill="white" stroke="white" stroke-width="0.5"/>
</svg>
