<svg id="Layer_1" data-name="Layer 1" xmlns="http://www.w3.org/2000/svg" xmlns:xlink="http://www.w3.org/1999/xlink" viewBox="0 0 394 434.35"><defs><style>.cls-1{fill:#fff;}.cls-2{fill:url(#linear-gradient);}.cls-3{fill:#8c00dd;}</style><linearGradient id="linear-gradient" x1="84.74" y1="244.11" x2="309.26" y2="244.11" gradientUnits="userSpaceOnUse"><stop offset="0" stop-color="#08a2c4"/><stop offset="0.64" stop-color="#0a96d7"/><stop offset="1" stop-color="#0c8ee4"/></linearGradient></defs><path class="cls-1" d="M5.93,434.35s95.3-49.5,95.3-150.47H278.94S189.44,434.35,5.93,434.35Z"/><circle class="cls-1" cx="197" cy="197" r="197"/><path class="cls-2" d="M309.26,245.32c0,48.65-40,75.05-84.48,81.85a154.16,154.16,0,0,1-23.7,1.8c-63.46,0-116.34-28.37-116.34-63,0-15.39,8.65-29.32,28.37-29.32,30.28,0,33.16,43.27,85.08,43.27,25,0,40.87-11.05,40.87-25.49a24.63,24.63,0,0,0-.15-2.77,15.28,15.28,0,0,0-.25-1.85.16.16,0,0,1,0-.1,123.37,123.37,0,0,0-63.52-90.48c5.1,1.6,10.95,2.92,17.31,4.33l29.33,6.74C261.66,179.45,309.26,196.28,309.26,245.32Z"/><path class="cls-3" d="M297.23,118.4c0,16.35-11.05,30.77-29.32,30.77-27.4,0-28.37-32.22-72.6-32.22-24.52,0-40.39,6.73-40.39,21.63,0,6.6,2.59,11.15,7.07,14.55,3.38,2.57,7.85,4.49,13.13,6.12a123.37,123.37,0,0,1,63.52,90.48c-2.63-13.65-17.36-16.55-40-22.2l-41.34-10.1c-39.32-9.71-70.17-25.65-72.45-68.78q-.15-2.55-.15-5.25C84.74,86.18,141.47,65,190,65,243.39,65,297.23,86.18,297.23,118.4Z"/></svg>