<svg width="30" height="30" viewBox="0 0 30 30" fill="none" xmlns="http://www.w3.org/2000/svg">
<g clip-path="url(#clip0_1003_805)">
<path d="M8.81245 9.0226C7.27203 9.0226 5.86879 7.96683 5.4767 6.51186L5.33273 5.97845H0.465866C0.404353 5.97973 0.343217 5.96851 0.286134 5.94549C0.22905 5.92246 0.177198 5.8881 0.133692 5.84446C0.0901859 5.80083 0.0559246 5.74882 0.0329666 5.69157C0.0100087 5.63431 -0.00117167 5.573 9.70649e-05 5.5113C9.70649e-05 5.27857 0.129665 5.04414 0.418442 5.04414H5.27091L5.42419 4.52773C5.63827 3.80342 6.07829 3.16705 6.6796 2.71209C7.28092 2.25713 8.01184 2.00754 8.76503 2C9.53374 2.00433 10.2812 2.25345 10.8996 2.71143C11.518 3.1694 11.9754 3.81255 12.2058 4.54811L12.3675 5.04754H30.3937C30.5172 5.04754 30.6357 5.09676 30.723 5.18437C30.8104 5.27198 30.8594 5.3908 30.8594 5.5147C30.8594 5.63859 30.8104 5.75742 30.723 5.84502C30.6357 5.93263 30.5172 5.98185 30.3937 5.98185H12.3557L12.2007 6.49657C11.986 7.22948 11.5392 7.87237 10.9279 8.32809C10.3166 8.78381 9.57408 9.02759 8.81245 9.0226V9.0226ZM8.81245 2.93431C8.30428 2.93431 7.80752 3.08545 7.385 3.36861C6.96247 3.65177 6.63315 4.05424 6.43868 4.52513C6.24421 4.99601 6.19333 5.51416 6.29247 6.01405C6.39161 6.51393 6.63631 6.97311 6.99564 7.33351C7.35498 7.69391 7.81279 7.93934 8.3112 8.03877C8.8096 8.13821 9.32621 8.08718 9.7957 7.89213C10.2652 7.69708 10.6665 7.36678 10.9488 6.943C11.2311 6.51921 11.3818 6.02098 11.3818 5.5113C11.3809 4.82811 11.1099 4.17317 10.6283 3.69008C10.1466 3.207 9.49361 2.93521 8.81245 2.93431V2.93431Z" fill="black" fill-opacity="0.45"/>
<path d="M23.0401 18.5358C21.4988 18.5358 20.0964 17.48 19.7043 16.0251L19.5604 15.4916H0.466374C0.404828 15.493 0.343639 15.4819 0.286501 15.4589C0.229364 15.4359 0.177462 15.4016 0.133932 15.3579C0.0904012 15.3143 0.0561438 15.2622 0.0332283 15.2049C0.0103128 15.1476 -0.000784537 15.0862 0.000604248 15.0245C0.000604248 14.9149 0.0344784 14.5573 0.466374 14.5573H19.546L19.6993 14.0409C19.9123 13.3115 20.3553 12.6709 20.9619 12.2152C21.5685 11.7595 22.3059 11.5132 23.0638 11.5132C23.8217 11.5132 24.5591 11.7595 25.1657 12.2152C25.7723 12.6709 26.2153 13.3115 26.4284 14.0409L26.5833 14.5573H30.3942C30.5177 14.5573 30.6362 14.6066 30.7235 14.6942C30.8109 14.7818 30.8599 14.9006 30.8599 15.0245C30.8599 15.1484 30.8109 15.2672 30.7235 15.3548C30.6362 15.4424 30.5177 15.4916 30.3942 15.4916H26.5833L26.4284 16.0098C26.2136 16.7427 25.7668 17.3856 25.1555 17.8413C24.5443 18.297 23.8017 18.5408 23.0401 18.5358V18.5358ZM23.0875 12.4475C22.749 12.4436 22.4132 12.5076 22.0997 12.6358C21.7863 12.7639 21.5015 12.9536 21.2621 13.1937C21.0228 13.4337 20.8336 13.7194 20.7059 14.0338C20.5781 14.3482 20.5143 14.685 20.5182 15.0245C20.5182 15.5342 20.6689 16.0324 20.9512 16.4562C21.2335 16.88 21.6348 17.2103 22.1043 17.4053C22.5738 17.6004 23.0904 17.6514 23.5888 17.552C24.0872 17.4525 24.545 17.2071 24.9043 16.8467C25.2637 16.4863 25.5084 16.0271 25.6075 15.5272C25.7066 15.0273 25.6558 14.5092 25.4613 14.0383C25.2668 13.5674 24.9375 13.165 24.515 12.8818C24.0924 12.5986 23.5957 12.4475 23.0875 12.4475V12.4475Z" fill="black" fill-opacity="0.45"/>
<path d="M14.5038 28.9999C12.9625 28.9999 11.5602 27.9441 11.1681 26.4892L11.0241 25.9558H0.466374C0.404828 25.9572 0.343639 25.946 0.286501 25.923C0.229364 25.9001 0.177462 25.8657 0.133932 25.822C0.0904012 25.7784 0.0561438 25.7263 0.0332283 25.669C0.0103128 25.6117 -0.000784537 25.5503 0.000604248 25.4886C0.000604248 25.379 0.0344784 25.0214 0.466374 25.0214H10.9623L11.1156 24.505C11.3286 23.7756 11.7716 23.135 12.3782 22.6793C12.9848 22.2236 13.7222 21.9773 14.4801 21.9773C15.238 21.9773 15.9754 22.2236 16.582 22.6793C17.1886 23.135 17.6316 23.7756 17.8446 24.505L17.9979 25.0214H30.3942C30.5177 25.0214 30.6362 25.0707 30.7235 25.1583C30.8109 25.2459 30.8599 25.3647 30.8599 25.4886C30.8599 25.6125 30.8109 25.7313 30.7235 25.8189C30.6362 25.9065 30.5177 25.9558 30.3942 25.9558H18.0454L17.8921 26.4722C17.6776 27.2054 17.231 27.8487 16.6197 28.3047C16.0084 28.7608 15.2657 29.0048 14.5038 28.9999V28.9999ZM14.5038 22.9116C13.1277 22.9116 11.9997 24.0294 11.9345 25.4597V25.492C11.9343 26.0019 12.0849 26.5004 12.3672 26.9244C12.6495 27.3484 13.0509 27.679 13.5205 27.8742C13.9901 28.0695 14.5069 28.1206 15.0056 28.0213C15.5042 27.9219 15.9622 27.6764 16.3218 27.316C16.6813 26.9555 16.9262 26.4962 17.0254 25.9961C17.1247 25.496 17.0738 24.9776 16.8793 24.5066C16.6848 24.0355 16.3554 23.6328 15.9327 23.3495C15.51 23.0662 15.013 22.915 14.5047 22.915L14.5038 22.9116Z" fill="black" fill-opacity="0.45"/>
</g>
<defs>
<clipPath id="clip0_1003_805">
<rect width="30" height="30" fill="white"/>
</clipPath>
</defs>
</svg>
