<svg width="27" height="29" viewBox="0 0 27 29" fill="none" xmlns="http://www.w3.org/2000/svg">
<path d="M25.7727 10.9978L25.9436 10.8153L25.7727 10.9978C26.3969 11.5823 26.75 12.395 26.75 13.2446V25.6569C26.75 27.3629 25.3531 28.75 23.625 28.75H19.125C17.3969 28.75 16 27.3629 16 25.6569V20.0851C16 19.3294 15.3821 18.7208 14.625 18.7208H12.375C11.6179 18.7208 11 19.3294 11 20.0851V25.6569C11 27.3629 9.60314 28.75 7.875 28.75H3.375C1.64686 28.75 0.25 27.3629 0.25 25.6569V13.2446C0.25 12.395 0.603121 11.5823 1.22722 10.9978L12.1251 0.791703C12.8964 0.0694323 14.1036 0.0694323 14.8749 0.791703L25.7727 10.9978ZM13.6709 2.04626L13.5 1.88622L13.3291 2.04626L2.43121 12.2524C2.15628 12.5098 2 12.8687 2 13.2446V25.6569C2 26.4125 2.61784 27.0213 3.375 27.0213H7.875C8.63216 27.0213 9.25 26.4125 9.25 25.6569V20.0851C9.25 18.3791 10.6469 16.9921 12.375 16.9921H14.625C16.3531 16.9921 17.75 18.3791 17.75 20.0851V25.6569C17.75 26.4126 18.3679 27.0213 19.125 27.0213H23.625C24.3821 27.0213 25 26.4126 25 25.6569V13.2446C25 12.8687 24.8437 12.5098 24.5688 12.2524C24.5688 12.2524 24.5688 12.2524 24.5688 12.2524L13.6709 2.04626Z" fill="white" stroke="#874850" stroke-width="0.5"/>
</svg>
