<svg width="30" height="30" viewBox="0 0 30 30" fill="none" xmlns="http://www.w3.org/2000/svg">
<path d="M15.6367 3.08276L15.5 2.95472L15.3633 3.08276L4.46539 13.2889C4.20049 13.5369 4.05 13.8826 4.05 14.2446V26.6569C4.05 27.3845 4.64501 27.9713 5.375 27.9713H9.875C10.605 27.9713 11.2 27.3845 11.2 26.6569V21.0851C11.2 19.3511 12.6197 17.9421 14.375 17.9421H16.625C18.3803 17.9421 19.8 19.3511 19.8 21.0851V26.6569C19.8 27.3845 20.3951 27.9713 21.125 27.9713H25.625C26.3549 27.9713 26.95 27.3845 26.95 26.6569V14.2446C26.95 13.8826 26.7995 13.5369 26.5346 13.2889L15.6367 3.08276ZM27.8069 11.9613L27.9261 11.834L27.8069 11.9613C28.4411 12.5552 28.8 13.3811 28.8 14.2446V26.6569C28.8 28.3909 27.3802 29.8 25.625 29.8H21.125C19.3697 29.8 17.95 28.3909 17.95 26.6569V21.0851C17.95 20.3575 17.355 19.7708 16.625 19.7708H14.375C13.645 19.7708 13.05 20.3575 13.05 21.0851V26.6569C13.05 28.3909 11.6303 29.8 9.875 29.8H5.375C3.6197 29.8 2.2 28.3909 2.2 26.6569V14.2446C2.2 13.3811 2.55891 12.5552 3.19304 11.9613L14.0909 1.75521C14.8814 1.01493 16.1186 1.01493 16.9091 1.75521L27.8069 11.9613Z" fill="#2F2F2F" stroke="#EDEBE7" stroke-width="0.4"/>
</svg>
