<svg width="21" height="21" viewBox="0 0 21 21" fill="none" xmlns="http://www.w3.org/2000/svg">
<path d="M10.4285 21C7.62846 21 4.92846 19.6 3.32846 17.3C1.12846 14.1 1.72846 9.6 4.62846 7C5.32846 6.4 6.12846 5.8 6.72846 5C7.32846 4.2 7.72846 3.2 7.92846 2.2C8.02846 1.5 7.92846 0.7 7.92846 0C9.32846 0.8 10.5285 1.6 11.4285 2.8C12.6285 4.4 13.4285 6.4 13.4285 8.5C13.4285 8.7 13.5285 8.9 13.6285 8.9C13.7285 8.9 13.9285 8.9 14.0285 8.8C14.5285 8.4 14.8285 7.7 15.1285 7.1L15.4285 6.2L16.1285 6.8C19.0285 9.5 19.7285 14 17.4285 17.3C16.0285 19.4 13.5285 20.7 11.0285 20.9C10.8285 21 10.6285 21 10.4285 21ZM9.12846 2.7C9.02846 3 8.92846 3.4 8.82846 3.7C8.52846 4.6 8.02846 5.4 7.42846 6.1C7.02846 6.6 6.52846 7 6.02846 7.4C4.32846 8.7 3.22846 10.7 3.22846 12.9C3.22846 14.8 4.12846 16.7 5.52846 18C6.92846 19.3 8.92846 19.9 10.8285 19.8C13.0285 19.7 15.1285 18.5 16.3285 16.8C17.7285 14.9 17.9285 12.3 16.9285 10.1C16.7285 9.6 16.4285 9.1 16.0285 8.7L15.8285 8.5L15.6285 8.7C15.0285 9.6 14.1285 10.6 12.9285 10.1C12.6285 10 12.4285 9.8 12.2285 9.5C11.8285 8.8 12.0285 7.8 11.8285 7C11.6285 6.1 11.3285 5.3 10.8285 4.5C10.4285 3.8 9.82846 3.1 9.22846 2.6L9.12846 2.3V2.7Z" fill="#868686"/>
</svg>
