<svg width="28" height="28" viewBox="0 0 28 28" fill="none" xmlns="http://www.w3.org/2000/svg">
<path fill-rule="evenodd" clip-rule="evenodd" d="M27.6273 2.17268C28.1242 1.67565 28.1242 0.869813 27.6273 0.372788C27.1302 -0.124263 26.3243 -0.124263 25.8272 0.372788L14 12.2001L2.17268 0.372788C1.67565 -0.124263 0.869813 -0.124263 0.372788 0.372788C-0.124263 0.869813 -0.124263 1.67565 0.372788 2.17268L12.2001 14L0.372788 25.8272C-0.124263 26.3243 -0.124263 27.1302 0.372788 27.6273C0.869813 28.1242 1.67565 28.1242 2.17268 27.6273L14 15.7999L25.8272 27.6273C26.3243 28.1242 27.1302 28.1242 27.6273 27.6273C28.1242 27.1302 28.1242 26.3243 27.6273 25.8272L15.7999 14L27.6273 2.17268Z" fill="#2F2F2F"/>
</svg>
