<svg width="25" height="25" viewBox="0 0 25 25" fill="none" xmlns="http://www.w3.org/2000/svg">
<path d="M12.5 25C10.0277 25 7.61099 24.2669 5.55538 22.8934C3.49976 21.5199 1.89761 19.5676 0.951511 17.2835C0.00541609 14.9995 -0.242126 12.4861 0.24019 10.0614C0.722505 7.63661 1.91301 5.40933 3.66117 3.66117C5.40933 1.91301 7.63661 0.722505 10.0614 0.24019C12.4861 -0.242126 14.9995 0.00541609 17.2835 0.951511C19.5676 1.89761 21.5199 3.49976 22.8934 5.55538C24.2669 7.61099 25 10.0277 25 12.5C24.9963 15.8141 23.6781 18.9913 21.3347 21.3347C18.9913 23.6781 15.8141 24.9963 12.5 25V25ZM12.5 1.05043C10.2355 1.05043 8.02183 1.72193 6.13896 2.98003C4.25609 4.23812 2.78856 6.0263 1.92197 8.11844C1.05538 10.2106 0.828642 12.5127 1.27043 14.7337C1.71221 16.9547 2.80268 18.9948 4.40393 20.5961C6.00518 22.1973 8.0453 23.2878 10.2663 23.7296C12.4873 24.1714 14.7894 23.9446 16.8816 23.078C18.9737 22.2114 20.7619 20.7439 22.02 18.861C23.2781 16.9782 23.9496 14.7645 23.9496 12.5C23.9459 9.46452 22.7384 6.55443 20.592 4.40802C18.4456 2.26161 15.5355 1.05413 12.5 1.05043V1.05043Z" fill="#7C7C7C"/>
<path d="M13.5203 10.0051H11.479V19.5604H13.5203V10.0051Z" fill="#7C7C7C"/>
<path d="M13.6051 5.62695H11.3975V7.83459H13.6051V5.62695Z" fill="#7C7C7C"/>
</svg>
