<svg width="23" height="22" viewBox="0 0 23 22" fill="none" xmlns="http://www.w3.org/2000/svg">
<path d="M12.3817 0.547557L15.1746 6.21388C15.2452 6.35706 15.3496 6.48088 15.4787 6.57467C15.6078 6.66846 15.7577 6.7294 15.9155 6.75222L22.1584 7.6606C22.3399 7.68697 22.5104 7.76367 22.6507 7.88203C22.7909 8.0004 22.8953 8.15569 22.9519 8.33035C23.0086 8.505 23.0153 8.69206 22.9713 8.87034C22.9273 9.04862 22.8344 9.21102 22.703 9.33917L18.1851 13.7498C18.0711 13.8612 17.9857 13.9988 17.9365 14.1505C17.8873 14.3023 17.8757 14.4638 17.9027 14.6211L18.9678 20.8485C18.9988 21.0293 18.9787 21.2153 18.9097 21.3853C18.8408 21.5553 18.7257 21.7026 18.5776 21.8106C18.4294 21.9186 18.254 21.9829 18.0713 21.9964C17.8885 22.0098 17.7056 21.9718 17.5433 21.8867L11.9575 18.9455C11.8165 18.8712 11.6596 18.8324 11.5002 18.8324C11.3409 18.8324 11.184 18.8712 11.0429 18.9455L5.45763 21.8867C5.29531 21.9723 5.11231 22.0106 4.92935 21.9975C4.74638 21.9843 4.57074 21.9201 4.42232 21.8122C4.27389 21.7042 4.15861 21.5568 4.08951 21.3867C4.02041 21.2165 4.00025 21.0304 4.03131 20.8494L5.09642 14.622C5.12341 14.4647 5.11175 14.3032 5.06246 14.1514C5.01316 13.9996 4.9277 13.8621 4.81347 13.7507L0.296973 9.33917C0.165601 9.21102 0.0726648 9.04862 0.0286793 8.87034C-0.0153063 8.69206 -0.00858588 8.505 0.0480798 8.33035C0.104745 8.15569 0.209095 8.0004 0.349323 7.88203C0.489551 7.76367 0.660062 7.68697 0.841564 7.6606L7.08631 6.75222C7.24413 6.72932 7.39403 6.66836 7.5231 6.57458C7.65218 6.4808 7.75655 6.35701 7.82725 6.21388L10.6197 0.547557C10.701 0.383151 10.8266 0.244768 10.9822 0.148017C11.1379 0.0512671 11.3175 0 11.5007 0C11.6839 0 11.8635 0.0512671 12.0192 0.148017C12.1748 0.244768 12.3004 0.383151 12.3817 0.547557V0.547557Z" fill="#FFCB45"/>
</svg>
