<svg width="33" height="33" viewBox="0 0 33 33" fill="none" xmlns="http://www.w3.org/2000/svg">
<circle cx="16.5" cy="16.5" r="16.5" fill="white"/>
<path d="M31.999 16.5003C31.999 19.5659 31.09 22.5626 29.3869 25.1115C27.6838 27.6604 25.2631 29.6471 22.4309 30.8202C19.5987 31.9934 16.4823 32.3003 13.4757 31.7023C10.4691 31.1042 7.70735 29.628 5.5397 27.4603C3.37206 25.2926 1.89588 22.5308 1.29783 19.5241C0.699774 16.5175 1.00672 13.401 2.17984 10.5688C3.35296 7.73655 5.33956 5.31581 7.88844 3.61267C10.4373 1.90954 13.434 1.00049 16.4995 1.00049C20.6102 1.00049 24.5526 2.6335 27.4593 5.54027C30.366 8.44705 31.999 12.3895 31.999 16.5003V16.5003Z" fill="#17A98C"/>
<path d="M11.1831 1.93247V31.0675C14.6156 32.3108 18.3754 32.3108 21.8079 31.0675V1.93247C18.3754 0.689176 14.6156 0.689176 11.1831 1.93247V1.93247Z" fill="#FCFAFA"/>
<path d="M21.8086 1.93237V31.0674C24.7961 29.9774 27.3762 27.9951 29.1993 25.3893C31.0223 22.7835 32.0001 19.6801 32.0001 16.4999C32.0001 13.3197 31.0223 10.2163 29.1993 7.61053C27.3762 5.00472 24.7961 3.02244 21.8086 1.93237V1.93237Z" fill="#E64C3B"/>
</svg>
