<svg width="22" height="22" viewBox="0 0 22 22" fill="none" xmlns="http://www.w3.org/2000/svg">
<path d="M21.1904 6.244C21.1394 5.11259 20.9566 4.33847 20.6973 3.66218C20.4253 2.96462 20.064 2.36915 19.4731 1.78218C18.8822 1.19521 18.2914 0.82516 17.5942 0.557196C16.9183 0.293485 16.1447 0.114842 15.0139 0.063801C13.879 0.0127602 13.5176 0 10.6356 0C7.74924 0 7.38792 0.0127602 6.25719 0.063801C5.12647 0.114842 4.35281 0.297738 3.67693 0.557196C2.97554 0.829414 2.38042 1.19095 1.7938 1.78218C1.20718 2.3734 0.83736 2.96462 0.569557 3.66218C0.310255 4.33847 0.127468 5.11259 0.0764581 6.244C0.0254479 7.37965 0.0126953 7.74119 0.0126953 10.625C0.0126953 13.5131 0.0254479 13.8746 0.0764581 15.006C0.127468 16.1374 0.310255 16.9115 0.569557 17.5878C0.841611 18.2854 1.20293 18.8809 1.7938 19.4678C2.38042 20.059 2.97554 20.4248 3.67268 20.6928C4.34856 20.9565 5.12222 21.1352 6.25294 21.1862C7.38792 21.2372 7.74924 21.25 10.6313 21.25C13.5176 21.25 13.879 21.2372 15.0097 21.1862C16.1404 21.1352 16.9141 20.9523 17.59 20.6928C18.2871 20.4206 18.8822 20.059 19.4688 19.4678C20.0555 18.8766 20.4253 18.2854 20.6931 17.5878C20.9566 16.9115 21.1352 16.1374 21.1862 15.006C21.2372 13.8703 21.2499 13.5088 21.2499 10.625C21.2499 7.74119 21.2414 7.3754 21.1904 6.244ZM19.2818 14.9209C19.235 15.9588 19.0608 16.5245 18.9162 16.8945C18.7249 17.3879 18.4911 17.7452 18.1171 18.1195C17.743 18.4938 17.3902 18.7192 16.8928 18.9191C16.5187 19.0638 15.9534 19.2381 14.9204 19.2849C13.8025 19.336 13.4666 19.3487 10.6271 19.3487C7.7875 19.3487 7.45168 19.336 6.33371 19.2849C5.2965 19.2381 4.73114 19.0638 4.36131 18.9191C3.86822 18.7277 3.51114 18.4938 3.13707 18.1195C2.763 17.7452 2.5377 17.3922 2.33791 16.8945C2.19338 16.5202 2.0191 15.9545 1.97234 14.9209C1.92133 13.8023 1.90857 13.4663 1.90857 10.625C1.90857 7.78373 1.92133 7.44771 1.97234 6.32906C2.0191 5.29123 2.19338 4.72553 2.33791 4.35548C2.5292 3.86209 2.763 3.5048 3.13707 3.1305C3.51114 2.75621 3.86397 2.53077 4.36131 2.33086C4.73539 2.18625 5.30075 2.01186 6.33371 1.96507C7.45168 1.91403 7.7875 1.90127 10.6271 1.90127C13.4666 1.90127 13.8025 1.91403 14.9204 1.96507C15.9576 2.01186 16.523 2.18625 16.8928 2.33086C17.3859 2.52227 17.743 2.75621 18.1171 3.1305C18.4911 3.5048 18.7164 3.85784 18.9162 4.35548C19.0608 4.72978 19.235 5.29549 19.2818 6.32906C19.3328 7.44771 19.3456 7.78373 19.3456 10.625C19.3456 13.4663 19.3286 13.8023 19.2818 14.9209Z" fill="black" fill-opacity="0.74"/>
</svg>
