<svg id="Layer_1" data-name="Layer 1" xmlns="http://www.w3.org/2000/svg" xmlns:xlink="http://www.w3.org/1999/xlink" viewBox="0 0 1615.91 754.29"><defs><style>.cls-1{fill:#fff;}.cls-2{fill:url(#linear-gradient);}.cls-3{fill:#8c00dd;}.cls-4{fill:url(#linear-gradient-2);}.cls-5{fill:url(#linear-gradient-3);}.cls-6{fill:url(#linear-gradient-4);}.cls-7{fill:url(#linear-gradient-5);}.cls-8{fill:#82d1cd;opacity:0.57;}.cls-9{fill:url(#linear-gradient-6);}</style><linearGradient id="linear-gradient" x1="266.47" y1="388.35" x2="401.18" y2="388.35" gradientUnits="userSpaceOnUse"><stop offset="0" stop-color="#08a2c4"/><stop offset="0.64" stop-color="#0a96d7"/><stop offset="1" stop-color="#0c8ee4"/></linearGradient><linearGradient id="linear-gradient-2" x1="871.64" y1="360.08" x2="966.07" y2="360.08" xlink:href="#linear-gradient"/><linearGradient id="linear-gradient-3" x1="1218.06" y1="362.99" x2="1328.41" y2="362.99" xlink:href="#linear-gradient"/><linearGradient id="linear-gradient-4" x1="1041.52" y1="362.99" x2="1151.87" y2="362.99" xlink:href="#linear-gradient"/><linearGradient id="linear-gradient-5" x1="817.1" y1="336.9" x2="642.6" y2="421.9" xlink:href="#linear-gradient"/><linearGradient id="linear-gradient-6" x1="484.57" y1="360.08" x2="613.62" y2="360.08" xlink:href="#linear-gradient"/></defs><rect class="cls-1" x="107.43" y="194.78" width="1425.43" height="330.6" rx="165.3"/><path class="cls-2" d="M401.18,389.07c0,29.19-24,45-50.69,49.11a92.69,92.69,0,0,1-14.22,1.08c-38.07,0-69.8-17-69.8-37.79,0-9.23,5.19-17.59,17-17.59,18.17,0,19.9,26,51.05,26,15,0,24.52-6.63,24.52-15.29a14.72,14.72,0,0,0-.09-1.66,9.58,9.58,0,0,0-.15-1.11.13.13,0,0,1,0-.06,74,74,0,0,0-38.11-54.29c3.06,1,6.57,1.75,10.38,2.6l17.6,4C372.62,349.55,401.18,359.65,401.18,389.07Z"/><path class="cls-3" d="M844.52,349.84c0,14.42-4.33,18.17-18.46,18.17h-20a76.8,76.8,0,0,0,.6-9.53,74,74,0,0,0-66.29-73.6,94.38,94.38,0,0,1,28-4,88.41,88.41,0,0,1,28.32,4.43C827.46,295.68,844.52,322.68,844.52,349.84Z"/><path class="cls-4" d="M966.07,324c-4.35-5.32-11.05-8.46-20.3-8.46a32.7,32.7,0,0,0-32,33.17v69.52c0,8-2.32,15.21-9.53,18.76a25.86,25.86,0,0,1-11.53,2.29c-9.3,0-14.81-3.14-17.85-7.9-2.33-3.66-3.2-8.27-3.2-13.15V302a33.56,33.56,0,0,1,.53-6.18c1.69-9.16,7.54-14.88,18.5-14.88,8,0,13.23,3,16.17,8.17,1.95,3.44,2.87,7.82,2.87,12.89v5.48h.58a75.78,75.78,0,0,1,14.89-15.13A74.13,74.13,0,0,1,966.07,324Z"/><path class="cls-5" d="M1328.41,434.28c-9.18,3.21-19.94,5-32.46,5s-23.29-1.77-32.47-5c-32.9-11.49-45.42-41.42-45.42-74.34,0-33.6,15.52-61.59,45-73.23a73.92,73.92,0,0,1,59.92,39c-5.88-8.55-14.82-13.67-27.08-13.67s-21.28,5.16-27.15,13.78l0,0c-5.62,8.25-8.41,19.67-8.58,32.74,0,.53,0,1.06,0,1.6v.31c0,1.41,0,2.81.13,4.2a1.41,1.41,0,0,0,0,.29c0,.38,0,.76.08,1.13,0,.11,0,.22,0,.33,0,.52.08,1,.13,1.54s.14,1.29.22,1.93a62.68,62.68,0,0,0,3.78,15.69l0,.07A74.19,74.19,0,0,0,1296,423.88,73.42,73.42,0,0,0,1328.41,434.28Z"/><path class="cls-3" d="M1373.83,359.94c0,32.92-12.52,62.85-45.41,74.34h0a73.42,73.42,0,0,1-32.46-10.4,74.19,74.19,0,0,1-31.37-38.19c5.24,13.28,15.37,22.42,31.37,22.42s26.16-9.17,31.39-22.49a64.39,64.39,0,0,0,4-17.54v0c.06-.54.1-1.08.14-1.63s.09-1.14.11-1.72c.09-1.39.13-2.79.13-4.2v-.57c0-13.68-2.8-25.64-8.65-34.18,0,0,0,0,0,0a73.92,73.92,0,0,0-59.92-39,95.72,95.72,0,0,1,65.68,0C1358.31,298.35,1373.83,326.34,1373.83,359.94Z"/><path class="cls-6" d="M1151.87,434.28c-9.18,3.21-19.94,5-32.46,5s-23.29-1.77-32.47-5c-32.9-11.49-45.42-41.42-45.42-74.34,0-33.6,15.52-61.59,45-73.23a73.92,73.92,0,0,1,59.92,39c-5.88-8.55-14.82-13.67-27.08-13.67s-21.28,5.16-27.15,13.78l0,0c-5.62,8.25-8.41,19.67-8.58,32.74,0,.53,0,1.06,0,1.6v.31c0,1.41,0,2.81.13,4.2a1.41,1.41,0,0,0,0,.29c0,.38,0,.76.08,1.13,0,.11,0,.22,0,.33,0,.52.08,1,.13,1.54s.14,1.29.22,1.93a62.68,62.68,0,0,0,3.78,15.69l0,.07a74.19,74.19,0,0,0,31.37,38.19A73.42,73.42,0,0,0,1151.87,434.28Z"/><path class="cls-3" d="M1197.29,359.94c0,32.92-12.52,62.85-45.41,74.34h0a73.42,73.42,0,0,1-32.46-10.4A74.19,74.19,0,0,1,1088,385.69c5.24,13.28,15.37,22.42,31.37,22.42s26.16-9.17,31.39-22.49a64.39,64.39,0,0,0,4-17.54v0c.06-.54.1-1.08.14-1.63s.09-1.14.11-1.72c.09-1.39.13-2.79.13-4.2v-.57c0-13.68-2.8-25.64-8.65-34.18,0,0,0,0,0,0a73.92,73.92,0,0,0-59.92-39,95.72,95.72,0,0,1,65.68,0C1181.77,298.35,1197.29,326.34,1197.29,359.94Z"/><path class="cls-3" d="M1014.42,336.28v81.93c0,11.24-4.62,21.05-21.06,21.05s-21.05-9.81-21.05-21.05V344.65a39.51,39.51,0,0,0-1.84-12.48,24.73,24.73,0,0,0-4.4-8.19,74.13,74.13,0,0,0-40.89-31.67c9.49-7.08,21.12-11.41,36.16-11.41C986.73,280.9,1014.42,293.59,1014.42,336.28Z"/><path class="cls-7" d="M806.68,358.48a74,74,0,0,0-66.29-73.6c-32.82,10.14-51.63,38.93-51.63,77.94,0,27.49,12.5,56.75,43.58,69.66,10.36,4.3,22.77,6.78,37.47,6.78A111.17,111.17,0,0,0,805.5,433l-1.63,0a74,74,0,0,1-67.55-43.74,39.44,39.44,0,0,1-5.27-17.08c-.12-1.36-.18-2.74-.18-4.15h75.21A76.8,76.8,0,0,0,806.68,358.48Zm-75.81-14.7a56.15,56.15,0,0,1,4.67-13.24c6.45-12.67,17.64-20.22,33.7-20.22,18.74,0,33.17,14.14,35.47,33.46Z"/><path class="cls-8" d="M735.54,330.54a73.18,73.18,0,0,0-4.11,13.24h-.56A56.15,56.15,0,0,1,735.54,330.54Z"/><path class="cls-8" d="M736.32,389.24a39.44,39.44,0,0,1-5.27-17.08A72.55,72.55,0,0,0,736.32,389.24Z"/><path class="cls-8" d="M523.15,335.22a72.33,72.33,0,0,0-5.29-12.43A26.11,26.11,0,0,1,523.15,335.22Z"/><path class="cls-3" d="M661.64,332v86.25c0,11.24-4.61,21.05-21,21.05s-21.06-9.81-21.06-21.05V342.63a41.31,41.31,0,0,0-.89-8.85,25.24,25.24,0,0,0-5-11,74.28,74.28,0,0,0-37-32.55c8.83-6,19.37-9.32,32.49-9.32C638.28,280.9,661.64,294.17,661.64,332Z"/><path class="cls-3" d="M394,312.92c0,9.81-6.63,18.46-17.59,18.46-16.44,0-17-19.33-43.56-19.33-14.71,0-24.23,4-24.23,13a10.23,10.23,0,0,0,4.24,8.73,25.54,25.54,0,0,0,7.88,3.67,74,74,0,0,1,38.11,54.29c-1.58-8.19-10.42-9.93-24-13.32L310,372.34c-23.59-5.83-42.1-15.39-43.47-41.27q-.09-1.53-.09-3.15c0-34.33,34-47,63.17-47C361.66,280.9,394,293.59,394,312.92Z"/><path class="cls-8" d="M320.7,337.43a25.54,25.54,0,0,1-7.88-3.67A73.34,73.34,0,0,1,320.7,337.43Z"/><path class="cls-9" d="M613.62,322.77c-3.72-4.5-9.33-7.25-17.16-7.25-16.16,0-30.58,13-30.58,32.59v70.1c0,5-.92,9.74-3.41,13.44-3.06,4.6-8.54,7.61-17.65,7.61-10.66,0-16.35-4.13-19-10.1a26.66,26.66,0,0,1-2-11V342.63a42.27,42.27,0,0,0-.61-7.41,26.11,26.11,0,0,0-5.29-12.43,74.26,74.26,0,0,0-33.29-31.74,61.67,61.67,0,0,1,34.58-10.15,46.93,46.93,0,0,1,20.33,4.58,39.85,39.85,0,0,1,20,22,68.71,68.71,0,0,1,17.13-17.22A74.28,74.28,0,0,1,613.62,322.77Z"/><path class="cls-3" d="M517.86,322.79c-3.71-4.51-9.33-7.27-17.17-7.27a29.87,29.87,0,0,0-14,3.5c-9.62,5.11-16.54,15.51-16.54,29.09v70.1a25.34,25.34,0,0,1-2.62,12.15c-2.88,5.32-8.5,8.9-18.43,8.9-11.26,0-17-4.59-19.45-11.1a27.9,27.9,0,0,1-1.61-10V302c0-6.55,2-11.95,5.65-15.64,3.4-3.46,8.25-5.42,14.25-5.42a20.48,20.48,0,0,1,11.66,3.26c5.28,3.55,8.24,9.82,8.24,17.8v5.48h.58a57.59,57.59,0,0,1,16.19-16.39,74.26,74.26,0,0,1,33.29,31.74Z"/><path class="cls-3" d="M835.87,402.05c0,14.8-13.81,25-30.37,30.91l-1.63,0a74,74,0,0,1-67.55-43.74c6.29,10.55,17.83,17.14,33.49,17.14,11.13,0,18.36-2.55,23.78-5.88,10-6.14,13.92-14.89,25-14.89C828.66,385.61,835.87,394.26,835.87,402.05Z"/><path class="cls-1" d="M157.48,627s95.29-49.5,95.29-150.48H430.48S341,627,157.48,627Z"/></svg>