<svg width="82" height="29" viewBox="0 0 82 29" fill="none" xmlns="http://www.w3.org/2000/svg">
<g filter="url(#filter0_d_1116_854)">
<path fill-rule="evenodd" clip-rule="evenodd" d="M11.7962 3H70.0561C74.9141 3 78.8523 6.9382 78.8523 11.7962C78.8523 16.6542 74.9141 20.5924 70.0561 20.5924H18.1046C15.8371 22.9305 11.7091 25.9998 5.66309 25.9998C5.66309 25.9998 9.16983 24.1781 10.3509 20.4743C6.18051 19.7849 3 16.162 3 11.7962C3 6.9382 6.9382 3 11.7962 3Z" fill="white"/>
</g>
<path d="M18.6313 13.3386C18.6313 14.8919 17.3542 15.7332 15.9339 15.9519C15.6835 15.9905 15.4305 16.0097 15.1772 16.0094C13.1514 16.0094 11.4629 15.1048 11.4629 13.9984C11.4629 13.5073 11.7391 13.0624 12.3675 13.0624C13.3344 13.0624 13.4265 14.446 15.0841 14.446C15.8823 14.446 16.3889 14.0932 16.3889 13.6323C16.3889 13.6028 16.3873 13.5733 16.3841 13.544C16.3826 13.5242 16.3799 13.5045 16.3761 13.4849C16.3759 13.4839 16.3759 13.4828 16.3761 13.4817C16.2862 12.8756 16.056 12.2988 15.7039 11.7973C15.3519 11.2958 14.8876 10.8833 14.3481 10.5928C14.511 10.646 14.6977 10.6859 14.9005 10.7311L15.8371 10.944C17.1115 11.2356 18.6313 11.7731 18.6313 13.3386Z" fill="url(#paint0_linear_1116_854)"/>
<path d="M42.2229 11.2508C42.2229 12.0182 41.9924 12.2177 41.2405 12.2177H40.1763C40.1974 12.0495 40.2081 11.8802 40.2082 11.7106C40.2082 10.7373 39.8478 9.79836 39.1963 9.07511C38.5449 8.35186 37.6487 7.89551 36.6807 7.79409C37.1638 7.6487 37.6661 7.57694 38.1706 7.58124C38.6825 7.57732 39.1915 7.65694 39.6777 7.81697C41.315 8.3688 42.2229 9.80557 42.2229 11.2508Z" fill="#8C00DD"/>
<path d="M48.6909 9.87634C48.4595 9.59324 48.1029 9.42615 47.6107 9.42615C47.1513 9.43594 46.7145 9.62702 46.3954 9.9577C46.0764 10.2884 45.9012 10.7318 45.9079 11.1912V14.8907C45.9079 15.3164 45.7844 15.7 45.4007 15.889C45.2083 15.9761 44.9983 16.0178 44.7872 16.0108C44.2923 16.0108 43.9991 15.8437 43.8373 15.5904C43.7133 15.3957 43.667 15.1503 43.667 14.8907V8.70564C43.6663 8.59538 43.6757 8.48529 43.6952 8.37678C43.7852 7.88934 44.0965 7.58496 44.6797 7.58496C45.1054 7.58496 45.3837 7.7446 45.5402 8.01972C45.6439 8.20277 45.6929 8.43585 45.6929 8.70564V8.99725H45.7237C45.9488 8.69303 46.2155 8.422 46.5161 8.19213C47.4196 8.4744 48.1915 9.07217 48.6909 9.87634V9.87634Z" fill="url(#paint1_linear_1116_854)"/>
<path d="M67.9727 15.7443C67.4842 15.9152 66.9116 16.0104 66.2454 16.0104C65.5792 16.0104 65.006 15.9162 64.5175 15.7443C62.7668 15.1329 62.1006 13.5402 62.1006 11.7884C62.1006 10.0005 62.9265 8.51101 64.4952 7.8916C65.1588 7.93962 65.7994 8.15519 66.3571 8.51814C66.9147 8.8811 67.3712 9.37957 67.6838 9.96693C67.3709 9.51196 66.8951 9.2395 66.2427 9.2395C65.5903 9.2395 65.1103 9.51409 64.798 9.97279C64.4989 10.4118 64.3505 11.0195 64.3414 11.715C64.3414 11.7432 64.3414 11.7714 64.3414 11.8001V11.8166C64.3414 11.8917 64.3414 11.9662 64.3483 12.0401C64.3478 12.0453 64.3478 12.0504 64.3483 12.0556C64.3483 12.0758 64.3483 12.096 64.3526 12.1157C64.3526 12.1216 64.3526 12.1274 64.3526 12.1333C64.3526 12.1609 64.3568 12.1865 64.3595 12.2152C64.3622 12.2439 64.3669 12.2839 64.3712 12.3179C64.402 12.6037 64.4696 12.8844 64.5724 13.1528V13.1566C64.8814 14.0066 65.4729 14.7248 66.2481 15.1909C66.7716 15.5079 67.3624 15.6975 67.9727 15.7443V15.7443Z" fill="url(#paint2_linear_1116_854)"/>
<path d="M70.3901 11.7892C70.3901 13.541 69.7239 15.1337 67.9737 15.7451C67.3625 15.6987 66.7708 15.5091 66.2464 15.1917C65.474 14.7249 64.8849 14.0077 64.5771 13.1594C64.8559 13.8661 65.395 14.3525 66.2464 14.3525C67.0978 14.3525 67.6385 13.8645 67.9168 13.1557C68.031 12.8561 68.1027 12.5419 68.1296 12.2223V12.2223C68.1328 12.1936 68.1349 12.1649 68.1371 12.1356C68.1392 12.1063 68.1419 12.0749 68.1429 12.0441C68.1477 11.9701 68.1498 11.8956 68.1498 11.8206V11.7902C68.1498 11.0623 68.0008 10.4258 67.6895 9.9714C67.377 9.38404 66.9205 8.88557 66.3628 8.52261C65.8052 8.15966 65.1646 7.94409 64.501 7.89607C65.6295 7.48386 66.8675 7.48386 67.996 7.89607C69.5643 8.51175 70.3901 10.0012 70.3901 11.7892Z" fill="#8C00DD"/>
<path d="M58.5782 15.7443C58.0897 15.9152 57.5171 16.0104 56.8509 16.0104C56.1846 16.0104 55.6115 15.9162 55.123 15.7443C53.3723 15.1329 52.7061 13.5402 52.7061 11.7884C52.7061 10.0005 53.5319 8.51101 55.1007 7.8916C55.7643 7.93962 56.4049 8.15519 56.9625 8.51814C57.5202 8.8811 57.9766 9.37957 58.2892 9.96693C57.9763 9.51196 57.5006 9.2395 56.8482 9.2395C56.1958 9.2395 55.7158 9.51409 55.4034 9.97279C55.1044 10.4118 54.9559 11.0195 54.9469 11.715C54.9469 11.7432 54.9469 11.7714 54.9469 11.8001V11.8166C54.9469 11.8917 54.9469 11.9662 54.9538 12.0401C54.9533 12.0453 54.9533 12.0504 54.9538 12.0556C54.9538 12.0758 54.9538 12.096 54.9581 12.1157C54.9581 12.1216 54.9581 12.1274 54.9581 12.1333C54.9581 12.1609 54.9623 12.1865 54.965 12.2152C54.9676 12.2439 54.9724 12.2839 54.9767 12.3179C55.0075 12.6037 55.0751 12.8844 55.1778 13.1528V13.1566C55.4856 14.0048 56.0748 14.7221 56.8471 15.1888C57.3724 15.5075 57.9655 15.6978 58.5782 15.7443V15.7443Z" fill="url(#paint3_linear_1116_854)"/>
<path d="M60.9953 11.7892C60.9953 13.541 60.3291 15.1337 58.5789 15.7451C57.9677 15.6987 57.376 15.5091 56.8516 15.1917C56.0782 14.7254 55.4881 14.0081 55.1796 13.1594C55.4585 13.8661 55.9975 14.3525 56.8489 14.3525C57.7003 14.3525 58.241 13.8645 58.5193 13.1557C58.6336 12.8561 58.7052 12.5419 58.7322 12.2223V12.2223C58.7353 12.1936 58.7375 12.1649 58.7396 12.1356C58.7417 12.1063 58.7444 12.0749 58.7455 12.0441C58.7502 11.9701 58.7524 11.8956 58.7524 11.8206V11.7902C58.7524 11.0623 58.6034 10.4258 58.2921 9.9714C57.9795 9.38404 57.523 8.88557 56.9654 8.52261C56.4077 8.15966 55.7671 7.94409 55.1035 7.89607C56.2321 7.48386 57.47 7.48386 58.5986 7.89607C60.1695 8.51175 60.9953 10.0012 60.9953 11.7892Z" fill="#8C00DD"/>
<path d="M51.2644 10.53V14.8898C51.2644 15.4879 51.0186 16.0099 50.1437 16.0099C49.2689 16.0099 49.0236 15.4879 49.0236 14.8898V10.9754C49.0267 10.7502 48.9937 10.526 48.9257 10.3113C48.8759 10.1525 48.7964 10.0046 48.6915 9.87545C48.1921 9.07069 47.4197 8.47249 46.5156 8.19018C47.0206 7.81342 47.6395 7.58301 48.4398 7.58301C49.7909 7.58301 51.2644 8.25829 51.2644 10.53Z" fill="#8C00DD"/>
<path d="M40.2095 11.7114C40.2096 10.7381 39.8491 9.7992 39.1977 9.07595C38.5463 8.35269 37.6501 7.89634 36.682 7.79492C34.9355 8.33451 33.9346 9.86653 33.9346 11.9424C33.9346 13.4052 34.5997 14.9623 36.2536 15.6493C36.8049 15.8781 37.4653 16.01 38.2475 16.01C38.8946 16.0036 39.5361 15.8911 40.1467 15.6769H40.06C39.3001 15.6771 38.5565 15.4575 37.9186 15.0445C37.2808 14.6315 36.7761 14.0428 36.4654 13.3494C36.3036 13.0719 36.2077 12.7609 36.185 12.4405C36.1786 12.3681 36.1754 12.2947 36.1754 12.2196H40.1776C40.1988 12.0511 40.2095 11.8813 40.2095 11.7114V11.7114ZM36.1754 10.9292C36.2284 10.6849 36.3119 10.4482 36.4239 10.2247C36.7671 9.55044 37.3626 9.14868 38.2172 9.14868C39.2144 9.14868 39.9823 9.90112 40.1047 10.9292H36.1754Z" fill="url(#paint4_linear_1116_854)"/>
<path opacity="0.57" d="M36.4243 10.2246C36.3293 10.452 36.256 10.6879 36.2056 10.9292H36.1758C36.2288 10.6848 36.3123 10.4481 36.4243 10.2246V10.2246Z" fill="#82D1CD"/>
<path opacity="0.57" d="M36.465 13.3483C36.3032 13.0708 36.2073 12.7599 36.1846 12.4395C36.2402 12.7528 36.3344 13.0581 36.465 13.3483V13.3483Z" fill="#82D1CD"/>
<path opacity="0.57" d="M25.1223 10.473C25.0493 10.2442 24.9551 10.0227 24.8408 9.81152C24.9911 10.0035 25.0881 10.2316 25.1223 10.473V10.473Z" fill="#82D1CD"/>
<path d="M32.4912 10.3017V14.8914C32.4912 15.4895 32.2459 16.0115 31.3737 16.0115C30.5015 16.0115 30.253 15.4895 30.253 14.8914V10.8674C30.2542 10.7091 30.2384 10.5512 30.2057 10.3964C30.1657 10.1826 30.0744 9.98176 29.9396 9.81106C29.4995 9.02647 28.805 8.41546 27.9707 8.07896C28.4406 7.75968 29.0015 7.58301 29.6996 7.58301C31.2481 7.58248 32.4912 8.28862 32.4912 10.3017Z" fill="#8C00DD"/>
<path d="M18.2498 9.28682C18.2498 9.80885 17.897 10.2691 17.3138 10.2691C16.439 10.2691 16.4092 9.24052 14.9958 9.24052C14.2131 9.24052 13.7065 9.45338 13.7065 9.9323C13.7027 10.0224 13.7213 10.112 13.7607 10.193C13.8001 10.2741 13.859 10.3442 13.9321 10.3969C14.0597 10.4854 14.2015 10.5515 14.3514 10.5922C14.8909 10.8827 15.3552 11.2952 15.7072 11.7967C16.0593 12.2982 16.2894 12.875 16.3794 13.4811C16.2953 13.0453 15.8249 12.9527 15.1023 12.7723L13.7799 12.4488C12.5246 12.1385 11.5396 11.6298 11.4667 10.2526C11.4635 10.1984 11.4619 10.1425 11.4619 10.085C11.4619 8.2582 13.2712 7.58399 14.8234 7.58399C16.5289 7.58292 18.2498 8.2582 18.2498 9.28682Z" fill="#8C00DD"/>
<path opacity="0.57" d="M14.349 10.5908C14.1991 10.5501 14.0573 10.4841 13.9297 10.3955C14.0732 10.4523 14.2132 10.5175 14.349 10.5908V10.5908Z" fill="#82D1CD"/>
<path d="M29.9363 9.81126C29.7383 9.5718 29.4398 9.42546 29.0231 9.42546C28.1632 9.42546 27.3959 10.1172 27.3959 11.1597V14.89C27.3959 15.156 27.3469 15.4083 27.2144 15.6052C27.0516 15.8499 26.76 16.0101 26.2752 16.0101C25.7079 16.0101 25.4052 15.7903 25.2641 15.4727C25.1877 15.2873 25.1514 15.0878 25.1577 14.8873V10.8681C25.1585 10.7359 25.1476 10.604 25.1252 10.4738C25.0911 10.2324 24.994 10.0043 24.8437 9.81233C24.4469 9.07603 23.8266 8.48465 23.0723 8.12332C23.6182 7.76408 24.2589 7.57601 24.9124 7.58321C25.2867 7.58234 25.6564 7.66564 25.9942 7.82693C26.4867 8.06525 26.8681 8.48471 27.0585 8.99763C27.3055 8.64047 27.6142 8.33018 27.97 8.08129C28.803 8.41775 29.4965 9.02792 29.9363 9.81126V9.81126Z" fill="url(#paint5_linear_1116_854)"/>
<path d="M24.8406 9.81236C24.6432 9.57237 24.3441 9.4255 23.9269 9.4255C23.6671 9.42576 23.4113 9.48971 23.1819 9.61175C22.67 9.88367 22.3018 10.4371 22.3018 11.1597V14.89C22.3097 15.1138 22.2618 15.336 22.1623 15.5366C22.0091 15.8196 21.71 16.0102 21.1816 16.0102C20.5824 16.0102 20.277 15.7659 20.1466 15.4195C20.0858 15.2488 20.0568 15.0685 20.0609 14.8873V8.70605C20.0609 8.3575 20.1674 8.07015 20.3616 7.87379C20.5425 7.68967 20.8006 7.58537 21.1199 7.58537C21.3395 7.57934 21.5557 7.63981 21.7404 7.75885C22.0213 7.94776 22.1788 8.28141 22.1788 8.70605V8.99766H22.2097C22.4352 8.65188 22.7282 8.35522 23.0712 8.12549C23.8256 8.48682 24.4459 9.0782 24.8427 9.81449L24.8406 9.81236Z" fill="#8C00DD"/>
<path d="M41.7632 14.0292C41.7632 14.8168 41.0284 15.3596 40.1471 15.674H40.0604C39.3005 15.6743 38.5569 15.4546 37.9191 15.0416C37.2812 14.6286 36.7765 14.0399 36.4658 13.3465C36.8005 13.9079 37.4146 14.2586 38.2479 14.2586C38.8402 14.2586 39.2249 14.1229 39.5134 13.9457C40.0455 13.6189 40.2541 13.1533 40.8437 13.1533C41.3796 13.1544 41.7632 13.6147 41.7632 14.0292Z" fill="#8C00DD"/>
<defs>
<filter id="filter0_d_1116_854" x="0" y="0" width="81.8525" height="29" filterUnits="userSpaceOnUse" color-interpolation-filters="sRGB">
<feFlood flood-opacity="0" result="BackgroundImageFix"/>
<feColorMatrix in="SourceAlpha" type="matrix" values="0 0 0 0 0 0 0 0 0 0 0 0 0 0 0 0 0 0 127 0" result="hardAlpha"/>
<feOffset/>
<feGaussianBlur stdDeviation="1.5"/>
<feComposite in2="hardAlpha" operator="out"/>
<feColorMatrix type="matrix" values="0 0 0 0 0 0 0 0 0 0 0 0 0 0 0 0 0 0 0.11 0"/>
<feBlend mode="normal" in2="BackgroundImageFix" result="effect1_dropShadow_1116_854"/>
<feBlend mode="normal" in="SourceGraphic" in2="effect1_dropShadow_1116_854" result="shape"/>
</filter>
<linearGradient id="paint0_linear_1116_854" x1="11.4629" y1="13.3003" x2="18.6313" y2="13.3003" gradientUnits="userSpaceOnUse">
<stop stop-color="#08A2C4"/>
<stop offset="0.64" stop-color="#0A96D7"/>
<stop offset="1" stop-color="#0C8EE4"/>
</linearGradient>
<linearGradient id="paint1_linear_1116_854" x1="43.666" y1="11.7963" x2="48.6909" y2="11.7963" gradientUnits="userSpaceOnUse">
<stop stop-color="#08A2C4"/>
<stop offset="0.64" stop-color="#0A96D7"/>
<stop offset="1" stop-color="#0C8EE4"/>
</linearGradient>
<linearGradient id="paint2_linear_1116_854" x1="62.1006" y1="11.9507" x2="67.9727" y2="11.9507" gradientUnits="userSpaceOnUse">
<stop stop-color="#08A2C4"/>
<stop offset="0.64" stop-color="#0A96D7"/>
<stop offset="1" stop-color="#0C8EE4"/>
</linearGradient>
<linearGradient id="paint3_linear_1116_854" x1="52.7061" y1="11.9507" x2="58.5782" y2="11.9507" gradientUnits="userSpaceOnUse">
<stop stop-color="#08A2C4"/>
<stop offset="0.64" stop-color="#0A96D7"/>
<stop offset="1" stop-color="#0C8EE4"/>
</linearGradient>
<linearGradient id="paint4_linear_1116_854" x1="40.764" y1="10.5631" x2="31.4782" y2="15.0863" gradientUnits="userSpaceOnUse">
<stop stop-color="#08A2C4"/>
<stop offset="0.64" stop-color="#0A96D7"/>
<stop offset="1" stop-color="#0C8EE4"/>
</linearGradient>
<linearGradient id="paint5_linear_1116_854" x1="23.0691" y1="11.7967" x2="29.9363" y2="11.7967" gradientUnits="userSpaceOnUse">
<stop stop-color="#08A2C4"/>
<stop offset="0.64" stop-color="#0A96D7"/>
<stop offset="1" stop-color="#0C8EE4"/>
</linearGradient>
</defs>
</svg>
