<svg width="81" height="28" viewBox="0 0 81 28" fill="none" xmlns="http://www.w3.org/2000/svg">
<path d="M71.6068 0H9.39317C6.90194 0 4.51275 1.12821 2.75119 3.13643C0.989634 5.14465 0 7.86838 0 10.7084V10.7084C9.66628e-05 13.2434 0.788916 15.6962 2.22616 17.6306C3.6634 19.5649 5.65589 20.8554 7.84923 21.2724C6.58772 25.7806 2.84409 28 2.84409 28C9.29884 28 13.7056 24.2653 16.1275 21.4188H71.6068C72.8403 21.4189 74.0618 21.142 75.2014 20.6039C76.341 20.0658 77.3765 19.2771 78.2488 18.2828C79.121 17.2885 79.8129 16.108 80.285 14.8089C80.757 13.5097 81 12.1172 81 10.711V10.711C81.0003 9.30456 80.7576 7.9118 80.2856 6.61229C79.8137 5.31278 79.1219 4.13199 78.2496 3.13734C77.3773 2.1427 76.3417 1.35369 75.202 0.815379C74.0622 0.277067 72.8406 -4.11789e-08 71.6068 0V0Z" fill="#727272" fill-opacity="0.3"/>
<path d="M16.271 10.1904L15.3566 9.98825C15.1587 9.94529 14.9763 9.90537 14.8174 9.85685C14.671 9.81824 14.5325 9.75551 14.408 9.67138C14.3366 9.62133 14.2791 9.55482 14.2406 9.47782C14.2022 9.40081 14.184 9.31573 14.1877 9.2302C14.1877 8.7784 14.6823 8.57322 15.4465 8.57322C16.8253 8.57322 16.8554 9.55009 17.7095 9.55009C18.281 9.55009 18.6233 9.11295 18.6233 8.61718C18.6233 7.6403 16.9453 7 15.2818 7C13.7684 7 12 7.64131 12 9.37524C12 9.42982 12.0016 9.48288 12.0047 9.53443C12.0758 10.8423 13.0375 11.3255 14.263 11.6201L15.5514 11.9263C16.2559 12.0977 16.7152 12.1856 16.7983 12.5995C16.798 12.6005 16.798 12.6015 16.7983 12.6025C16.802 12.6211 16.8046 12.6398 16.8061 12.6586C16.8093 12.6865 16.8108 12.7145 16.8107 12.7425C16.8107 13.1802 16.3162 13.5152 15.5369 13.5152C13.9186 13.5152 13.8287 12.2013 12.8847 12.2013C12.2701 12.2013 12.0016 12.6238 12.0016 13.0902C12.0016 14.1399 13.65 15 15.6278 15C15.8751 15.0003 16.1221 14.982 16.3666 14.9454C17.7537 14.7392 19 13.9387 19 12.4635C18.9984 10.9778 17.5147 10.4673 16.271 10.1904Z" fill="white"/>
<path d="M40.5448 7.22393C40.0755 7.07203 39.5842 6.99645 39.0901 7.00017C38.6031 6.9961 38.1183 7.06421 37.6519 7.20221C35.9662 7.71439 35 9.16858 35 11.139C35 12.5275 35.6421 14.0055 37.2385 14.6575C37.7706 14.8747 38.408 15 39.1631 15C39.788 14.9937 40.4077 14.8865 40.9973 14.6828C41.8479 14.3838 42.5572 13.8691 42.5572 13.1215C42.5572 12.728 42.1869 12.2911 41.6681 12.2911C41.1031 12.2911 40.9013 12.7331 40.384 13.0432C40.1056 13.2114 39.7343 13.3402 39.1626 13.3402C38.3582 13.3402 37.7655 13.0074 37.4424 12.4745C37.2862 12.2111 37.1936 11.9159 37.1717 11.6118C37.1655 11.5431 37.1624 11.4734 37.1624 11.4021H42.0518C42.7776 11.4021 43 11.2127 43 10.4844C43.0015 9.11049 42.1253 7.74672 40.5448 7.22393ZM37.164 10.1763C37.2152 9.94435 37.2958 9.71968 37.4039 9.50751C37.7352 8.86754 38.3099 8.48619 39.1348 8.48619C40.0974 8.48619 40.8386 9.2004 40.9567 10.1763H37.164Z" fill="white"/>
<path d="M67.6846 7.29346C66.5954 6.90218 65.4005 6.90218 64.3112 7.29346C62.7946 7.88141 62 9.29523 62 10.9924C62 12.6553 62.643 14.1671 64.3328 14.7474C64.8043 14.9096 65.36 15 66.0005 15C66.641 15 67.1962 14.9106 67.6677 14.7474C69.357 14.1671 70 12.6553 70 10.9924C69.9979 9.29523 69.2008 7.88141 67.6846 7.29346ZM67.8346 11.0212C67.8346 11.0924 67.8346 11.1631 67.8279 11.2334C67.8279 11.2627 67.8249 11.2914 67.8223 11.3202C67.8197 11.349 67.8182 11.3753 67.8151 11.4026C67.7891 11.7059 67.72 12.0041 67.6097 12.2885C67.341 12.9614 66.8202 13.4245 65.9974 13.4245C65.1746 13.4245 64.6554 12.9629 64.3862 12.2921V12.2885C64.2871 12.0337 64.2218 11.7673 64.1921 11.496C64.188 11.4637 64.1844 11.4314 64.1808 11.3985C64.1772 11.3657 64.1762 11.348 64.1741 11.3207C64.1741 11.3152 64.1741 11.3096 64.1741 11.3041C64.1741 11.2854 64.171 11.2662 64.17 11.247C64.1695 11.2421 64.1695 11.2372 64.17 11.2323C64.1654 11.1621 64.1633 11.0914 64.1633 11.0202V11.0045C64.1633 10.9773 64.1633 10.9505 64.1633 10.9237C64.1721 10.2635 64.3174 9.68669 64.604 9.26997C64.9055 8.83457 65.3662 8.57393 65.9985 8.57393C66.6307 8.57393 67.0873 8.83255 67.3893 9.26442C67.6898 9.69579 67.8336 10.2999 67.8336 10.9909L67.8346 11.0212Z" fill="white"/>
<path d="M58.6846 7.29346C57.5954 6.90218 56.4005 6.90218 55.3112 7.29346C53.7946 7.88141 53 9.29523 53 10.9924C53 12.6553 53.643 14.1671 55.3328 14.7474C55.8043 14.9096 56.36 15 57.0005 15C57.641 15 58.1962 14.9106 58.6677 14.7474C60.357 14.1671 61 12.6553 61 10.9924C60.9979 9.29523 60.2008 7.88141 58.6846 7.29346ZM58.8346 11.0212C58.8346 11.0924 58.8346 11.1631 58.8279 11.2334C58.8279 11.2627 58.8249 11.2914 58.8223 11.3202C58.8197 11.349 58.8182 11.3753 58.8151 11.4026C58.7891 11.7059 58.72 12.0041 58.6097 12.2885C58.341 12.9614 57.8202 13.4245 56.9974 13.4245C56.1746 13.4245 55.6559 12.9654 55.3847 12.2931V12.2896C55.2855 12.0347 55.2203 11.7683 55.1906 11.497C55.1864 11.4647 55.1828 11.4324 55.1793 11.3995C55.1757 11.3667 55.1746 11.349 55.1726 11.3218C55.1726 11.3162 55.1726 11.3106 55.1726 11.3051C55.1726 11.2864 55.1695 11.2672 55.1685 11.248C55.168 11.2431 55.168 11.2382 55.1685 11.2334C55.1638 11.1631 55.1618 11.0924 55.1618 11.0212V11.0056C55.1618 10.9783 55.1618 10.9515 55.1618 10.9247C55.1705 10.2645 55.3159 9.6877 55.6025 9.27098C55.904 8.83558 56.3647 8.57494 56.9969 8.57494C57.6292 8.57494 58.0858 8.83356 58.3878 9.26543C58.6882 9.6968 58.8321 10.3009 58.8321 10.9919L58.8346 11.0212Z" fill="white"/>
<path d="M49.0266 7C48.1861 7 47.5321 7.21872 47.0003 7.57635C46.6838 7.79455 46.4029 8.05182 46.1659 8.3406H46.1334V8.06582C46.1334 7.80972 46.0819 7.58847 45.9726 7.41471C45.8078 7.15457 45.5131 7.00202 45.0664 7.00202C44.45 7.00202 44.1244 7.29095 44.0297 7.75365C44.0092 7.85665 43.9992 7.96116 44 8.06582V13.9359C44 14.1824 44.0488 14.4152 44.1794 14.6001C44.3475 14.8406 44.6585 14.9992 45.1796 14.9992C45.4019 15.0063 45.623 14.9672 45.8258 14.885C46.2298 14.7057 46.3598 14.34 46.3598 13.9374V10.4242C46.3527 9.98814 46.5373 9.56721 46.8733 9.25331C47.2092 8.93942 47.6693 8.75804 48.153 8.74874C48.6714 8.74874 49.0496 8.90736 49.2906 9.17608C49.401 9.29869 49.4847 9.43907 49.5371 9.58978C49.6087 9.79358 49.6436 10.0064 49.6402 10.2202V13.9359C49.6402 14.5036 49.8986 14.9992 50.8198 14.9992C51.7411 14.9992 52 14.5036 52 13.9359V9.79739C52.0011 7.641 50.4494 7 49.0266 7Z" fill="white"/>
<path d="M30.3109 7.00221C29.6366 7.00221 29.0948 7.17129 28.641 7.47261C28.2973 7.70867 27.9992 8.00298 27.7606 8.34174C27.5766 7.85524 27.2083 7.4574 26.7326 7.23135C26.4064 7.07837 26.0493 6.99937 25.6878 7.00019C25.0566 6.99336 24.4377 7.17175 23.9105 7.51248C23.5792 7.73037 23.2961 8.01175 23.0783 8.33972H23.0485V8.06717C23.0485 7.66339 22.8943 7.34794 22.625 7.16877C22.4467 7.05586 22.2378 6.99851 22.0257 7.00423C21.7174 7.00423 21.4681 7.10517 21.2933 7.27778C21.1032 7.4615 21.0004 7.73456 21.0004 8.06717V13.9325C20.9964 14.1043 21.0244 14.2754 21.0831 14.4372C21.2106 14.7658 21.5041 14.9975 22.0828 14.9975C22.5932 14.9975 22.882 14.8168 23.03 14.5483C23.1261 14.358 23.1723 14.1473 23.1647 13.935V10.397C23.1647 9.71155 23.5204 9.18563 24.0148 8.92872C24.2363 8.81297 24.4834 8.75232 24.7343 8.75207C25.1373 8.75207 25.4261 8.89138 25.6168 9.119C25.7619 9.30108 25.8557 9.51745 25.8887 9.74637C25.9103 9.86989 25.9208 9.99504 25.9201 10.1204V13.935C25.914 14.1252 25.949 14.3144 26.0229 14.4902C26.1606 14.7931 26.453 15 26.9994 15C27.4676 15 27.7493 14.8486 27.9065 14.6159C28.0345 14.4292 28.0818 14.1904 28.0818 13.9376V10.3995C28.0818 9.40972 28.8229 8.7546 29.6535 8.7546C30.056 8.7546 30.3443 8.89339 30.5355 9.12052C30.6657 9.28242 30.7538 9.47294 30.7925 9.67571C30.824 9.82255 30.8394 9.97231 30.8382 10.1224V13.9371C30.8382 14.5044 31.0757 14.9995 31.9206 14.9995C32.7656 14.9995 33 14.5044 33 13.9371V9.58133C33.0087 7.67197 31.8081 7.00221 30.3109 7.00221Z" fill="white"/>
</svg>
