<svg width="99" height="39" viewBox="0 0 99 39" fill="none" xmlns="http://www.w3.org/2000/svg">
<path d="M49.752 31.52C48.7385 31.4194 47.7176 31.4294 46.7062 31.5499C43.1322 31.872 39.6145 32.6754 36.2426 33.9396C34.3919 33.7809 32.5514 33.5136 30.73 33.1391C28.2169 32.6193 25.5764 32.0218 23.2834 30.7493L23.6945 30.5163C24.0361 30.3131 24.3894 30.1399 24.731 29.9188C25.0348 29.7427 25.3252 29.5429 25.5996 29.3214C25.568 29.4528 25.568 29.5902 25.5996 29.7217C25.6192 29.9808 25.6969 30.2318 25.8265 30.4547C25.9562 30.6776 26.1342 30.8664 26.3466 31.0062C26.4402 31.0563 26.5393 31.0944 26.6419 31.1197C27.2445 31.2334 27.8667 31.1411 28.4138 30.8568C28.9821 30.596 29.5368 30.3049 30.0757 29.9846C30.5994 29.7222 31.096 29.4059 31.5581 29.0406C31.4456 29.2245 31.3635 29.4264 31.3149 29.638C31.2362 29.8585 31.1913 30.0903 31.1817 30.3251C31.1757 30.4697 31.2062 30.6134 31.2701 30.7422C31.334 30.871 31.4293 30.9805 31.5465 31.06C31.6639 31.1145 31.7912 31.1428 31.92 31.1428C32.0488 31.1428 32.1761 31.1145 32.2935 31.06C32.6613 30.9001 33.0208 30.7207 33.3705 30.5223C34.2044 30.0682 35.0266 29.5663 35.8373 29.0585C36.2426 28.8076 36.6422 28.5447 37.0417 28.2818C37.8295 27.8046 38.567 27.244 39.2421 26.609C39.6533 26.1908 40.0992 25.7965 40.5335 25.4141C40.5045 25.7546 40.4871 26.1012 40.464 26.4477C40.4408 26.7942 40.4234 27.0451 40.3829 27.3677C40.27 28.665 39.7377 29.8854 38.8716 30.8329C38.5852 31.1425 38.2349 31.3815 37.8466 31.5319C37.4638 31.6902 37.0366 31.6902 36.6538 31.5319C36.5808 31.5038 36.5153 31.4583 36.4624 31.3993C36.4096 31.3402 36.3709 31.2692 36.3495 31.1919C36.3281 31.1146 36.3246 31.0332 36.3392 30.9543C36.3538 30.8753 36.3862 30.801 36.4337 30.7373C36.5624 30.5455 36.7535 30.4077 36.9723 30.349C37.2039 30.2893 37.4529 30.3968 37.6787 30.3132C37.7562 30.2736 37.8228 30.2146 37.8724 30.1415C37.922 30.0684 37.9529 29.9836 37.9624 29.8949C37.9924 29.7682 37.9841 29.6349 37.9386 29.5132C37.893 29.3914 37.8124 29.287 37.7077 29.2139C37.5639 29.129 37.397 29.0954 37.2328 29.1183C36.2195 29.2258 35.0961 30.7373 35.8084 31.7171C36.015 31.9849 36.3136 32.1603 36.6422 32.2071C38.1883 32.5058 39.7228 31.526 40.5161 30.1937C40.9378 29.4908 41.19 28.6938 41.2515 27.8696C41.2834 27.1583 41.266 26.4455 41.1994 25.7367C41.1994 25.426 41.1994 25.1393 41.1994 24.8107C41.3673 24.6613 41.5352 24.512 41.6974 24.3566C41.8595 24.2013 42.0506 24.046 42.2185 23.8846C42.3864 23.7233 42.5254 23.6277 42.5659 23.4366C42.5864 23.3448 42.5855 23.2493 42.5633 23.1579C42.5412 23.0666 42.4984 22.9819 42.4385 22.9108C41.9869 22.391 41.3094 22.869 41.0314 23.329C40.8432 23.6768 40.7195 24.0577 40.6666 24.4522C40.547 24.6036 40.4196 24.7529 40.2845 24.9003C39.9544 25.2528 39.6185 25.5993 39.2653 25.9279C38.4627 26.7063 37.5858 27.3989 36.648 27.9951C33.8801 29.7456 32.224 30.9823 32.0155 30.3132C32.0155 29.4827 32.0155 28.6941 34.6387 26.6448C35.4436 25.7726 35.7389 25.6591 35.3625 25.6172C35.2235 25.6172 35.0208 25.7965 34.9166 25.8682C34.6097 26.0832 34.3376 26.3162 34.0191 26.5433C33.1505 27.2124 32.2819 27.8935 31.4075 28.5387C30.8285 28.9689 30.2494 29.3931 29.6124 29.7754C28.8713 30.2355 27.9506 30.9703 27.0588 30.4745C26.8596 30.3708 26.7078 30.1906 26.6361 29.9726C26.5998 29.7929 26.5996 29.6074 26.6354 29.4276C26.6713 29.2478 26.7425 29.0774 26.8446 28.9271C27.0048 28.6618 27.1996 28.4206 27.4236 28.2101C27.8518 27.787 28.3148 27.4032 28.8076 27.063C29.0566 26.8898 29.3056 26.7285 29.5661 26.5791C29.895 26.432 30.1982 26.2302 30.4637 25.9817C30.5019 25.9426 30.5281 25.8927 30.5389 25.8383C30.5354 25.7955 30.5214 25.7544 30.4981 25.7188C30.4747 25.6832 30.443 25.6544 30.4058 25.6352C29.6704 25.1333 28.9118 25.7128 28.3269 26.1609C27.8737 26.5102 27.4496 26.8979 27.0588 27.32C26.8562 27.535 26.6651 27.7621 26.4798 27.9951C26.3203 28.2277 26.1462 28.4492 25.9586 28.6582C25.5596 29.0133 25.1225 29.32 24.6557 29.5723C24.0767 29.9248 23.4976 30.2654 22.9186 30.594C22.5964 30.4111 22.2833 30.2117 21.9805 29.9965C21.2977 29.5019 20.684 28.9129 20.1565 28.246C21.1121 27.4539 21.9121 26.4805 22.5132 25.3783C22.5596 25.2886 22.5943 25.1871 22.6406 25.0975C23.3074 24.901 23.9628 24.6656 24.6036 24.3925C25.5612 24.0068 26.438 23.4348 27.1862 22.7077C27.5536 22.3388 27.8454 21.8975 28.0444 21.41C28.2433 20.9225 28.3453 20.3987 28.3443 19.8698C28.3281 19.4083 28.2155 18.9559 28.0143 18.5435C27.8764 18.2619 27.7052 17.999 27.5047 17.7608C28.1348 17.4857 28.6897 17.0549 29.1203 16.5062C29.2658 16.3483 29.3764 16.1597 29.4443 15.9534C29.5123 15.7471 29.5361 15.528 29.514 15.3113C29.3866 14.7139 28.6802 14.4032 28.0722 14.3614C26.5145 14.2538 25.0321 15.0365 23.7524 15.9506C23.4349 15.9189 23.1159 15.9049 22.797 15.9088C22.5248 15.9088 22.2179 15.9088 21.9689 15.9565C21.4058 16.0097 20.8467 16.1015 20.2955 16.2314C19.6219 15.8306 18.8938 15.5366 18.1356 15.3591C16.2795 15.0111 14.3704 15.1133 12.5593 15.6578C8.63068 16.7444 5.09732 18.9961 2.39684 22.1341C1.38641 23.2006 0.630997 24.4955 0.190641 25.916C-0.0186275 26.6265 -0.0562744 27.379 0.0809905 28.1079C0.218255 28.8369 0.526265 29.5201 0.978157 30.0981C1.9336 31.1914 3.4623 31.5558 4.89257 31.5439C6.24219 31.513 7.57563 31.2338 8.83015 30.7194C9.47883 31.0283 10.1706 31.2299 10.88 31.3169C13.1497 31.5303 15.4314 31.0723 17.4581 29.9965C18.0958 29.678 18.7094 29.3105 19.2937 28.8972C19.9961 29.7917 20.8167 30.58 21.7315 31.2392C20.5213 31.9024 19.2937 32.5416 18.0487 33.1391C17.6318 33.3422 17.2091 33.5394 16.7806 33.7365L15.8773 34.1487C15.6208 34.2416 15.3728 34.3576 15.1361 34.4953C14.4399 34.7511 13.7658 35.0668 13.121 35.4392C13.0109 35.5169 12.9125 35.6842 12.7793 35.72C14.3284 35.2187 15.8352 34.5873 17.2844 33.8321C18.8189 33.1331 20.336 32.3923 21.8242 31.5857L22.0558 31.4543C23.5591 32.46 25.2207 33.1878 26.9662 33.6051C29.4915 34.1582 32.0587 34.4841 34.6387 34.5789L34.0191 34.8478C32.9276 35.3489 31.8812 35.9487 30.8922 36.6401C30.3977 36.9945 29.9275 37.3838 29.4851 37.8051C29.1448 38.2342 28.771 38.6338 28.3675 39C30.5256 37.5571 32.8115 36.3289 35.1946 35.3317C35.7736 35.1106 36.3121 34.9015 36.8738 34.6984C40.2953 34.8779 43.7255 34.7399 47.1231 34.2862C48.1672 34.1796 49.1943 33.9387 50.1805 33.5692C50.5627 33.4139 51.1707 33.163 51.2807 32.697C51.4486 31.9083 50.3079 31.5917 49.752 31.52ZM19.838 27.774C19.3905 27.1489 18.9861 26.492 18.6278 25.8084C19.7472 25.7289 20.8575 25.547 21.9458 25.2647C21.3881 26.2199 20.6751 27.0688 19.838 27.774ZM7.56202 28.6045C7.09877 27.553 7.38831 26.3043 7.89208 25.2767C8.81029 23.574 10.0962 22.1123 11.6501 21.005C13.4404 19.6001 15.4283 18.4859 17.5449 17.7011C18.453 17.3703 19.3816 17.1028 20.3244 16.9005C20.7149 17.168 21.076 17.4785 21.4014 17.8265C19.7106 19.3739 18.1703 21.1125 16.6069 22.8092C16.3082 22.5821 15.9671 22.4214 15.6051 22.3373C15.0782 22.2237 14.1575 22.1819 14.0011 22.8869C13.9453 23.2406 13.983 23.6033 14.1104 23.9366C14.2379 24.27 14.4502 24.5616 14.7249 24.7808C12.8726 26.7397 10.7084 28.3563 8.32638 29.5604C8.00438 29.3059 7.74294 28.979 7.56202 28.6045ZM14.5107 23.4784C14.5367 23.2833 14.6352 23.1063 14.7854 22.9847C14.9356 22.8632 15.1257 22.8067 15.3156 22.8272C15.6623 22.8479 15.9942 22.9795 16.2652 23.2036C15.9757 23.5202 15.6862 23.8368 15.3793 24.1475L15.0434 24.4881C14.8749 24.3842 14.7362 24.236 14.6415 24.0585C14.5469 23.8811 14.4997 23.6808 14.5049 23.4784H14.5107ZM17.047 24.1117C17.1086 24.2201 17.1646 24.3318 17.2149 24.4462C17.2775 24.6064 17.3317 24.7699 17.377 24.9361C17.0469 24.9361 16.7111 24.9003 16.3752 24.8645C16.5953 24.6135 16.8211 24.3686 17.0412 24.1117H17.047ZM18.0024 24.5598C17.8372 24.2391 17.6433 23.9351 17.4233 23.6516L18.344 22.5703C19.5021 21.1902 20.6603 19.816 21.9342 18.5375C22.257 18.9866 22.5109 19.4844 22.6869 20.0132C23.0566 21.32 22.9997 22.716 22.5248 23.9862C21.13 24.5459 19.6543 24.861 18.1587 24.9182L18.0024 24.5598ZM27.1341 18.4957C27.262 18.8996 27.2998 19.328 27.2446 19.7491C27.1895 20.1702 27.0428 20.5729 26.8156 20.9273C26.3499 21.6288 25.7462 22.2212 25.0437 22.6659C24.4473 23.0705 23.8198 23.4242 23.1676 23.7233C23.4226 22.8654 23.5085 21.9634 23.4199 21.0706C23.3314 20.1779 23.0704 19.3125 22.6522 18.5256C22.5653 18.3822 22.4495 18.2627 22.3569 18.1312C22.8838 17.6115 23.4339 17.1216 24.0014 16.6556C24.123 16.6556 24.2388 16.6556 24.3604 16.6556C25.1464 16.734 25.8931 17.0475 26.5087 17.5577C26.0728 17.759 25.6215 17.9229 25.1595 18.0476C25.7255 18.1356 26.3029 18.103 26.8562 17.952C26.9716 18.1189 27.0632 18.302 27.1283 18.4957H27.1341ZM27.7131 14.7856C28.2459 14.7318 28.9465 14.9409 28.9523 15.4846C28.9372 15.632 28.8916 15.7744 28.8187 15.9022C28.7458 16.03 28.6472 16.1402 28.5296 16.2254C28.0925 16.6327 27.6105 16.9856 27.0936 17.2769C26.397 16.6784 25.5673 16.2678 24.6789 16.082C25.5723 15.3844 26.6257 14.9377 27.7363 14.7856H27.7131ZM22.8375 16.6197C22.4901 16.8886 22.1542 17.1694 21.8242 17.4561C21.5883 17.211 21.3326 16.9872 21.0598 16.787C21.6557 16.6887 22.2574 16.6329 22.8607 16.6197H22.8375ZM3.08592 30.6298C2.64444 30.5494 2.22457 30.373 1.85419 30.1124C1.48381 29.8518 1.17137 29.513 0.937619 29.1183C0.387516 28.1146 0.549652 26.848 0.937619 25.7606C1.66153 23.7862 2.86843 22.0388 4.44091 20.6883C6.20709 19.1261 8.19767 17.8564 10.3415 16.9244C12.5419 15.9565 14.9739 15.3113 17.3191 15.6937C18.0806 15.8291 18.8183 16.0808 19.5079 16.4405C18.0522 16.8679 16.6296 17.4071 15.2519 18.0536C13.119 18.99 11.1061 20.1939 9.25865 21.6382C8.12314 22.4579 7.21813 23.5731 6.63553 24.8704C6.26544 25.8373 6.20657 26.9014 6.4676 27.9054C6.66897 28.6745 7.06929 29.3725 7.62571 29.9248C7.02729 30.1713 6.41175 30.371 5.78431 30.5223C4.91044 30.7562 3.99794 30.7929 3.10908 30.6298H3.08592ZM10.8279 30.6298C10.435 30.5694 10.0476 30.4755 9.66978 30.349C10.6639 29.8614 11.6086 29.273 12.4898 28.5925C13.6734 27.662 14.7777 26.6287 15.7904 25.5037C15.8901 25.5504 15.9926 25.5903 16.0973 25.6232C16.5885 25.769 17.0975 25.8414 17.6086 25.8383C17.6786 26.1285 17.7716 26.4122 17.8866 26.6867C17.9387 26.8121 17.9966 26.9376 18.0603 27.0571C18.3135 27.5556 18.6039 28.033 18.9289 28.485C16.5792 30.1905 13.7064 30.9512 10.851 30.6238L10.8279 30.6298ZM49.3583 33.1152C48.5522 33.4156 47.7144 33.6161 46.8625 33.7126C44.1523 34.0767 41.4176 34.2086 38.6863 34.1069C39.9776 33.7007 41.2804 33.3302 42.5891 32.9778C44.0636 32.5211 45.5858 32.2484 47.1231 32.1652C47.759 32.1223 48.3971 32.2013 49.005 32.3982C49.3409 32.4998 50.001 32.8583 49.3814 33.1092L49.3583 33.1152ZM96.5107 20.4374C91.4758 17.6584 85.8623 16.1823 80.1524 16.1358C76.1285 16.1103 72.1204 16.6571 68.2413 17.7608C67.2627 18.0357 59.2891 20.3239 53.8807 22.2596C53.9354 21.632 53.7911 21.003 53.4696 20.4673C52.8789 19.5368 51.9922 18.848 50.9622 18.5196C49.9574 18.1715 48.8879 18.0686 47.838 18.2189C46.788 18.3692 45.7862 18.7687 44.9111 19.3859C44.4158 19.7244 43.9987 20.171 43.6893 20.6943C43.3823 21.2219 43.2907 21.8536 43.4345 22.4508C43.568 22.8235 43.7732 23.1644 44.038 23.453C44.3027 23.7415 44.6214 23.9717 44.9748 24.1296C45.2604 24.2799 45.5565 24.4077 45.8608 24.512L45.8144 24.5896C45.765 24.6545 45.7259 24.7271 45.6986 24.8047C45.5017 25.1273 45.3396 25.4022 45.2006 25.6411C44.3853 26.8953 43.2231 27.8674 41.8653 28.4312C41.8016 28.4969 41.7205 28.5865 41.761 28.6881C41.7778 28.7168 41.8005 28.7414 41.8275 28.76C41.8546 28.7785 41.8852 28.7907 41.9174 28.7956C42.259 28.8554 42.4559 28.6045 42.676 28.3894C42.676 28.3894 42.7165 28.3535 42.7281 28.3356C42.8613 28.2281 42.9944 28.1205 43.1392 28.013L43.4403 27.7979C43.7298 27.5769 44.1062 27.32 44.1989 27.4155C44.2915 27.5111 44.1236 27.6067 43.9904 27.8099C43.7358 28.2391 43.5537 28.7098 43.4519 29.2019C43.3873 29.6308 43.4332 30.0697 43.5851 30.4745C43.6041 30.5405 43.6293 30.6046 43.6603 30.6656C43.7533 30.8495 43.8837 31.0105 44.0425 31.1376C44.0768 31.1866 44.1226 31.2257 44.1757 31.2511C44.4984 31.4043 44.8527 31.4729 45.2072 31.451C45.5617 31.4291 45.9055 31.3174 46.2082 31.1257C46.2727 31.0999 46.3348 31.0679 46.3935 31.0301C46.7111 30.8392 47.0167 30.6277 47.3084 30.3968C47.5981 30.1604 47.8709 29.9028 48.1249 29.6261C48.2175 29.5305 48.4144 29.3274 48.426 29.5305V29.5843C48.4211 29.6199 48.4211 29.6561 48.426 29.6918C48.4511 29.7908 48.486 29.8869 48.5302 29.9786C48.7514 30.4047 49.0668 30.7711 49.4509 31.048C49.7726 31.2666 50.1364 31.4107 50.5172 31.4705C50.8981 31.5304 51.2869 31.5044 51.6571 31.3945C52.1028 31.2602 52.5195 31.0391 52.8847 30.7433C53.1238 30.5514 53.3379 30.3286 53.5217 30.0801C53.5564 30.0264 53.9386 29.6082 53.9386 29.8292C53.942 29.847 53.942 29.8652 53.9386 29.883C53.9386 30.122 54.2165 30.343 54.3729 30.4804C54.6053 30.6954 54.8666 30.8745 55.1488 31.0122C55.7975 31.3195 56.5058 31.4695 57.2194 31.4509C57.933 31.4323 58.6331 31.2454 59.2659 30.9046C59.347 30.9046 59.428 30.8329 59.5033 30.7971C59.5932 30.7531 59.6802 30.7032 59.7639 30.6477C60.4993 30.1698 61.142 29.4528 61.3042 29.6022C61.3389 29.6022 61.3042 29.6858 61.3042 29.7635C61.2561 29.9405 61.2308 30.1233 61.2289 30.3072C61.2441 30.5805 61.3345 30.8437 61.4895 31.0659C61.5037 31.0955 61.5241 31.1215 61.5491 31.1422C61.5741 31.1628 61.6031 31.1776 61.6342 31.1854C61.7095 31.1854 61.7732 31.1854 61.8948 31.0659C62.2596 30.7254 62.7229 29.644 63.6783 28.5626C63.8231 28.3954 63.9678 28.234 64.1242 28.0847C64.1473 28.0693 64.1687 28.0513 64.1879 28.0309C64.4253 27.8158 64.6916 27.6008 64.9522 27.3976C64.9522 27.3976 64.9522 27.3976 64.9928 27.3976C65.2763 27.2037 65.5792 27.0414 65.8961 26.9137C66.0778 26.8307 66.2795 26.8057 66.4751 26.842C66.5008 26.8373 66.5271 26.8387 66.5521 26.8459C66.5772 26.8532 66.6003 26.8661 66.6199 26.8838C66.6725 26.8945 66.7197 26.9242 66.7531 26.9675C67.0774 27.2901 66.9094 28.0369 66.7531 28.3715C66.6199 28.5925 66.4751 28.8076 66.3593 29.0346C66.1103 29.5783 65.9945 30.6059 66.533 31.0301C67.0716 31.4543 67.9923 30.9763 68.4845 30.6776C68.7047 30.5435 68.9156 30.3938 69.1156 30.2295C69.3096 30.1 69.4866 29.9454 69.6426 29.7695C69.6564 29.8147 69.6739 29.8586 69.6947 29.9009C69.7207 29.9484 69.7421 29.9984 69.7584 30.0503C69.8489 30.3061 69.9865 30.5415 70.1637 30.7433C70.3209 30.9566 70.5178 31.1353 70.7428 31.2691C71.3677 31.548 72.0656 31.6006 72.7232 31.4184C73.399 31.3057 74.0477 31.0603 74.634 30.6955C74.7962 30.5929 74.9528 30.4812 75.1031 30.3609C75.2867 30.2224 75.4538 30.0619 75.6011 29.883C75.6474 29.8113 75.9079 29.5126 75.9543 29.5544C76.0231 29.628 76.0799 29.7128 76.1222 29.8053C76.5011 30.4775 77.0948 30.9929 77.8015 31.2631C78.3019 31.4487 78.8394 31.5021 79.3649 31.4184C79.6918 31.3754 80.0137 31.2994 80.3262 31.1914C80.4014 31.1914 80.4999 31.1137 80.5288 31.1376C80.5578 31.1615 80.5867 31.281 80.6157 31.3527C80.8008 31.7633 81.0513 32.1389 81.3569 32.464C81.6517 32.8062 81.9885 33.1075 82.3586 33.3601C83.59 34.1198 85.0457 34.3956 86.4583 34.1368H86.5394C86.9582 34.0669 87.3721 33.9691 87.7786 33.844C88.3824 33.6485 88.9646 33.3882 89.5158 33.0674C89.73 32.9419 89.9443 32.8164 90.1469 32.679C90.2371 32.6312 90.3192 32.5686 90.3901 32.4938C90.3002 32.4874 90.2102 32.5059 90.1296 32.5476H90.0543C89.5215 32.7268 88.9888 32.918 88.4503 33.0614C87.0709 33.5051 85.5903 33.4842 84.2232 33.0017C83.5925 32.7489 83.0146 32.3737 82.5208 31.8964C82.3519 31.7361 82.1915 31.5666 82.0402 31.3886C81.8826 31.2186 81.7639 31.0145 81.6927 30.7911C81.6638 30.6656 81.8143 30.6178 81.907 30.588C82.4858 30.3785 83.0379 30.0976 83.5515 29.7516C84.0958 29.417 84.6112 29.0585 85.1323 28.6941C85.6289 28.3553 86.1082 27.9904 86.5684 27.6008C86.7131 27.4813 86.8058 27.3857 86.8058 27.3558C86.8058 27.3259 86.7015 27.3558 86.69 27.3558C86.6264 27.3904 86.5607 27.4203 86.4931 27.4454C86.4178 27.4813 86.3483 27.5291 86.2788 27.5709L85.8851 27.8278L84.9991 28.3894C84.1537 28.9271 83.3025 29.4409 82.4108 29.9009C82.2023 30.0085 81.8317 30.1459 81.5653 30.2474C81.4206 30.3072 81.4032 28.8733 81.4206 28.7419C81.4379 28.6104 81.6638 27.3916 81.8085 27.4693C82.3586 27.768 83.2562 27.5888 83.8294 27.4275C85.4739 26.9555 86.9679 26.4895 88.2534 25.2468C88.8962 24.6494 89.6779 22.7674 88.3692 22.4926C87.3677 22.3825 86.3574 22.591 85.4739 23.09C84.6155 23.4988 83.8021 24.0016 83.0477 24.5896C82.2835 25.2244 81.6312 25.9904 81.1195 26.8539C80.7683 27.3782 80.5404 27.9795 80.4535 28.6104C80.3958 29.0059 80.3861 29.4073 80.4246 29.8053C80.4246 29.9905 80.4709 30.2594 80.4883 30.4506C80.5057 30.6417 79.5155 30.6358 79.0696 30.576C78.4242 30.4807 77.8403 30.1291 77.4424 29.5962C77.2175 29.3142 77.0778 28.9702 77.0407 28.6069C77.0037 28.2436 77.0709 27.8771 77.234 27.553C77.6451 26.8838 78.4905 26.6986 79.2259 26.4716C80.6988 26.0211 82.04 25.1999 83.1288 24.0818C83.6713 23.5633 84.0981 22.9293 84.3795 22.2237C84.6054 21.4829 83.9974 20.9811 83.3604 20.8556C82.6022 20.7544 81.8329 20.914 81.1716 21.3097C78.9347 22.2964 77.1673 24.1565 76.2554 26.4835C76.1496 26.7638 76.0701 27.0539 76.018 27.3498C75.9189 27.7436 75.8396 28.1425 75.7806 28.5447C75.7516 28.7239 75.7806 28.8853 75.6358 29.0047C75.3391 29.2885 75.0216 29.5482 74.6862 29.7814C74.3962 30.0071 74.0882 30.207 73.7654 30.3789C73.0887 30.6925 72.3359 30.7883 71.6056 30.6537C71.5054 30.6302 71.4068 30.6002 71.3103 30.5641C71.0837 30.4972 70.88 30.3659 70.7223 30.1853C70.5646 30.0046 70.4594 29.7819 70.4185 29.5424C70.367 29.3497 70.3782 29.1447 70.4503 28.9591C70.5225 28.7735 70.6517 28.6174 70.8181 28.5148C70.9524 28.4939 71.0891 28.4939 71.2234 28.5148C71.3866 28.5087 71.5491 28.4908 71.7098 28.4611C71.9304 28.4213 72.1489 28.3695 72.3641 28.3057C73.059 28.0966 74.165 27.7561 74.3677 26.9197C74.4048 26.6792 74.3493 26.4333 74.2129 26.2345C74.0765 26.0358 73.8702 25.9 73.6381 25.8562C73.0541 25.7732 72.461 25.9135 71.9704 26.2505C71.6493 26.4122 71.348 26.6128 71.0728 26.848C70.7352 27.179 70.4342 27.5477 70.1753 27.9473C69.9147 28.3117 69.6426 28.6642 69.3762 29.0227C69.1789 29.357 68.9182 29.6467 68.6097 29.8746C68.3013 30.1025 67.9514 30.2639 67.5811 30.349C67.4367 30.3641 67.2912 30.3641 67.1468 30.349C67.0341 30.3455 66.9267 30.2986 66.8457 30.2176C66.5967 29.9069 66.9094 29.1302 67.3553 28.0369C67.4575 27.7892 67.5332 27.5308 67.5811 27.2662C67.6146 27.1077 67.6165 26.9439 67.5866 26.7847C67.5567 26.6255 67.4958 26.4743 67.4074 26.3401C67.2806 26.1998 67.1201 26.0966 66.9421 26.041C66.7641 25.9854 66.575 25.9793 66.3941 26.0235C65.6479 26.1352 64.94 26.4348 64.3326 26.8958C63.7825 27.308 63.3714 27.8696 62.856 28.3177C62.7344 28.4013 62.6476 28.4551 62.607 28.4312C62.5665 28.4073 62.7344 27.9592 62.7692 27.8875C62.9597 27.5166 63.1223 27.1311 63.2556 26.7345C63.2903 26.5316 63.3693 26.3395 63.4867 26.1728C63.6041 26.0062 63.7568 25.8693 63.9331 25.7726C64.2632 25.6352 64.6222 25.5874 64.9522 25.4499C65.2823 25.3125 65.6297 25.1751 65.9598 25.0258C66.2898 24.8764 66.4694 24.7928 66.7183 24.6613C67.1918 24.4335 67.6452 24.1637 68.0733 23.8548C68.5408 23.4849 68.9628 23.0576 69.3299 22.5822C69.6657 22.1341 70.0421 21.4889 69.7873 20.9094C69.6542 20.6047 69.3241 20.5867 69.0461 20.6226C68.0683 20.7752 67.1307 21.1309 66.2899 21.6681C65.7073 22.0048 65.1618 22.4054 64.6627 22.863C63.7166 23.7459 62.9898 24.8503 62.5434 26.0832C62.3581 26.609 62.1496 27.1228 61.9643 27.6366C61.7927 28.0928 61.5587 28.5213 61.2694 28.9092C60.9272 29.3094 60.5121 29.6362 60.0476 29.871C59.7697 30.0204 59.4686 30.1578 59.1964 30.2773C58.9774 30.376 58.7532 30.4618 58.5247 30.5342C57.8149 30.8257 57.0266 30.8405 56.3069 30.576C56.037 30.5063 55.7957 30.3491 55.6186 30.1277C55.4414 29.9062 55.3377 29.632 55.3225 29.3453C55.3225 28.5925 56.2664 27.7621 56.7875 27.314C57.1167 26.9808 57.5152 26.7296 57.9527 26.5795C58.3903 26.4293 58.8552 26.3843 59.3122 26.4477C59.6481 26.5253 60.5167 26.8121 60.3835 27.32C60.3256 27.5589 60.0303 27.6665 59.8044 27.6665C59.6504 27.6398 59.5108 27.5571 59.4107 27.4335C59.3786 27.3909 59.3372 27.3568 59.2899 27.3339C59.2426 27.3111 59.1907 27.3002 59.1385 27.302C59.0849 27.3104 59.0336 27.3302 58.9878 27.36C58.942 27.3898 58.9026 27.4291 58.8721 27.4753C58.8721 27.4753 58.8374 27.5171 58.82 27.5291C58.7848 27.5634 58.7588 27.6066 58.7448 27.6545C58.7105 27.7075 58.688 27.7677 58.679 27.8307C58.67 27.8937 58.6746 27.958 58.6926 28.019C58.7126 28.0815 58.7486 28.1372 58.7969 28.1803C59.3759 28.7239 60.534 28.3117 60.8757 27.6426C61.2984 26.7584 60.6441 26.2147 59.9376 25.8921C58.461 25.2169 56.8455 26.0354 55.6642 26.9675C54.4829 27.8995 53.707 29.3572 52.4678 30.1817C51.9872 30.5103 51.1475 31.0898 50.4121 30.7373C50.3249 30.7028 50.2444 30.6522 50.1747 30.588C50.1079 30.5519 50.0534 30.4956 50.0184 30.4267C49.8234 30.2302 49.6937 29.975 49.6478 29.6978C49.532 28.9928 50.0415 28.3535 50.7248 27.5291C51.1475 27.0153 51.5008 26.6926 51.7208 26.4477C51.9409 26.2027 51.9872 26.1071 51.9351 25.9578C51.9204 25.9104 51.8921 25.8687 51.854 25.8383C51.6572 25.667 51.4046 25.5794 51.1475 25.5933H51.0144C50.279 25.6889 50.1863 26.5552 49.0745 27.786C48.3981 28.6306 47.6061 29.3692 46.7236 29.9786C46.1445 30.3848 44.8358 31.1735 44.4652 30.0503C44.3364 29.3261 44.4682 28.5783 44.8358 27.9473C45.0071 27.5381 45.2004 27.1392 45.4149 26.7524C45.813 26.0514 46.2977 25.4068 46.8567 24.8346C46.8567 24.8346 46.8915 24.8346 46.9031 24.7868C48.0363 25.0044 49.2071 24.8563 50.2558 24.3626C50.3427 24.3148 50.4353 24.279 50.528 24.2371C50.5325 24.3319 50.5461 24.4259 50.5685 24.5179C50.6383 24.7075 50.7554 24.8747 50.9079 25.0027C51.0604 25.1307 51.2429 25.2149 51.4371 25.2468C52.1261 25.3185 52.8384 24.4164 53.2148 23.9085C53.4462 23.5975 53.6244 23.2479 53.7417 22.875L53.9675 22.7913C56.4633 21.8414 58.9822 20.9691 61.53 20.1924L61.9296 20.0729C63.522 19.589 65.1259 19.129 66.7357 18.7108C69.2131 18.0462 71.7268 17.5355 74.2634 17.1813C80.1236 16.3291 86.0974 17.0112 91.6351 19.1648C92.9145 19.663 94.1688 20.2273 95.3932 20.8556C96.3718 21.3634 97.4488 21.9967 97.7731 23.1617C98.0974 24.3268 97.3967 25.7248 96.3602 26.4238C95.3655 27.0094 94.245 27.3297 93.1001 27.3558C93.1194 27.0333 93.0841 26.7099 92.9959 26.3999C92.9139 26.0977 92.7596 25.8217 92.5471 25.5972C92.3346 25.3727 92.0707 25.207 91.7799 25.1154C91.4851 25.0375 91.173 25.0743 90.9028 25.2186C90.6326 25.3629 90.4234 25.6048 90.3149 25.898C90.2802 26.0533 90.2802 26.2147 90.3149 26.37C89.6668 26.1585 88.9681 26.1832 88.3356 26.4399C87.7031 26.6966 87.1753 27.1697 86.8405 27.78C86.5484 28.2443 86.4362 28.805 86.5263 29.3507C86.6165 29.8964 86.9023 30.3871 87.3269 30.7254C88.2245 31.3647 89.51 31.2213 90.4654 30.815C91.0899 30.5631 91.6503 30.1674 92.1039 29.6579C92.5575 29.1485 92.8923 28.5389 93.0827 27.8756C94.5207 27.8871 95.9252 27.4291 97.0956 26.5672C98.1032 25.8204 99.1165 24.5538 98.9891 23.1797C98.8386 21.9489 97.5183 20.9751 96.5339 20.4314L96.5107 20.4374ZM82.1502 27.1108C82.1502 27.1108 84.6807 24.0519 86.8579 23.335C89.0351 22.6181 88.9541 24.0221 87.8423 24.9959C86.496 25.9615 85.0082 26.6977 83.4357 27.1766C82.0575 27.4992 82.1733 27.1049 82.1733 27.1049L82.1502 27.1108ZM78.062 25.3962C78.2384 25.1017 78.4318 24.8184 78.6411 24.5478C79.1198 24.001 79.6536 23.5083 80.2335 23.0781C80.4767 22.8869 80.7315 22.7077 80.9863 22.5344C81.3564 22.2903 81.7435 22.0746 82.1444 21.8892C82.3178 21.8053 82.4957 21.7315 82.6771 21.6681C82.9091 21.5929 83.1525 21.5625 83.3951 21.5785C83.488 21.5773 83.5799 21.5976 83.664 21.6379C83.7482 21.6782 83.8226 21.7376 83.8815 21.8115C83.9273 21.904 83.9512 22.0064 83.9512 22.1102C83.9512 22.2141 83.9273 22.3164 83.8815 22.409C83.453 23.5441 82.4397 24.3029 81.4843 24.9481C80.9288 25.3174 80.3343 25.62 79.7124 25.8502C79.3943 25.9687 79.0694 26.0664 78.7395 26.143C78.4231 26.2535 78.0878 26.2942 77.7551 26.2625C77.8016 25.9502 77.9143 25.6523 78.0852 25.3902L78.062 25.3962ZM72.5552 26.842C73.3427 26.2446 74.5008 26.4835 73.7133 27.2064C73.0486 27.6731 72.2748 27.9475 71.4724 28.001C71.7556 27.5352 72.1328 27.1378 72.5784 26.836L72.5552 26.842ZM67.6622 21.6144C69.0288 20.9094 69.5789 21.3156 68.9361 22.3612C68.2934 23.4067 64.3037 25.1751 64.3037 25.1751C64.7843 24.4403 66.3362 22.3134 67.6854 21.6084L67.6622 21.6144ZM49.8273 23.9145C49.184 24.2444 48.4782 24.4239 47.7601 24.4403C47.6135 24.449 47.4666 24.449 47.32 24.4403C47.3714 24.388 47.4299 24.3437 47.4937 24.3088C47.5569 24.2302 47.631 24.1618 47.7137 24.1057C48.3565 23.6158 49.4509 22.9646 49.3061 22.4388C49.3061 22.397 49.2772 22.3552 49.2656 22.3313C49.125 22.1399 48.917 22.0132 48.6865 21.9788C48.5333 21.9486 48.3749 21.9631 48.2291 22.0206C47.7114 22.2585 47.2595 22.6261 46.9146 23.09C46.6055 23.4416 46.3156 23.8106 46.0461 24.1953C44.8879 23.8249 43.8688 23.102 43.8051 22.2715C43.7183 21.1663 45.3686 20.282 45.5828 20.1387C48.2696 18.4061 52.6415 19.8758 53.1684 21.8772C53.2175 22.0925 53.2292 22.315 53.2032 22.5344C52.4562 22.8152 51.7729 23.0781 51.1823 23.329C51.107 23.2215 51.0144 23.108 50.887 23.1139C50.7596 23.1199 50.6843 23.2513 50.638 23.3708C50.6165 23.439 50.601 23.5089 50.5916 23.5799C50.3253 23.6755 50.0647 23.795 49.8505 23.9085L49.8273 23.9145ZM52.0277 24.2969C51.8077 24.2969 51.6339 24.0579 51.4834 23.8189C52.0103 23.5859 52.5431 23.3649 53.0758 23.1558C52.9368 23.7831 52.5952 24.3566 52.0509 24.273L52.0277 24.2969ZM91.3108 25.9279C91.6756 25.665 92.2199 25.9757 92.3705 26.4059C92.4716 26.7323 92.4716 27.0831 92.3705 27.4096C92.052 27.4197 91.7377 27.3324 91.4672 27.1586C91.0792 26.8719 90.9518 26.1968 91.334 25.9219L91.3108 25.9279ZM89.7011 30.337C89.4215 30.4219 89.1239 30.4195 88.8457 30.3302C88.5675 30.2409 88.3211 30.0687 88.1376 29.8352C87.9523 29.5676 87.8526 29.247 87.8526 28.9181C87.8526 28.5892 87.9523 28.2686 88.1376 28.001C88.3433 27.6527 88.6224 27.3567 88.9541 27.1347C89.3765 26.8689 89.8273 26.6544 90.2975 26.4955C90.373 26.8202 90.5476 27.1113 90.7955 27.3259C91.207 27.6322 91.6912 27.818 92.1968 27.8636L92.1621 27.9652C91.9609 28.5273 91.636 29.0336 91.213 29.4441C90.7899 29.8546 90.2803 30.1583 89.7242 30.3311L89.7011 30.337ZM49.4104 6.26599C48.9976 6.65705 48.6107 7.0762 48.2523 7.52062C47.3142 7.92091 46.602 8.23158 46.434 8.31522C46.3025 8.38924 46.191 8.49604 46.1098 8.62589C46.0634 8.80513 46.3645 8.74538 46.4398 8.73941C46.5188 8.73091 46.5965 8.71287 46.6714 8.68564L46.793 8.64382C47.1231 8.51238 47.4532 8.38692 47.789 8.26743C47.5739 8.66301 47.4325 9.09666 47.3721 9.54596C47.3374 9.85066 47.1347 11.4578 48.1538 12.4256C48.5979 12.8185 49.1431 13.0696 49.7231 13.1486C50.1177 13.2502 50.5327 13.2294 50.9159 13.0888C50.4839 12.9995 50.0597 12.8736 49.6478 12.7124C49.3066 12.5631 49.0018 12.3376 48.7552 12.0521C48.5087 11.7666 48.3265 11.4283 48.2218 11.0615C48.1172 10.6947 48.0926 10.3086 48.1499 9.93079C48.2073 9.55302 48.3451 9.19307 48.5534 8.87682C48.7478 8.44218 49.0035 8.03954 49.3119 7.68193C49.5609 7.59232 49.8041 7.5027 50.0473 7.40113C50.719 7.12631 51.3907 6.85148 52.0625 6.56471C52.9747 6.19926 53.8659 5.78036 54.7319 5.31008C55.062 5.11292 55.7394 4.80822 55.6526 4.31234C55.6357 4.21757 55.5969 4.12841 55.5395 4.05247C55.482 3.97653 55.4076 3.91606 55.3225 3.87621C55.156 3.78996 54.9697 3.75275 54.784 3.76867C53.7711 3.84701 52.7803 4.1142 51.8598 4.55729C50.9561 4.98098 50.1281 5.55862 49.4104 6.26599ZM54.9056 4.26455C54.9056 4.26455 55.0677 4.26455 55.0735 4.32429C55.1083 4.5095 52.7284 5.5849 50.4411 6.57666L50.7596 6.28989C51.0375 6.06883 53.3132 4.16298 54.9056 4.26455ZM34.6387 13.746C35.1566 14.0831 35.7648 14.2421 36.3758 14.2001C36.8773 14.2042 37.3784 14.1723 37.8756 14.1045C40.0743 13.6557 42.0916 12.5359 43.6661 10.8902C45.2585 9.28906 46.3761 7.30554 47.5053 5.3758C47.818 4.87992 48.0843 4.35416 48.3854 3.84633C48.536 3.58346 48.6866 3.31461 48.8429 3.05174C48.9008 2.94419 48.9992 2.65742 49.1266 2.62157C49.9895 2.40178 50.797 1.9944 51.495 1.42668C51.9524 1.05627 52.6531 0.494667 52.4562 0.154123C52.2593 -0.186421 51.2634 0.106328 50.8522 0.369203C50.0762 0.828823 49.34 1.35652 48.6518 1.94646C46.4166 2.78886 44.0194 2.89042 41.7031 3.42812C39.9139 3.84036 37.835 4.36014 36.399 5.61477C35.9732 5.94272 35.6721 6.41406 35.5478 6.94707C35.4877 7.16086 35.4546 7.38174 35.4493 7.60426C34.9182 7.94409 34.4643 8.39804 34.1186 8.93518C33.7728 9.47233 33.5434 10.0801 33.4458 10.717C33.3587 11.286 33.4238 11.8689 33.634 12.4026C33.8442 12.9364 34.1916 13.4008 34.6387 13.746ZM36.2658 7.54452C37.1284 7.06858 38.0903 6.81637 39.0684 6.80966H39.1553C39.1836 6.96769 39.2477 7.1166 39.3422 7.24428C39.4368 7.37197 39.5593 7.47483 39.6996 7.54452C39.6015 7.33259 39.5426 7.10364 39.5259 6.86941C40.105 6.95305 40.7998 7.14423 40.933 7.83727C41.0372 8.37497 40.3887 9.03216 39.6533 9.24724C38.7615 9.52804 36.758 9.3488 36.3932 8.59005C36.3032 8.43427 36.2454 8.26097 36.2235 8.08103C36.2016 7.9011 36.216 7.71843 36.2658 7.54452ZM41.6221 8.0404C41.4505 7.47596 41.0753 7.00113 40.574 6.71407C40.3011 6.56407 40.0054 6.46306 39.6996 6.41535L39.7344 6.36158C40.0443 6.1254 40.4243 6.00813 40.8091 6.02994C41.1938 6.05175 41.5591 6.21128 41.8421 6.48107C42.1722 6.94708 41.8595 7.81935 41.6221 8.05832V8.0404ZM35.5015 8.17184C35.8199 9.06203 37.0591 9.74312 38.1246 9.85663C38.6601 9.90643 39.1997 9.83728 39.7071 9.65384C40.2145 9.4704 40.6779 9.17693 41.0662 8.79318C40.8803 9.31586 40.5316 9.76013 40.0747 10.0564C39.6178 10.3526 39.0786 10.4841 38.5415 10.4302C38.3614 10.3976 38.1772 10.3976 37.9972 10.4302C37.9062 10.4449 37.8237 10.494 37.7659 10.568C37.7081 10.642 37.6791 10.7356 37.6845 10.8305C37.7366 11.0874 38.0725 11.1172 38.3215 11.0874C39.075 11.0412 39.8118 10.838 40.4871 10.4899C40.8237 10.3114 41.1111 10.048 41.3227 9.7242C41.5343 9.40042 41.6632 9.02674 41.6974 8.63785C41.6974 8.60797 41.6974 8.5781 41.6974 8.54823C41.7865 8.48904 41.8648 8.41422 41.929 8.32717C42.072 8.14516 42.1908 7.94423 42.2822 7.72973C42.4068 7.48484 42.4645 7.20957 42.4491 6.93343C42.4336 6.65729 42.3456 6.3907 42.1944 6.16227C42.0432 5.93384 41.8346 5.75218 41.591 5.63678C41.3473 5.52138 41.0778 5.4766 40.8114 5.50723C40.3275 5.46655 39.8447 5.5995 39.4448 5.88362C39.2905 5.99842 39.1766 6.16203 39.1206 6.34963C38.8803 6.34471 38.6401 6.3607 38.4025 6.39743C37.6692 6.54475 36.9543 6.77724 36.2716 7.09046C36.7348 5.59087 39.8154 4.46171 41.9521 3.98972C44.0889 3.51774 46.295 3.39228 48.3796 2.69326C48.3333 2.69326 48.1712 2.97406 48.1365 3.01589L47.8122 3.45202L46.2024 5.6088L42.9076 10.0299C42.5953 10.4281 42.2483 10.7961 41.8711 11.1292C41.1278 11.8064 40.2954 12.3716 39.3985 12.808C38.8785 13.057 38.3378 13.2569 37.7829 13.4055C37.019 13.6984 36.1785 13.6984 35.4146 13.4055C34.9808 13.1595 34.6272 12.7866 34.3984 12.3337C34.1696 11.8808 34.0759 11.3681 34.1291 10.8603C34.278 9.83471 34.7622 8.89241 35.5015 8.18976V8.17184Z" fill="white"/>
</svg>
