<svg id="Layer_2" data-name="Layer 2" xmlns="http://www.w3.org/2000/svg" viewBox="0 0 321.45 814.43"><defs><style>.cls-1{fill:#fff;}</style></defs><polygon class="cls-1" points="0 0 0 0.15 0 16.82 0 700.1 0 716.92 16.82 716.92 250.83 716.92 250.83 700.1 16.82 700.1 16.82 16.82 304.63 16.82 304.63 625.83 321.45 625.83 321.45 16.82 321.45 4.77 321.45 0 0 0"/><path class="cls-1" d="M130.39,208.92q-7.86,7.17-26,7.17h-41V76.85h38.59q17.9,0,27.05,7.26t9.15,23.77v76.78Q138.25,201.76,130.39,208.92ZM117,95.65q-4-3.89-10.54-3.88H80.76v109.4h25.46q7.56,0,11.14-3.48t3.58-11V106.09Q120.94,99.52,117,95.65Z"/><path class="cls-1" d="M252.72,207.63q-9.25,8.46-26.56,8.46h-5q-17.31,0-26.55-8.46t-9.25-25.36V76.85h17.3v109.2a14.05,14.05,0,0,0,4.58,10.54Q211.84,201,219.2,201h9q7.36,0,11.94-4.38a14,14,0,0,0,4.57-10.54V76.85H262V182.27Q262,199.18,252.72,207.63Z"/><path class="cls-1" d="M81.56,392.87,73.8,428.08H56.1L89.71,288.84h22.88l33,139.24H127.9l-7.55-35.21ZM117.16,378l-16.31-76L84.74,378Z"/><path class="cls-1" d="M201.3,370.39v57.69H184V288.84h37.39q16.91,0,25.56,7.46t8.65,23.57V339q0,22.47-17.9,28l27.65,61.07h-18.9l-25.66-57.69Zm33.52-63.25q-3.49-3.37-11-3.38H201.3v51.72h22.48q7.54,0,11-3.49c2.31-2.31,3.48-6,3.48-11V318.08C238.3,313,237.13,309.4,234.82,307.14Z"/><path class="cls-1" d="M130.39,632.91q-7.86,7.15-26,7.16h-41V500.83h38.59q17.9,0,27.05,7.26t9.15,23.77v76.78Q138.25,625.75,130.39,632.91ZM117,519.63q-4-3.89-10.54-3.88H80.76v109.4h25.46q7.56,0,11.14-3.48t3.58-11V530.07Q120.94,523.52,117,519.63Z"/><path class="cls-1" d="M219.2,472.79l20.69,22.87H223.38l-26.26-22.87Zm-3.58,152.76V515.35h-17.9V500.83h53.11v14.52h-17.9v110.2h17.9v14.52H197.72V625.55Z"/><path class="cls-1" d="M68.12,753.87h4.24l1.25,49H70.27L70,787H58.87l-5.7,15.85H49.76ZM70,784.25l-.49-25.52h-.28L60,784.25Z"/><path class="cls-1" d="M99.54,798.29a36,36,0,0,1,.56-4.51l4.17-23.64h-4.8l.49-2.65,4.79-.27,1.74-9.67,3.55-1.46-2,11.2h6.82l-.49,2.85h-6.88l-4.11,23.29a26.92,26.92,0,0,0-.48,4c0,1.6.62,2.78,3.13,2.78a17.2,17.2,0,0,0,3.26-.35l-.48,2.85a14.52,14.52,0,0,1-3.83.49C101.14,803.23,99.54,801.35,99.54,798.29Z"/><path class="cls-1" d="M119.28,796.14a30.35,30.35,0,0,1,.42-3.82l2.71-15.3c1.25-7,5.08-10.85,11.55-10.85,6,0,8.62,3.34,8.62,7.3a27.54,27.54,0,0,1-.42,3.83l-1.25,7.51H124.36L123,792.38a23,23,0,0,0-.42,3.34c0,3.27,1.6,5.15,5.56,5.15,4.52,0,7.1-2.85,7.79-7l.49-2.65h3.06l-.42,2.58c-.9,5.84-4.59,9.94-11.33,9.94C122.34,803.72,119.28,801.08,119.28,796.14Zm18.85-14,1-5.77a21.3,21.3,0,0,0,.28-2.43c0-3.13-1.81-5.14-5.56-5.14-4.52,0-7.17,3-8,7.57l-1,5.77Z"/><path class="cls-1" d="M163.36,797.11a36.69,36.69,0,0,1,.63-4.59l2.85-16.27c1-5.77,4.72-10.08,10.5-10.08a9.2,9.2,0,0,1,6.88,2.85l2.57-14.81h3.27l-8.55,48.67h-3l.76-4.65h-.21a10,10,0,0,1-8.76,5.49C166.21,803.72,163.36,801.35,163.36,797.11Zm16.83-5.42,3.4-19.54a7.07,7.07,0,0,0-5.84-3.13c-5.14,0-7.16,4.66-7.71,7.65L167.11,793a23.51,23.51,0,0,0-.41,3.41,4.13,4.13,0,0,0,4.45,4.45C176.5,800.87,179.42,796.14,180.19,791.69Z"/><path class="cls-1" d="M195.13,796.14a30.35,30.35,0,0,1,.42-3.82l2.71-15.3c1.25-7,5.08-10.85,11.54-10.85,6,0,8.62,3.34,8.62,7.3a29,29,0,0,1-.41,3.83l-1.26,7.51H200.21l-1.32,7.57a23,23,0,0,0-.42,3.34c0,3.27,1.6,5.15,5.56,5.15,4.52,0,7.09-2.85,7.79-7l.48-2.65h3.06l-.41,2.58c-.91,5.84-4.59,9.94-11.34,9.94C198.19,803.72,195.13,801.08,195.13,796.14Zm18.84-14,1-5.77a20.89,20.89,0,0,0,.27-2.43c0-3.13-1.8-5.14-5.56-5.14-4.52,0-7.16,3-8,7.57l-1,5.77Z"/><path class="cls-1" d="M221.13,808.31c0-2.85,1.88-6.61,6.61-9v-.14a3.26,3.26,0,0,1-1.67-3c0-2.57,2.57-5.49,5.49-7.16v-.07a6.08,6.08,0,0,1-3.34-5.77,12.78,12.78,0,0,1,.21-2.3l.91-5.21c1-5.35,4.24-9.46,10.63-9.46a8.63,8.63,0,0,1,5.08,1.39h7l-.56,3.06-4.86-.69-.07.07a6.64,6.64,0,0,1,.83,3.33,22.14,22.14,0,0,1-.34,2.92l-.77,4.38c-.9,4.8-4.31,9.11-10.5,9.11a18.54,18.54,0,0,1-1.88-.14c-2.08,1.12-4.65,3.41-4.65,5.36,0,1.74,1.8,2.36,3.54,2.64l5.49.9c3.06.56,6.47,2,6.47,5.84,0,7.17-8.13,10.09-15,10.09C224.47,814.43,221.13,812.27,221.13,808.31Zm20.3-3.55c0-3.82-6.39-3.27-11.68-4.66-3.54,2-5.42,4.52-5.42,7.58s2.64,4,6.19,4C235.11,811.71,241.43,810.11,241.43,804.76Zm1.67-24.13.77-4.31a22.43,22.43,0,0,0,.27-3c0-2.29-1-4.38-4.72-4.38-4.52,0-6.33,3.55-7,7.1l-.83,4.86a17.06,17.06,0,0,0-.14,1.81c0,2.43,1.11,4.31,4.73,4.31C240.74,787,242.62,783.42,243.1,780.63Z"/></svg>