<svg width="91" height="91" viewBox="0 0 91 91" fill="none" xmlns="http://www.w3.org/2000/svg">
<circle cx="45.5" cy="45.5" r="45" fill="#1A1A1A" stroke="white"/>
<path d="M21.3509 56.3712V46.0747V35.7782H21.9393V55.8123H34.2068V56.3712H21.3509Z" fill="white"/>
<path d="M47.5946 56.3712V46.4277C47.5946 44.8391 47.1827 43.6428 46.359 42.8387C45.5353 42.0346 44.3389 41.6325 42.77 41.6325C41.6324 41.6325 40.593 41.8286 39.6516 42.2209C38.7102 42.6131 37.9061 43.1231 37.2393 43.7507L36.8274 43.3388C37.5531 42.6524 38.4356 42.1032 39.4751 41.6914C40.5145 41.2795 41.603 41.0736 42.7405 41.0736C44.5057 41.0736 45.8491 41.5246 46.7709 42.4268C47.7123 43.329 48.183 44.6528 48.183 46.3983V56.3712H47.5946ZM41.7991 56.4595C40.6616 56.4595 39.6908 56.283 38.8867 55.93C38.0826 55.5769 37.4648 55.0768 37.0333 54.4296C36.6215 53.7824 36.4155 53.0371 36.4155 52.1938C36.4155 51.4681 36.5822 50.8013 36.9157 50.1933C37.2687 49.5657 37.8374 49.0656 38.6219 48.693C39.4064 48.3007 40.4753 48.1046 41.8286 48.1046H47.9182V48.6636H41.7991C40.0733 48.6636 38.8377 48.997 38.0924 49.6638C37.3667 50.311 37.0039 51.1445 37.0039 52.1644C37.0039 53.3019 37.4256 54.2139 38.2689 54.9003C39.1122 55.5671 40.289 55.9005 41.7991 55.9005C43.2701 55.9005 44.4762 55.5671 45.4176 54.9003C46.3786 54.2139 47.1043 53.2529 47.5946 52.0173L47.8888 52.3997C47.4769 53.6157 46.7513 54.5963 45.7118 55.3416C44.692 56.0869 43.3877 56.4595 41.7991 56.4595Z" fill="white"/>
<path d="M62.1632 56.4595C60.7708 56.4595 59.5254 56.1359 58.4271 55.4887C57.3288 54.8219 56.456 53.9099 55.8088 52.7527C55.1812 51.576 54.8674 50.2424 54.8674 48.7518C54.8674 47.2417 55.1812 45.9178 55.8088 44.7803C56.456 43.6232 57.3288 42.721 58.4271 42.0738C59.5254 41.407 60.7708 41.0736 62.1632 41.0736C63.5557 41.0736 64.8109 41.407 65.9288 42.0738C67.0467 42.721 67.9293 43.6232 68.5765 44.7803C69.2237 45.9178 69.5473 47.2417 69.5473 48.7518C69.5473 50.2424 69.2237 51.576 68.5765 52.7527C67.9293 53.9099 67.0467 54.8219 65.9288 55.4887C64.8109 56.1359 63.5557 56.4595 62.1632 56.4595ZM54.7792 56.3712V34.5426H55.3675V46.6631L55.0734 48.7224L55.3675 50.7817V56.3712H54.7792ZM62.1632 55.9005C63.4577 55.9005 64.6148 55.5965 65.6346 54.9886C66.6741 54.3806 67.488 53.5372 68.0764 52.4586C68.6648 51.3799 68.9589 50.1443 68.9589 48.7518C68.9589 47.3397 68.6648 46.1041 68.0764 45.0451C67.488 43.9664 66.6741 43.1329 65.6346 42.5445C64.6148 41.9365 63.4577 41.6325 62.1632 41.6325C60.8688 41.6325 59.7019 41.9365 58.6624 42.5445C57.6426 43.1329 56.8385 43.9664 56.2501 45.0451C55.6617 46.1041 55.3675 47.3397 55.3675 48.7518C55.3675 50.1443 55.6617 51.3799 56.2501 52.4586C56.8385 53.5372 57.6426 54.3806 58.6624 54.9886C59.7019 55.5965 60.8688 55.9005 62.1632 55.9005Z" fill="white"/>
<path d="M17.585 60.0275V31.8076H21.5044V32.3805H18.188V59.4547H21.5044V60.0275H17.585Z" fill="white"/>
<path d="M73.0001 60.0275H69.0807V59.4547H72.3971V32.3805H69.0807V31.8076H73.0001V60.0275Z" fill="white"/>
<path d="M26.1016 40.6811C25.7746 40.6811 25.5254 40.5873 25.3539 40.3997C25.1823 40.2121 25.0966 39.9655 25.0966 39.66V35.5918H25.2574V39.6198C25.2574 39.9146 25.3297 40.1397 25.4745 40.2952C25.6192 40.4506 25.8309 40.5283 26.1096 40.5283C26.3883 40.5283 26.6188 40.4426 26.801 40.271L26.9136 40.3836C26.8171 40.4854 26.6938 40.5605 26.5438 40.6087C26.399 40.657 26.2516 40.6811 26.1016 40.6811ZM24.2926 36.6531V36.5003H26.6644V36.6531H24.2926Z" fill="white"/>
<path d="M30.0547 36.4762C30.3978 36.4762 30.6926 36.5432 30.9391 36.6772C31.1857 36.8059 31.3759 36.9988 31.5099 37.2561C31.6493 37.5134 31.719 37.8296 31.719 38.2048V40.657H31.5582V38.2048C31.5582 37.6902 31.4269 37.299 31.1642 37.031C30.9016 36.763 30.5344 36.629 30.0628 36.629C29.6983 36.629 29.3847 36.704 29.1221 36.8541C28.8595 36.9988 28.6585 37.2052 28.5191 37.4732C28.3798 37.7358 28.3101 38.044 28.3101 38.3977V40.657H28.1493V34.6914H28.3101V37.6822L28.294 37.6581C28.4173 37.2936 28.629 37.0069 28.9292 36.7978C29.2293 36.5834 29.6045 36.4762 30.0547 36.4762Z" fill="white"/>
<path d="M35.1035 40.6811C34.7015 40.6811 34.3451 40.5926 34.0342 40.4158C33.7233 40.2335 33.4768 39.9843 33.2945 39.668C33.1177 39.3465 33.0292 38.982 33.0292 38.5746C33.0292 38.1619 33.1123 37.8001 33.2785 37.4892C33.4446 37.173 33.6724 36.9265 33.9619 36.7496C34.2567 36.5673 34.5863 36.4762 34.9508 36.4762C35.3152 36.4762 35.6422 36.5647 35.9316 36.7415C36.2264 36.9131 36.4569 37.1543 36.623 37.4651C36.7946 37.776 36.8803 38.1324 36.8803 38.5344C36.8803 38.5398 36.8803 38.5451 36.8803 38.5505C36.8803 38.5559 36.8803 38.5639 36.8803 38.5746H33.1177V38.4219H36.7919L36.7276 38.5425C36.7276 38.178 36.6498 37.851 36.4944 37.5616C36.339 37.2722 36.1273 37.0444 35.8593 36.8782C35.5966 36.7121 35.2938 36.629 34.9508 36.629C34.6131 36.629 34.3102 36.7121 34.0423 36.8782C33.7743 37.0444 33.5625 37.2722 33.4071 37.5616C33.257 37.851 33.182 38.178 33.182 38.5425V38.5746C33.182 38.9552 33.2651 39.2929 33.4312 39.5876C33.5974 39.8824 33.8252 40.1129 34.1146 40.2791C34.404 40.4452 34.7337 40.5283 35.1035 40.5283C35.3822 40.5283 35.6449 40.4747 35.8914 40.3675C36.1433 40.2603 36.3524 40.0995 36.5185 39.8851L36.6311 39.9977C36.4489 40.2228 36.2237 40.3943 35.9557 40.5122C35.6877 40.6248 35.4037 40.6811 35.1035 40.6811Z" fill="white"/>
<path d="M21.3509 56.3712V46.0747V35.7782H21.9393V55.8123H34.2068V56.3712H21.3509Z" fill="#8DC541"/>
<path d="M47.5946 56.3712V46.4277C47.5946 44.8391 47.1827 43.6428 46.359 42.8387C45.5353 42.0346 44.3389 41.6325 42.77 41.6325C41.6324 41.6325 40.593 41.8286 39.6516 42.2209C38.7102 42.6131 37.9061 43.1231 37.2393 43.7507L36.8274 43.3388C37.5531 42.6524 38.4356 42.1032 39.4751 41.6914C40.5145 41.2795 41.603 41.0736 42.7405 41.0736C44.5057 41.0736 45.8491 41.5246 46.7709 42.4268C47.7123 43.329 48.183 44.6528 48.183 46.3983V56.3712H47.5946ZM41.7991 56.4595C40.6616 56.4595 39.6908 56.283 38.8867 55.93C38.0826 55.5769 37.4648 55.0768 37.0333 54.4296C36.6215 53.7824 36.4155 53.0371 36.4155 52.1938C36.4155 51.4681 36.5822 50.8013 36.9157 50.1933C37.2687 49.5657 37.8374 49.0656 38.6219 48.693C39.4064 48.3007 40.4753 48.1046 41.8286 48.1046H47.9182V48.6636H41.7991C40.0733 48.6636 38.8377 48.997 38.0924 49.6638C37.3667 50.311 37.0039 51.1445 37.0039 52.1644C37.0039 53.3019 37.4256 54.2139 38.2689 54.9003C39.1122 55.5671 40.289 55.9005 41.7991 55.9005C43.2701 55.9005 44.4762 55.5671 45.4176 54.9003C46.3786 54.2139 47.1043 53.2529 47.5946 52.0173L47.8888 52.3997C47.4769 53.6157 46.7513 54.5963 45.7118 55.3416C44.692 56.0869 43.3877 56.4595 41.7991 56.4595Z" fill="white"/>
<path d="M62.1632 56.4595C60.7708 56.4595 59.5254 56.1359 58.4271 55.4887C57.3288 54.8219 56.456 53.9099 55.8088 52.7527C55.1812 51.576 54.8674 50.2424 54.8674 48.7518C54.8674 47.2417 55.1812 45.9178 55.8088 44.7803C56.456 43.6232 57.3288 42.721 58.4271 42.0738C59.5254 41.407 60.7708 41.0736 62.1632 41.0736C63.5557 41.0736 64.8109 41.407 65.9288 42.0738C67.0467 42.721 67.9293 43.6232 68.5765 44.7803C69.2237 45.9178 69.5473 47.2417 69.5473 48.7518C69.5473 50.2424 69.2237 51.576 68.5765 52.7527C67.9293 53.9099 67.0467 54.8219 65.9288 55.4887C64.8109 56.1359 63.5557 56.4595 62.1632 56.4595ZM54.7792 56.3712V34.5426H55.3675V46.6631L55.0734 48.7224L55.3675 50.7817V56.3712H54.7792ZM62.1632 55.9005C63.4577 55.9005 64.6148 55.5965 65.6346 54.9886C66.6741 54.3806 67.488 53.5372 68.0764 52.4586C68.6648 51.3799 68.9589 50.1443 68.9589 48.7518C68.9589 47.3397 68.6648 46.1041 68.0764 45.0451C67.488 43.9664 66.6741 43.1329 65.6346 42.5445C64.6148 41.9365 63.4577 41.6325 62.1632 41.6325C60.8688 41.6325 59.7019 41.9365 58.6624 42.5445C57.6426 43.1329 56.8385 43.9664 56.2501 45.0451C55.6617 46.1041 55.3675 47.3397 55.3675 48.7518C55.3675 50.1443 55.6617 51.3799 56.2501 52.4586C56.8385 53.5372 57.6426 54.3806 58.6624 54.9886C59.7019 55.5965 60.8688 55.9005 62.1632 55.9005Z" fill="white"/>
<path d="M17.585 60.0275V31.8076H21.5044V32.3805H18.188V59.4547H21.5044V60.0275H17.585Z" fill="white"/>
<path d="M73.0001 60.0275H69.0807V59.4547H72.3971V32.3805H69.0807V31.8076H73.0001V60.0275Z" fill="white"/>
<path d="M26.1016 40.6811C25.7746 40.6811 25.5254 40.5873 25.3539 40.3997C25.1823 40.2121 25.0966 39.9655 25.0966 39.66V35.5918H25.2574V39.6198C25.2574 39.9146 25.3297 40.1397 25.4745 40.2952C25.6192 40.4506 25.8309 40.5283 26.1096 40.5283C26.3883 40.5283 26.6188 40.4426 26.801 40.271L26.9136 40.3836C26.8171 40.4854 26.6938 40.5605 26.5438 40.6087C26.399 40.657 26.2516 40.6811 26.1016 40.6811ZM24.2926 36.6531V36.5003H26.6644V36.6531H24.2926Z" fill="white"/>
<path d="M30.0547 36.4762C30.3978 36.4762 30.6926 36.5432 30.9391 36.6772C31.1857 36.8059 31.3759 36.9988 31.5099 37.2561C31.6493 37.5134 31.719 37.8296 31.719 38.2048V40.657H31.5582V38.2048C31.5582 37.6902 31.4269 37.299 31.1642 37.031C30.9016 36.763 30.5344 36.629 30.0628 36.629C29.6983 36.629 29.3847 36.704 29.1221 36.8541C28.8595 36.9988 28.6585 37.2052 28.5191 37.4732C28.3798 37.7358 28.3101 38.044 28.3101 38.3977V40.657H28.1493V34.6914H28.3101V37.6822L28.294 37.6581C28.4173 37.2936 28.629 37.0069 28.9292 36.7978C29.2293 36.5834 29.6045 36.4762 30.0547 36.4762Z" fill="white"/>
<path d="M35.1035 40.6811C34.7015 40.6811 34.3451 40.5926 34.0342 40.4158C33.7233 40.2335 33.4768 39.9843 33.2945 39.668C33.1177 39.3465 33.0292 38.982 33.0292 38.5746C33.0292 38.1619 33.1123 37.8001 33.2785 37.4892C33.4446 37.173 33.6724 36.9265 33.9619 36.7496C34.2567 36.5673 34.5863 36.4762 34.9508 36.4762C35.3152 36.4762 35.6422 36.5647 35.9316 36.7415C36.2264 36.9131 36.4569 37.1543 36.623 37.4651C36.7946 37.776 36.8803 38.1324 36.8803 38.5344C36.8803 38.5398 36.8803 38.5451 36.8803 38.5505C36.8803 38.5559 36.8803 38.5639 36.8803 38.5746H33.1177V38.4219H36.7919L36.7276 38.5425C36.7276 38.178 36.6498 37.851 36.4944 37.5616C36.339 37.2722 36.1273 37.0444 35.8593 36.8782C35.5966 36.7121 35.2938 36.629 34.9508 36.629C34.6131 36.629 34.3102 36.7121 34.0423 36.8782C33.7743 37.0444 33.5625 37.2722 33.4071 37.5616C33.257 37.851 33.182 38.178 33.182 38.5425V38.5746C33.182 38.9552 33.2651 39.2929 33.4312 39.5876C33.5974 39.8824 33.8252 40.1129 34.1146 40.2791C34.404 40.4452 34.7337 40.5283 35.1035 40.5283C35.3822 40.5283 35.6449 40.4747 35.8914 40.3675C36.1433 40.2603 36.3524 40.0995 36.5185 39.8851L36.6311 39.9977C36.4489 40.2228 36.2237 40.3943 35.9557 40.5122C35.6877 40.6248 35.4037 40.6811 35.1035 40.6811Z" fill="white"/>
</svg>
