<svg width="30" height="30" viewBox="0 0 30 30" fill="none" xmlns="http://www.w3.org/2000/svg">
<path d="M6.3258 29C6.23943 28.9999 6.15664 28.9657 6.09557 28.9049C6.0345 28.8442 6.00014 28.7618 6 28.6759V7.96211C6 7.95084 6.00257 7.94112 6.0036 7.93139V7.91398V7.8935C6.0036 7.88326 6.00875 7.87506 6.01132 7.86636C6.0139 7.85765 6.02162 7.83205 6.02162 7.83205L6.02419 7.82437L6.03757 7.7998L6.04117 7.79263C6.04426 7.78699 6.04684 7.78085 6.05044 7.77471L6.07823 7.73938L6.08853 7.72657L6.0911 7.7235L6.11375 7.70507L6.13691 7.6851C6.14617 7.67896 6.15852 7.6723 6.16985 7.66615C6.17995 7.6611 6.18975 7.65546 6.19918 7.64926L18.5614 2.03277L18.5779 2.02611C18.5871 2.02253 18.5969 2.01997 18.6067 2.0169L18.617 2.01382L18.6422 2.00563L18.6736 2.00256H18.6859L18.7045 2L18.7287 2.00256H18.7462H18.7673L18.7848 2.00717L18.8182 2.0169L18.8316 2.02048L18.8681 2.03943L18.8867 2.04916L18.9175 2.07373L18.9356 2.08858C18.9408 2.09413 18.9458 2.09994 18.9505 2.10599L18.9762 2.13518C18.9808 2.14286 18.987 2.15463 18.9917 2.16334L18.9968 2.17255C19.0004 2.1787 19.0081 2.1915 19.0081 2.19201C19.0081 2.19252 19.0128 2.20635 19.0153 2.21454L19.0272 2.25141C19.0272 2.26062 19.0272 2.27087 19.0303 2.28059V2.28571C19.0303 2.29698 19.0339 2.31183 19.0344 2.31746C19.0339 2.32359 19.0339 2.32976 19.0344 2.33589V7.62519H24.366C24.4525 7.62533 24.5354 7.65957 24.5966 7.72042C24.6577 7.78127 24.6922 7.86377 24.6923 7.94982V28.6759C24.6922 28.7618 24.6578 28.8442 24.5967 28.9049C24.5357 28.9657 24.4529 28.9999 24.3665 29H6.3258ZM6.65108 28.3513H24.0402V8.27343H6.65108V28.3513ZM7.77566 7.62519H18.3823V2.82744L7.77566 7.62519Z" fill="black" stroke="black" stroke-width="0.5"/>
<path d="M8.75646 11.8001C8.67005 11.8001 8.58719 11.7659 8.52609 11.7052C8.46499 11.6444 8.43066 11.5619 8.43066 11.476C8.43066 11.39 8.46499 11.3076 8.52609 11.2468C8.58719 11.186 8.67005 11.1519 8.75646 11.1519H16.3465C16.4329 11.1519 16.5158 11.186 16.5769 11.2468C16.638 11.3076 16.6723 11.39 16.6723 11.476C16.6723 11.5619 16.638 11.6444 16.5769 11.7052C16.5158 11.7659 16.4329 11.8001 16.3465 11.8001H8.75646Z" fill="black" stroke="black" stroke-width="0.5"/>
<path d="M8.75646 15.2203C8.67005 15.2203 8.58719 15.1861 8.52609 15.1253C8.46499 15.0645 8.43066 14.9821 8.43066 14.8961C8.43066 14.8102 8.46499 14.7277 8.52609 14.667C8.58719 14.6062 8.67005 14.572 8.75646 14.572H19.8541C19.9405 14.572 20.0234 14.6062 20.0845 14.667C20.1456 14.7277 20.1799 14.8102 20.1799 14.8961C20.1799 14.9821 20.1456 15.0645 20.0845 15.1253C20.0234 15.1861 19.9405 15.2203 19.8541 15.2203H8.75646Z" fill="black" stroke="black" stroke-width="0.5"/>
<path d="M8.75646 18.6353C8.67005 18.6353 8.58719 18.6011 8.52609 18.5404C8.46499 18.4796 8.43066 18.3971 8.43066 18.3112C8.43066 18.2252 8.46499 18.1428 8.52609 18.082C8.58719 18.0212 8.67005 17.9871 8.75646 17.9871H13.4097C13.4961 17.9871 13.579 18.0212 13.6401 18.082C13.7012 18.1428 13.7355 18.2252 13.7355 18.3112C13.7355 18.3971 13.7012 18.4796 13.6401 18.5404C13.579 18.6011 13.4961 18.6353 13.4097 18.6353H8.75646Z" fill="black" stroke="black" stroke-width="0.5"/>
<path d="M8.75646 22.0564C8.67005 22.0564 8.58719 22.0223 8.52609 21.9615C8.46499 21.9007 8.43066 21.8183 8.43066 21.7323C8.43066 21.6464 8.46499 21.5639 8.52609 21.5031C8.58719 21.4424 8.67005 21.4082 8.75646 21.4082H15.3444C15.4308 21.4082 15.5137 21.4424 15.5748 21.5031C15.6359 21.5639 15.6702 21.6464 15.6702 21.7323C15.6702 21.8183 15.6359 21.9007 15.5748 21.9615C15.5137 22.0223 15.4308 22.0564 15.3444 22.0564H8.75646Z" fill="black" stroke="black" stroke-width="0.5"/>
<path d="M8.75646 25.4771C8.67005 25.4771 8.58719 25.4429 8.52609 25.3822C8.46499 25.3214 8.43066 25.2389 8.43066 25.153C8.43066 25.067 8.46499 24.9846 8.52609 24.9238C8.58719 24.863 8.67005 24.8289 8.75646 24.8289H18.3517C18.4381 24.8289 18.521 24.863 18.5821 24.9238C18.6432 24.9846 18.6775 25.067 18.6775 25.153C18.6775 25.2389 18.6432 25.3214 18.5821 25.3822C18.521 25.4429 18.4381 25.4771 18.3517 25.4771H8.75646Z" fill="black" stroke="black" stroke-width="0.5"/>
</svg>
