<svg width="39" height="25" viewBox="0 0 39 25" fill="none" xmlns="http://www.w3.org/2000/svg">
<path d="M15.305 18.7256C15.1936 18.5401 15.0538 18.4036 14.8855 18.3159C14.7222 18.2121 14.5377 18.1195 14.332 18.038C14.0888 17.9627 13.8571 17.9221 13.6369 17.9161C13.4111 17.8995 13.2172 17.8662 13.055 17.816C12.936 17.7702 12.8602 17.7423 12.8278 17.7323C12.778 17.6636 12.7366 17.6108 12.7036 17.574C12.5598 17.3785 12.3951 17.2076 12.2094 17.0613C12.1714 17.0406 12.1278 17.0093 12.0786 16.9675C12.0238 16.915 12.0019 16.8993 12.0131 16.9206C11.8973 16.7781 11.7815 16.6357 11.6657 16.4933C11.5225 16.3246 11.3668 16.1964 11.1985 16.1088C11.1364 15.9652 11.0239 15.8549 10.8612 15.7779C10.7746 15.7422 10.6857 15.728 10.5946 15.7354C10.5879 15.6711 10.5758 15.6096 10.5584 15.551C10.4716 15.2576 10.3197 15.0596 10.1028 14.9569C10.1004 14.8496 10.085 14.756 10.0564 14.6761C9.9831 14.5113 9.85949 14.3798 9.6856 14.2815C9.5285 14.2151 9.36918 14.1703 9.20764 14.1469C9.08914 14.128 9.00528 14.0976 8.95607 14.0557C8.91747 14.0082 8.85706 13.9451 8.77484 13.8664C8.5886 13.6933 8.39213 13.668 8.18543 13.7905C8.02621 13.8745 7.85521 13.9104 7.67244 13.8982C7.48968 13.8861 7.3072 13.8873 7.12501 13.902C7.03276 13.8557 6.91956 13.834 6.78543 13.8369C6.66191 13.8342 6.55769 13.8552 6.47278 13.9C6.27669 14.0169 6.18376 14.188 6.19399 14.4133C6.19515 14.4669 6.20692 14.515 6.22931 14.5574C6.15559 14.6234 6.09556 14.7026 6.04925 14.7948C5.94831 15.0922 5.95101 15.3418 6.05735 15.5434C6.16871 15.7289 6.31221 15.911 6.48783 16.0897C6.40909 16.1719 6.37898 16.2692 6.39751 16.3815C6.40311 16.3921 6.4087 16.4028 6.4143 16.4134C6.40369 16.419 6.39307 16.4246 6.38246 16.4302C6.25778 16.3738 6.12896 16.3739 5.99598 16.4305C5.86802 16.4708 5.77867 16.5586 5.72791 16.6939C5.60516 16.9757 5.55508 17.2666 5.57766 17.5667C5.58499 17.6578 5.58731 17.7651 5.58461 17.8886C5.59252 18.0066 5.58924 18.1033 5.57477 18.1787C5.54466 18.276 5.49274 18.3576 5.41902 18.4236C5.35591 18.484 5.3037 18.5523 5.2624 18.6283C5.24175 18.6663 5.22921 18.7069 5.22477 18.7499C5.12634 18.6661 5.0198 18.5799 4.90516 18.4911C4.69653 18.2755 4.52477 18.0269 4.38986 17.7454C4.35068 17.671 4.27464 17.6297 4.16174 17.6214C4.05945 17.6076 3.97366 17.6121 3.90438 17.6351C3.89878 17.6244 3.8901 17.5951 3.87832 17.547C3.87717 17.4934 3.87099 17.456 3.8598 17.4347C3.80267 17.2749 3.71649 17.1372 3.60128 17.0216C3.47544 16.9116 3.32645 16.8477 3.15429 16.83C3.01958 16.806 2.95502 16.7994 2.96062 16.81C2.97683 16.815 2.9832 16.737 2.97973 16.5761C2.99131 16.3665 2.95039 16.2117 2.85698 16.1117C2.76357 16.0118 2.64671 15.9445 2.5064 15.91C2.54211 15.8233 2.53226 15.7403 2.47687 15.661C2.4265 15.5655 2.36329 15.497 2.28725 15.4557C2.07592 15.3637 1.84143 15.3177 1.58378 15.3179C1.33115 15.3019 1.1009 15.3284 0.893044 15.3973C0.791914 15.437 0.707575 15.5086 0.640026 15.6121C0.583092 15.7099 0.574504 15.8094 0.614261 15.9105C0.631631 15.9692 0.646492 16.036 0.658843 16.1109C0.600751 16.1551 0.548546 16.2233 0.502226 16.3155C0.455907 16.4078 0.452337 16.4911 0.491516 16.5654L0.79375 17.1386C0.804943 17.1598 0.821445 17.1782 0.843254 17.1939C0.824919 17.3392 0.873651 17.4831 0.989449 17.6255C1.02303 17.6892 1.05439 17.7744 1.08354 17.8811C1.1177 17.9716 1.15996 18.0647 1.21033 18.1602C1.28869 18.3088 1.38799 18.4328 1.50823 18.5322C1.52502 18.564 1.56892 18.6087 1.63995 18.6662C1.71599 18.7075 1.78112 18.741 1.83536 18.7667C1.79135 18.9663 1.85524 19.1903 2.027 19.4389C2.29952 19.8785 2.53488 20.3378 2.73308 20.8166C2.80642 20.9814 2.89096 21.1675 2.98668 21.3748C3.08743 21.5658 3.20602 21.7136 3.34247 21.818C3.42971 21.8805 3.50575 21.9218 3.5706 21.9419C3.57175 21.9955 3.58353 22.0436 3.60591 22.086C3.90699 22.6056 4.26085 23.0837 4.6675 23.5205C4.8493 23.7366 5.05262 23.955 5.27746 24.1756C5.49671 24.3856 5.74915 24.517 6.03478 24.5699C6.18571 24.5989 6.31087 24.5532 6.41026 24.433C6.52027 24.3071 6.55761 24.1721 6.52229 24.028C6.51496 23.9369 6.51042 23.8511 6.50869 23.7706C6.6903 23.7291 6.79808 23.6248 6.83205 23.4577C6.85154 23.366 6.85984 23.2531 6.85695 23.119C6.86467 22.9792 6.88889 22.8579 6.92961 22.7551C6.97033 22.6522 7.04657 22.5781 7.15831 22.5327C7.26446 22.4768 7.3432 22.3945 7.39454 22.2861C7.47155 22.1234 7.46556 21.9705 7.37659 21.8275C7.29264 21.6683 7.2274 21.506 7.18089 21.3406C7.26021 21.2852 7.34233 21.2351 7.42725 21.1903C7.50657 21.135 7.5691 21.0477 7.61484 20.9286C7.65055 20.842 7.66107 20.7076 7.6464 20.5254C7.63675 20.327 7.66628 20.2029 7.73498 20.1531C7.9467 20.0143 7.98848 19.8363 7.86033 19.619C7.77696 19.4866 7.68635 19.3919 7.5885 19.335C7.58676 19.2545 7.58502 19.174 7.58329 19.0935C7.58657 18.9968 7.61446 18.9211 7.66695 18.8663C7.73006 18.8059 7.76326 18.7273 7.76654 18.6306C7.76982 18.5339 7.73846 18.4487 7.67245 18.375L7.6959 18.3423C7.71597 18.2774 7.73074 18.2154 7.74019 18.1561C7.97989 18.0704 8.17598 17.9535 8.32845 17.8053C8.48593 17.6408 8.5227 17.479 8.43874 17.3198C8.69215 17.6203 8.91371 17.9376 9.10343 18.2716C9.24219 18.4834 9.38626 18.6923 9.53564 18.8984C9.70625 19.0933 9.89693 19.2234 10.1077 19.2886C10.0932 19.3641 10.1246 19.4493 10.2018 19.5443C10.2796 19.666 10.392 19.7763 10.539 19.8752C10.6861 19.974 10.8245 20.0435 10.9542 20.0836C11.2035 20.1963 11.4201 20.1567 11.6038 19.9649C11.6351 19.9213 11.666 19.8643 11.6967 19.7938C11.7672 19.8245 11.8454 19.8443 11.9315 19.8532C11.9958 19.8464 12.0519 19.8371 12.1 19.8254C12.1123 19.9002 12.13 19.9723 12.153 20.0416C12.1883 20.1858 12.2786 20.267 12.4239 20.2854C12.5693 20.3037 12.6894 20.2743 12.7844 20.1971C12.8849 20.1305 12.9743 20.0427 13.0524 19.9336C13.1341 19.9855 13.2501 20.0126 13.4004 20.0147C13.4809 20.013 13.5773 20.0028 13.6896 19.9843C13.8019 19.9658 13.8869 19.921 13.9444 19.85C14.0829 19.804 14.1083 19.7364 14.0205 19.647C14.0815 19.737 14.1372 19.8297 14.1875 19.9252C14.2491 20.042 14.3576 20.0933 14.5129 20.0792C14.6789 20.0596 14.7985 20.0033 14.8716 19.9105C14.9291 19.8394 14.9601 19.7824 14.9646 19.7394C14.974 19.6801 14.9938 19.6019 15.0239 19.5046C15.059 19.3911 15.1238 19.2824 15.2181 19.1783C15.3237 19.0955 15.3697 18.9899 15.3562 18.8613L15.3478 18.8454C15.3529 18.8292 15.347 18.8052 15.3302 18.7733C15.3246 18.7627 15.3162 18.7468 15.305 18.7256Z" fill="#85C525"/>
<path d="M25.7484 12.1609C25.6187 12.1207 25.4843 12.1102 25.3452 12.1293C25.3239 12.1405 25.3052 12.1436 25.289 12.1386C25.2761 12.0369 25.171 12.0177 24.9737 12.081C24.7709 12.1337 24.6535 12.1684 24.6217 12.1852C24.4088 12.2703 24.2125 12.3738 24.0326 12.4958C23.9482 12.5674 23.891 12.6519 23.8609 12.7491C23.572 12.7929 23.3167 12.9004 23.0949 13.0716C22.9988 13.0952 22.9058 13.1374 22.8158 13.1984C22.6549 13.2019 22.5213 13.2316 22.4152 13.2876C22.2772 13.3604 22.1361 13.4144 21.9919 13.4497C21.8478 13.485 21.7095 13.5444 21.5771 13.6278C21.5346 13.6501 21.5003 13.675 21.474 13.7024C21.2515 13.5892 21.0045 13.5837 20.7329 13.6862C20.4664 13.7725 20.2208 13.8342 19.9962 13.8712C19.6067 13.9816 19.225 14.0811 18.8512 14.1697C18.883 14.1529 18.9018 14.1498 18.9074 14.1604C18.9929 14.1425 19.0057 14.1154 18.9459 14.0791C19.0414 14.0287 19.1129 13.9842 19.1604 13.9456C19.1922 13.9288 19.2135 13.9176 19.2241 13.912C19.3458 13.8343 19.4564 13.7353 19.5558 13.615C19.6319 13.6563 19.7339 13.6568 19.8618 13.6165C19.9898 13.5761 20.0856 13.5392 20.1493 13.5056L20.1811 13.4888C20.2398 13.4714 20.2873 13.4328 20.3236 13.373C20.3498 13.3456 20.3736 13.3263 20.3948 13.3151C20.5629 13.1451 20.7064 12.9541 20.8253 12.7422C20.8353 12.7098 20.8266 12.6804 20.7992 12.6542C20.717 12.5754 20.6507 12.4883 20.6003 12.3928C20.702 12.3798 20.8141 12.3479 20.9364 12.2969C21.0588 12.246 21.1275 12.1962 21.1426 12.1476C21.2257 12.0223 21.2609 11.9088 21.2479 11.8071C21.2294 11.6948 21.2106 11.5691 21.1915 11.4299C21.3088 11.3952 21.4069 11.3367 21.4856 11.2545C21.5063 11.2164 21.5294 11.1703 21.5551 11.1161C21.6568 11.1032 21.7501 11.0743 21.835 11.0295C21.9306 10.9792 21.999 10.916 22.0403 10.8399C22.0659 10.7857 22.0676 10.7373 22.0452 10.6949C22.0334 10.6468 22.0404 10.5957 22.066 10.5414C22.1023 10.4816 22.1604 10.4374 22.2403 10.4089C22.3308 10.3747 22.3911 10.309 22.4212 10.2117C22.4614 10.082 22.4429 9.96969 22.3657 9.87473C22.4294 9.84115 22.4712 9.79194 22.4913 9.72709C22.5766 9.45149 22.5335 9.31823 22.3619 9.3273C22.2009 9.33077 22.0791 9.27972 21.9963 9.17415C22.1024 9.11819 22.1893 9.03848 22.2568 8.93503C22.2987 8.88582 22.3031 8.84278 22.2701 8.80592C22.1835 8.77021 22.0968 8.73451 22.0102 8.6988C22.1437 8.66908 22.2202 8.60838 22.2397 8.51671C22.2492 8.45746 22.2558 8.3929 22.2597 8.32304C22.2898 8.22577 22.2353 8.18668 22.0961 8.20579C21.957 8.2249 21.8447 8.24343 21.7592 8.26138C21.7648 8.27199 21.7779 8.25829 21.7985 8.22027C21.8723 8.15426 21.8633 8.11151 21.7716 8.09202C21.6906 8.06693 21.6285 8.05217 21.5855 8.04773C21.4676 8.05564 21.3633 8.07668 21.2728 8.11084L21.214 7.99938C21.1749 7.92508 21.0885 7.90279 20.955 7.93251C20.8214 7.96223 20.7094 7.99417 20.6188 8.02833C20.6283 7.96908 20.6671 7.90115 20.7352 7.82453C20.814 7.74231 20.8715 7.67129 20.9078 7.61146C20.9547 7.54603 20.9085 7.52287 20.7694 7.54198C20.6353 7.54488 20.5128 7.467 20.402 7.30836C20.4153 7.17924 20.3206 7.14103 20.1177 7.19372C19.9149 7.24641 19.7922 7.28395 19.7498 7.30633C19.6542 7.35671 19.564 7.40428 19.4791 7.44906C19.4573 7.43342 19.4274 7.41528 19.3894 7.39463C19.3407 7.37958 19.2493 7.3735 19.1152 7.37639C18.9917 7.37369 18.997 7.37089 19.1311 7.368C19.1043 7.36858 19.0428 7.38064 18.9467 7.40418C18.8545 7.35786 18.7206 7.37417 18.5452 7.45311C18.3642 7.52143 18.2527 7.5802 18.2108 7.62941C18.1796 7.67303 18.1508 7.70854 18.1246 7.73595C18.0983 7.76335 18.0883 7.79578 18.0944 7.83322C18.1112 7.86506 18.128 7.89691 18.1448 7.92875C17.9688 7.98086 17.8579 8.06645 17.8122 8.18553C17.7966 8.20734 17.7821 8.2828 17.7688 8.41192L17.7528 8.42031C17.6836 8.44328 17.593 8.47744 17.4813 8.5228C17.3696 8.56815 17.3036 8.62325 17.2836 8.6881L17.276 8.71242C17.2704 8.7018 17.2595 8.69398 17.2433 8.68897C17.1517 8.66947 17.0606 8.67681 16.97 8.71097C16.9058 8.71772 16.8362 8.72728 16.7613 8.73963C16.6434 8.74754 16.4961 8.76414 16.3196 8.78942C16.148 8.79849 16.01 8.87125 15.9056 9.0077C15.8637 9.05692 15.8593 9.09995 15.8923 9.13682C16.0113 9.18256 16.053 9.24876 16.0173 9.33541C16.0123 9.35162 16.0151 9.35693 16.0257 9.35133C15.9833 9.37372 15.9542 9.39582 15.9386 9.41763C15.8704 9.49425 15.8482 9.58061 15.8717 9.67673C15.8729 9.73038 15.8846 9.77844 15.907 9.82089C15.5589 9.85525 15.2474 9.97201 14.9725 10.1712C14.9407 10.188 14.9038 10.221 14.8619 10.2702C14.8145 10.3088 14.7938 10.3468 14.8 10.3843C14.8017 10.4647 14.801 10.5533 14.7977 10.65C14.7994 10.7305 14.833 10.7942 14.8984 10.8411C14.8453 10.8691 14.7951 10.9024 14.7476 10.941C14.7001 10.9796 14.6848 11.0148 14.7016 11.0466C14.7351 11.1103 14.8177 11.2025 14.9491 11.3231C15.0805 11.4437 15.1711 11.5384 15.2209 11.6071C15.0824 11.653 14.9759 11.6956 14.9016 11.7348L14.8538 11.7599C14.7902 11.7935 14.7402 11.8402 14.7039 11.9001C14.5391 11.9734 14.4251 12.0403 14.362 12.1007C14.2051 12.2919 14.1838 12.5474 14.298 12.867C14.4123 13.1866 14.5357 13.4335 14.6683 13.6078C14.7186 13.7033 14.7687 13.7854 14.8185 13.8541C14.8789 13.9173 14.929 13.9994 14.9688 14.1005C15.0601 14.3508 15.1913 14.5869 15.3625 14.8086C15.6869 15.1666 16.0745 15.4642 16.5251 15.7014C16.7694 15.8303 16.9923 15.957 17.1935 16.0815C17.3948 16.206 17.6162 16.2656 17.8577 16.2604C17.8582 16.2873 17.8535 16.3169 17.8435 16.3493C17.8346 16.4354 17.921 16.4577 18.1026 16.4162C18.2948 16.3691 18.4015 16.3399 18.4227 16.3287C18.5982 16.2498 18.6515 16.2352 18.5828 16.285C18.5191 16.3186 18.5072 16.386 18.5469 16.4871C18.5811 16.5776 18.6496 16.6432 18.7525 16.684C18.9202 16.7448 19.1027 16.7435 19.2999 16.6802C19.4972 16.6169 19.6832 16.5324 19.8581 16.4266C19.9223 16.4198 19.9972 16.4075 20.0827 16.3895C20.1838 16.3498 20.2713 16.2969 20.345 16.2309C20.3562 16.2521 20.3727 16.2706 20.3945 16.2862C20.4387 16.3443 20.4798 16.3837 20.5178 16.4043C20.6045 16.44 20.7199 16.4402 20.8641 16.4049C21.0026 16.3589 21.1113 16.2949 21.19 16.2127C21.4091 16.165 21.625 16.0986 21.8379 16.0135C21.9078 16.0173 21.9908 16.0075 22.0869 15.984C22.2803 15.9905 22.4619 15.949 22.6317 15.8595C22.7803 15.7811 22.851 15.6964 22.8436 15.6053C22.8469 15.5086 22.8446 15.4013 22.8367 15.2834C22.9328 15.2598 22.9993 15.2316 23.0361 15.1986C23.1809 15.1901 23.2879 15.1743 23.3572 15.1514L23.3731 15.143C23.4916 15.1619 23.6283 15.1509 23.783 15.11C23.9322 15.0584 24.0219 14.984 24.052 14.8868C24.1537 14.8738 24.2551 14.8475 24.3562 14.8077C24.4624 14.7518 24.5283 14.6967 24.554 14.6424L24.5699 14.634C24.661 14.6267 24.7571 14.6032 24.8582 14.5634C24.9538 14.513 25.0253 14.4685 25.0727 14.4299C25.1571 14.3583 25.2255 14.2951 25.278 14.2403C25.3847 14.2112 25.5152 14.1627 25.6694 14.095C25.7543 14.0502 25.8336 13.9948 25.9074 13.9288C25.9755 13.8522 26.0059 13.7683 25.9985 13.6772C26.0466 13.6655 26.0866 13.6512 26.1184 13.6344C26.1396 13.6232 26.174 13.5983 26.2215 13.5597C26.2796 13.5155 26.2974 13.4722 26.275 13.4297L26.1071 13.1113C26.0847 13.0688 26.0439 13.0429 25.9847 13.0334C25.9661 12.9211 25.9099 12.8015 25.8159 12.6747C25.7325 12.5423 25.7246 12.4244 25.7921 12.321C25.8496 12.2499 25.8351 12.1966 25.7484 12.1609ZM17.2749 12.7625C17.2743 12.7356 17.2637 12.7412 17.243 12.7792C17.2324 12.7848 17.2137 12.7879 17.1869 12.7885L17.1701 12.7567C17.2075 12.7505 17.2394 12.7337 17.2656 12.7063C17.2712 12.7169 17.2743 12.7356 17.2749 12.7625ZM17.2671 12.4003C17.2435 12.3042 17.2393 12.2318 17.2543 12.1832C17.3767 12.1322 17.4289 12.064 17.411 11.9785C17.3291 11.6689 17.3443 11.3761 17.4564 11.0999C17.5469 11.0657 17.6022 11.0162 17.6223 10.9514C17.6586 10.8915 17.6652 10.827 17.6423 10.7577C17.6417 10.7309 17.6386 10.7122 17.633 10.7015C17.6542 10.6903 17.6701 10.6819 17.6808 10.6764C17.7657 10.6316 17.8185 10.5902 17.8391 10.5522C17.8648 10.4979 17.8927 10.4222 17.9228 10.3249C18.0009 10.2159 18.0492 10.0887 18.0675 9.94335C18.4726 9.81114 18.7675 9.54713 18.9522 9.15129C18.9935 9.07525 19.032 8.9939 19.0677 8.90724C19.0884 8.86922 19.1169 8.8203 19.1531 8.76047L19.1691 8.75207C19.2283 8.76153 19.2929 8.76819 19.3627 8.77205C19.5192 8.81161 19.6523 8.88389 19.7619 8.98888C19.6396 9.03983 19.5846 9.10275 19.5969 9.17763L19.8404 9.63938C19.6874 9.76077 19.5209 9.88246 19.341 10.0044C19.3092 10.0212 19.2723 10.0542 19.2304 10.1034C19.183 10.142 19.1676 10.1773 19.1844 10.2091C19.2292 10.294 19.2633 10.3845 19.2869 10.4807C19.026 10.5775 18.7961 10.7462 18.5973 10.9867C18.5504 11.0521 18.5328 11.1089 18.5446 11.1569C18.5564 11.205 18.5738 11.2636 18.5967 11.3329C18.5973 11.3598 18.6032 11.3838 18.6144 11.405C18.5021 11.4235 18.3928 11.4608 18.2867 11.5168C18.1911 11.5671 18.1277 11.6141 18.0965 11.6577C18.0602 11.7176 18.0267 11.7827 17.996 11.8531C17.976 11.918 17.945 11.975 17.9031 12.0242C17.8176 12.0422 17.7271 12.0764 17.6316 12.1267C17.5679 12.1603 17.5017 12.202 17.433 12.2518C17.3643 12.3016 17.309 12.3511 17.2671 12.4003ZM22.0892 14.599C22.068 14.6102 22.0414 14.6242 22.0096 14.641C22.0683 14.6236 22.1188 14.6037 22.1613 14.5813C22.1401 14.5925 22.116 14.5984 22.0892 14.599Z" fill="#85C525"/>
<path d="M37.7388 2.84735C37.5929 2.80219 37.4722 2.80479 37.3767 2.85516C37.339 2.60369 37.3039 2.34411 37.2713 2.07642C37.264 1.98533 37.217 1.92193 37.1303 1.88622C37.0381 1.8399 36.9517 1.81761 36.8712 1.81935C36.8768 1.82996 36.8276 1.78808 36.7236 1.69371C36.6246 1.58312 36.5348 1.5287 36.4543 1.53043C36.4275 1.53101 36.4088 1.5341 36.3982 1.5397C36.382 1.53468 36.3711 1.52686 36.3655 1.51625C36.2933 1.40508 36.2052 1.30231 36.1012 1.20794C35.963 1.02305 35.8038 0.86276 35.6238 0.727084C35.3341 0.486418 35.0219 0.44753 34.6873 0.61042C34.6766 0.616017 34.6635 0.629719 34.6479 0.651529C34.5769 0.594015 34.5084 0.528396 34.4423 0.454672C34.3707 0.370332 34.3078 0.315327 34.2536 0.289658C34.1669 0.253955 34.0647 0.240059 33.9467 0.247973C33.8394 0.250289 33.7455 0.252316 33.6651 0.254052C33.622 0.249613 33.5874 0.261098 33.5611 0.288503C33.5343 0.289083 33.51 0.281553 33.4882 0.265921C33.3992 0.122911 33.2958 0.0553613 33.1778 0.063275C33.0543 0.0605741 32.9152 0.0796791 32.7604 0.120595C32.728 0.110559 32.7011 0.111139 32.6799 0.122334C32.4983 0.163829 32.35 0.255599 32.2349 0.397644C32.1674 0.501091 32.1423 0.582149 32.1597 0.64082C32.177 0.699492 32.176 0.774662 32.1565 0.866336C32.1219 1.00665 32.0837 1.10141 32.0419 1.15062C32.005 1.18362 32.0042 1.27221 32.0395 1.41638C32.0922 1.61922 32.1639 1.83238 32.2546 2.05587C32.1603 2.1599 32.1307 2.284 32.166 2.42816C32.2629 2.6891 32.4089 2.86308 32.6041 2.95012C32.7992 3.03716 33.0312 3.09121 33.3 3.11224C33.698 3.14659 34.051 3.21144 34.359 3.30678C34.667 3.40212 34.977 3.59135 35.2891 3.87448C35.4972 4.06323 35.608 4.22187 35.6215 4.35041C35.64 4.46273 35.5546 4.60951 35.3653 4.79073C35.334 4.83435 35.2868 4.88636 35.2237 4.94677C35.1863 4.95295 35.1301 4.96221 35.0552 4.97456C34.7981 5.00158 34.5984 5.07299 34.456 5.18879C34.3481 5.16428 34.2246 5.16158 34.0854 5.18068C33.9356 5.20539 33.7674 5.24659 33.5808 5.3043C33.3886 5.35139 33.2296 5.31993 33.1037 5.20992C32.9405 5.10609 32.7767 5.10426 32.6125 5.20443C32.57 5.22681 32.4932 5.2741 32.382 5.34628C32.2709 5.41846 32.2097 5.44393 32.1985 5.4227C32.1661 5.41267 32.1577 5.39675 32.1733 5.37494C32.1939 5.33692 32.1956 5.28857 32.1782 5.2299C32.0981 5.00081 31.9211 4.88386 31.6473 4.87903C31.5774 4.87517 31.5028 4.90094 31.4235 4.95633C31.3967 4.95691 31.3752 4.95469 31.3589 4.94967C31.1945 4.79218 31.006 4.64059 30.7936 4.49487C30.5861 4.33295 30.3745 4.22748 30.1587 4.17846C29.9479 4.11322 29.7495 4.12287 29.5635 4.20741C29.3881 4.28634 29.258 4.47702 29.1732 4.77945C29.0785 5.1143 29.062 5.46893 29.1237 5.84335C29.1799 6.20714 29.2008 6.5556 29.1866 6.88871C29.1827 6.95858 29.1691 7.07428 29.1457 7.23582C29.1274 7.38114 29.0985 7.53207 29.0589 7.68859C29.0137 7.83449 28.9549 7.96728 28.8823 8.08693C28.8204 8.201 28.7407 8.24297 28.6435 8.21287C28.6491 8.22348 28.6379 8.20225 28.6099 8.14918C28.5925 8.09051 28.567 8.02933 28.5335 7.96564C28.5468 7.83652 28.5336 7.7214 28.4938 7.62027C28.4591 7.50293 28.4081 7.38057 28.341 7.25319C28.3894 7.01059 28.3627 6.76693 28.2608 6.52221C28.2042 6.38924 28.1239 6.27556 28.0199 6.18119C27.9265 6.08122 27.8434 5.96223 27.7706 5.82424C27.6655 5.67621 27.5196 5.63105 27.3329 5.68876C27.2283 5.56755 27.1159 5.45726 26.9957 5.35786C26.886 5.25287 26.7454 5.20491 26.5739 5.21399C26.2631 5.24216 26.05 5.31386 25.9344 5.42908C25.8188 5.5443 25.7451 5.73913 25.7135 6.01357C25.6851 6.19132 25.6486 6.36656 25.6041 6.5393C25.5645 6.69582 25.5493 6.85986 25.5583 7.03144C25.5736 7.24045 25.6237 7.4514 25.7089 7.66428C25.7884 7.86654 25.8623 8.05818 25.9306 8.23921C25.971 8.36717 26.0175 8.53257 26.0702 8.73541C26.1335 8.93265 26.2102 9.1296 26.3003 9.32627C26.3904 9.52293 26.4934 9.69248 26.6092 9.83491C26.725 9.97734 26.8634 10.0468 27.0243 10.0433C27.0405 10.0484 27.054 10.0481 27.0646 10.0425C27.0702 10.0531 27.0758 10.0637 27.0814 10.0743C27.1323 10.1967 27.2232 10.3048 27.3541 10.3986C27.4955 10.4868 27.578 10.5789 27.6016 10.675C27.6431 10.8566 27.7443 10.9457 27.9053 10.9422C28.0662 10.9388 28.202 10.8875 28.3126 10.7885C28.515 10.9666 28.746 11.0959 29.0053 11.1761C29.1513 11.2213 29.2728 11.2589 29.3701 11.289C29.4618 11.3085 29.57 11.3465 29.6946 11.4028C29.8579 11.5066 30.0304 11.5378 30.212 11.4963C30.3243 11.4778 30.4467 11.4268 30.579 11.3435C30.7165 11.2439 30.8214 11.1343 30.894 11.0146C31.0455 11.0704 31.204 11.075 31.3694 11.0285C31.5504 10.9602 31.6576 10.829 31.691 10.6351C31.7603 10.6121 31.8184 10.5679 31.8653 10.5025C31.9334 10.4259 31.9641 10.3554 31.9573 10.2911C31.9556 10.2107 31.9564 10.1221 31.9596 10.0254C31.9552 10.0684 31.9619 10.0039 31.9796 9.83172L31.9871 9.8074C32.1128 9.65976 32.2211 9.45345 32.312 9.18846C32.4135 8.91788 32.3979 8.69545 32.2654 8.52117C32.1882 8.42622 32.1364 8.39244 32.1102 8.41985C32.1152 8.40364 32.1174 8.38212 32.1168 8.35529C32.2398 8.33117 32.3378 8.27269 32.411 8.17986C32.4384 8.2061 32.4658 8.23235 32.4932 8.2586C32.5866 8.35857 32.6956 8.43674 32.8203 8.49309C32.8964 8.53439 32.9877 8.54047 33.0945 8.51133C33.2012 8.48218 33.2886 8.42931 33.3568 8.35268C33.4177 8.44262 33.4969 8.50264 33.5941 8.53275C33.6964 8.54665 33.795 8.51499 33.89 8.4378C33.9218 8.42101 33.9562 8.39611 33.9931 8.36311C33.9987 8.37372 34.0096 8.38154 34.0258 8.38655C34.1292 8.4541 34.2611 8.47273 34.4215 8.44243C34.5763 8.40151 34.692 8.41512 34.7686 8.48325C34.9331 8.64073 35.1102 8.64227 35.3001 8.48788C35.5007 8.32788 35.5477 8.14704 35.4414 7.94536C35.419 7.9029 35.3966 7.86044 35.3742 7.81798C35.4167 7.7956 35.4592 7.77321 35.5016 7.75082C35.5753 7.68482 35.6407 7.60289 35.6976 7.50504C35.7132 7.48323 35.7336 7.4318 35.7587 7.35074C35.7782 7.25907 35.782 7.1892 35.7703 7.14114C35.8262 7.24729 35.9107 7.30452 36.0236 7.31282C36.1365 7.32111 36.246 7.29728 36.3522 7.24131C36.4992 7.34012 36.6753 7.41684 36.8805 7.47146C36.9073 7.47088 36.9341 7.4703 36.961 7.46972C37.0052 7.52781 37.0815 7.58253 37.19 7.63386C37.3146 7.69022 37.4354 7.68761 37.5521 7.62605C37.6689 7.56448 37.7554 7.47136 37.8118 7.34668C37.9027 7.0817 37.8969 6.81343 37.7944 6.54189C37.772 6.49943 37.7326 6.41171 37.676 6.27874L37.6919 6.27034C37.8058 6.07464 37.8395 5.89409 37.793 5.72869C37.8991 5.67273 37.9804 5.5824 38.0367 5.45773C38.0674 5.38728 38.0766 5.31462 38.0642 5.23973C38.1866 5.18878 38.2731 5.09566 38.3239 4.96037C38.4467 4.6786 38.5107 4.41419 38.5161 4.16715C38.5215 3.92012 38.4381 3.6589 38.2657 3.38349C38.2047 3.29355 38.1275 3.1986 38.0341 3.09863C37.9513 2.99306 37.8529 2.9093 37.7388 2.84735Z" fill="#85C525"/>
</svg>
