<svg width="30" height="30" viewBox="0 0 30 30" fill="none" xmlns="http://www.w3.org/2000/svg">
<path d="M7.96377 29C7.59758 28.9993 7.23594 28.9196 6.90409 28.7663C6.57224 28.613 6.27816 28.3899 6.04238 28.1126C5.80659 27.8352 5.63476 27.5103 5.53889 27.1604C5.44302 26.8105 5.42541 26.4442 5.48729 26.0869L6.50984 20.1928C6.55111 19.9519 6.53289 19.7047 6.45673 19.4723C6.38056 19.2399 6.24872 19.0292 6.07246 18.8582L1.76115 14.677C1.42471 14.3531 1.18659 13.9424 1.07375 13.4914C0.960901 13.0405 0.97784 12.5672 1.12264 12.1253C1.26745 11.6834 1.53434 11.2904 1.89309 10.9908C2.25185 10.6913 2.68815 10.4972 3.15259 10.4304L9.12691 9.5716C9.37034 9.53588 9.60146 9.4425 9.80061 9.2994C9.99977 9.15629 10.1611 8.9677 10.2708 8.74965L12.9432 3.38611C13.1522 2.9698 13.4744 2.6195 13.8736 2.37462C14.2728 2.12974 14.7331 2 15.2028 2C15.6724 2 16.1327 2.12974 16.5319 2.37462C16.9311 2.6195 17.2533 2.9698 17.4623 3.38611L20.1347 8.74846C20.2442 8.96737 20.4057 9.15673 20.6053 9.30031C20.805 9.44388 21.0368 9.53738 21.281 9.57279L27.2553 10.4316C27.7195 10.4986 28.1554 10.6927 28.514 10.9921C28.8726 11.2914 29.1394 11.6841 29.2844 12.1257C29.4294 12.5673 29.4467 13.0402 29.3345 13.4911C29.2222 13.9419 28.9848 14.3527 28.6492 14.677L24.3234 18.8546C24.1493 19.0261 24.0188 19.2361 23.9428 19.4673C23.8668 19.6986 23.8473 19.9444 23.8861 20.1845L24.9098 26.0833C24.9885 26.5408 24.9366 27.011 24.7598 27.4409C24.583 27.8707 24.2884 28.2431 23.9092 28.5161C23.53 28.789 23.0814 28.9517 22.6138 28.9857C22.1462 29.0197 21.6784 28.9237 21.263 28.7086L15.9123 25.9227C15.6937 25.8094 15.4507 25.7503 15.204 25.7503C14.9572 25.7503 14.7142 25.8094 14.4956 25.9227L9.13892 28.7074C8.77618 28.8952 8.37313 28.9939 7.96377 28.9952V29ZM15.1805 24.7713C15.5888 24.7713 15.9908 24.8697 16.3521 25.0579L21.7016 27.8414C21.9529 27.9723 22.2363 28.0308 22.5196 28.0104C22.8028 27.9899 23.0746 27.8914 23.3042 27.7258C23.5337 27.5602 23.7118 27.3343 23.8183 27.0736C23.9247 26.813 23.9553 26.528 23.9065 26.251L22.8839 20.3558C22.8144 19.9582 22.8437 19.5499 22.9693 19.1661C23.0949 18.7822 23.3131 18.4345 23.6049 18.1528L27.9306 13.9764C28.1336 13.7802 28.2772 13.5318 28.3452 13.2592C28.4131 12.9865 28.4028 12.7005 28.3154 12.4334C28.2279 12.1662 28.0668 11.9286 27.8502 11.7472C27.6336 11.5659 27.3701 11.4481 27.0895 11.407L21.1176 10.5494C20.7135 10.4911 20.3298 10.3366 19.9993 10.0992C19.6688 9.86172 19.4015 9.54843 19.2203 9.1862L16.5491 3.82504C16.4242 3.57276 16.2302 3.36022 15.9894 3.21158C15.7485 3.06293 15.4704 2.98413 15.1865 2.98413C14.9027 2.98413 14.6246 3.06293 14.3837 3.21158C14.1428 3.36022 13.9489 3.57276 13.8239 3.82504L11.1516 9.19096C10.9709 9.55294 10.704 9.86598 10.3739 10.1031C10.0438 10.3401 9.66035 10.4941 9.25668 10.5518L3.27996 11.4118C3.07367 11.4376 2.87524 11.5064 2.69774 11.6136C2.52025 11.7208 2.36772 11.8641 2.2502 12.0339L2.18892 12.0244L2.05314 12.4348C1.96177 12.7024 1.94988 12.9903 2.01889 13.2644C2.0879 13.5385 2.2349 13.7873 2.44245 13.9811L6.75016 18.1599C7.04191 18.4421 7.25997 18.7903 7.38557 19.1745C7.51116 19.5587 7.54052 19.9674 7.47111 20.3653L6.44856 26.2593C6.41166 26.4751 6.42254 26.6962 6.48045 26.9074C6.53836 27.1185 6.64191 27.3147 6.78395 27.4824C6.92599 27.65 7.10312 27.7851 7.3031 27.8783C7.50307 27.9715 7.72111 28.0206 7.94214 28.0222C8.19011 28.0211 8.43414 27.9607 8.65348 27.8462L14.0054 25.0615C14.3671 24.8701 14.7704 24.7688 15.1805 24.7665V24.7713Z" fill="black" fill-opacity="0.45"/>
</svg>
