<svg width="25" height="25" viewBox="0 0 25 25" fill="none" xmlns="http://www.w3.org/2000/svg">
<circle cx="12.5" cy="12.5" r="12.5" fill="#8A4B53"/>
<path d="M15.9593 10.7112L15.0831 11.3778C15.1836 12.0311 15.2343 12.6911 15.2345 13.3522V19.4109C15.2345 19.4218 15.2302 19.4322 15.2226 19.4399C15.215 19.4477 15.2047 19.4521 15.1939 19.4523H9.79711C9.78626 19.4522 9.77589 19.4479 9.76822 19.4402C9.76055 19.4325 9.7562 19.4222 9.7561 19.4113V15.4304L8.7787 16.1739V19.4117C8.7789 19.6815 8.88623 19.9402 9.0771 20.1309C9.26797 20.3217 9.52679 20.429 9.79672 20.4292H15.1946C15.4642 20.4282 15.7224 20.3207 15.9128 20.13C16.1032 19.9394 16.2103 19.6811 16.2107 19.4117V13.3522C16.2107 12.4659 16.1265 11.5816 15.9593 10.7112V10.7112ZM14.6454 6.91873C14.7869 6.80836 14.9016 6.66736 14.9808 6.50633C15.06 6.3453 15.1016 6.16843 15.1026 5.989V5.74766C15.102 5.43476 14.9773 5.13487 14.7558 4.91376C14.5342 4.69265 14.234 4.56836 13.9209 4.56816H11.07C10.7571 4.56857 10.4571 4.69302 10.2358 4.91421C10.0146 5.13541 9.89017 5.43528 9.88986 5.74804V5.98785H10.0167H9.88986C9.8907 6.16728 9.93222 6.34419 10.0113 6.50528C10.0903 6.66638 10.2049 6.80747 10.3464 6.91797C9.31872 8.90794 8.78114 11.1143 8.77832 13.3537V14.4539L9.75533 13.7103V13.3518C9.75797 11.1934 10.295 9.06915 11.3184 7.1685H13.6707C14.1378 8.03416 14.5053 8.94994 14.7661 9.89832L15.5998 9.26433C15.353 8.45567 15.0336 7.67099 14.6454 6.91988V6.91873ZM14.1237 5.98709C14.1235 6.04091 14.102 6.09247 14.064 6.13056C14.026 6.16866 13.9744 6.1902 13.9206 6.1905H11.0704C11.0166 6.1902 10.965 6.16872 10.927 6.13072C10.8889 6.09272 10.8673 6.04126 10.8669 5.98747V5.74919C10.8673 5.6954 10.8889 5.64394 10.927 5.60594C10.965 5.56794 11.0166 5.54646 11.0704 5.54616H13.9206C13.9743 5.54646 14.0258 5.56795 14.0639 5.60596C14.1019 5.64397 14.1234 5.69544 14.1237 5.74919V5.98709ZM15.9593 10.7112L15.0831 11.3778C15.1836 12.0311 15.2343 12.6911 15.2345 13.3522V19.4109C15.2345 19.4218 15.2302 19.4322 15.2226 19.4399C15.215 19.4477 15.2047 19.4521 15.1939 19.4523H9.79711C9.78626 19.4522 9.77589 19.4479 9.76822 19.4402C9.76055 19.4325 9.7562 19.4222 9.7561 19.4113V15.4304L8.7787 16.1739V19.4117C8.7789 19.6815 8.88623 19.9402 9.0771 20.1309C9.26797 20.3217 9.52679 20.429 9.79672 20.4292H15.1946C15.4642 20.4282 15.7224 20.3207 15.9128 20.13C16.1032 19.9394 16.2103 19.6811 16.2107 19.4117V13.3522C16.2107 12.4659 16.1265 11.5816 15.9593 10.7112V10.7112ZM14.6454 6.91873C14.7869 6.80836 14.9016 6.66736 14.9808 6.50633C15.06 6.3453 15.1016 6.16843 15.1026 5.989V5.74766C15.102 5.43476 14.9773 5.13487 14.7558 4.91376C14.5342 4.69265 14.234 4.56836 13.9209 4.56816H11.07C10.7571 4.56857 10.4571 4.69302 10.2358 4.91421C10.0146 5.13541 9.89017 5.43528 9.88986 5.74804V5.98785H10.0167H9.88986C9.8907 6.16728 9.93222 6.34419 10.0113 6.50528C10.0903 6.66638 10.2049 6.80747 10.3464 6.91797C9.31872 8.90794 8.78114 11.1143 8.77832 13.3537V14.4539L9.75533 13.7103V13.3518C9.75797 11.1934 10.295 9.06915 11.3184 7.1685H13.6707C14.1378 8.03416 14.5053 8.94994 14.7661 9.89832L15.5998 9.26433C15.353 8.45567 15.0336 7.67099 14.6454 6.91988V6.91873ZM14.1237 5.98709C14.1235 6.04091 14.102 6.09247 14.064 6.13056C14.026 6.16866 13.9744 6.1902 13.9206 6.1905H11.0704C11.0166 6.1902 10.965 6.16872 10.927 6.13072C10.8889 6.09272 10.8673 6.04126 10.8669 5.98747V5.74919C10.8673 5.6954 10.8889 5.64394 10.927 5.60594C10.965 5.56794 11.0166 5.54646 11.0704 5.54616H13.9206C13.9743 5.54646 14.0258 5.56795 14.0639 5.60596C14.1019 5.64397 14.1234 5.69544 14.1237 5.74919V5.98709ZM14.6454 6.91873C14.7869 6.80836 14.9016 6.66736 14.9808 6.50633C15.06 6.3453 15.1016 6.16843 15.1026 5.989V5.74766C15.102 5.43476 14.9773 5.13487 14.7558 4.91376C14.5342 4.69265 14.234 4.56836 13.9209 4.56816H11.07C10.7571 4.56857 10.4571 4.69302 10.2358 4.91421C10.0146 5.13541 9.89017 5.43528 9.88986 5.74804V5.98785H10.0167H9.88986C9.8907 6.16728 9.93222 6.34419 10.0113 6.50528C10.0903 6.66638 10.2049 6.80747 10.3464 6.91797C9.31872 8.90794 8.78114 11.1143 8.77832 13.3537V14.4539L9.75533 13.7103V13.3518C9.75797 11.1934 10.295 9.06915 11.3184 7.1685H13.6707C14.1378 8.03416 14.5053 8.94994 14.7661 9.89832L15.5998 9.26433C15.353 8.45567 15.0336 7.67099 14.6454 6.91988V6.91873ZM14.1237 5.98709C14.1235 6.04091 14.102 6.09247 14.064 6.13056C14.026 6.16866 13.9744 6.1902 13.9206 6.1905H11.0704C11.0166 6.1902 10.965 6.16872 10.927 6.13072C10.8889 6.09272 10.8673 6.04126 10.8669 5.98747V5.74919C10.8673 5.6954 10.8889 5.64394 10.927 5.60594C10.965 5.56794 11.0166 5.54646 11.0704 5.54616H13.9206C13.9743 5.54646 14.0258 5.56795 14.0639 5.60596C14.1019 5.64397 14.1234 5.69544 14.1237 5.74919V5.98709ZM15.9593 10.7112L15.0831 11.3778C15.1836 12.0311 15.2343 12.6911 15.2345 13.3522V19.4109C15.2345 19.4218 15.2302 19.4322 15.2226 19.4399C15.215 19.4477 15.2047 19.4521 15.1939 19.4523H9.79711C9.78626 19.4522 9.77589 19.4479 9.76822 19.4402C9.76055 19.4325 9.7562 19.4222 9.7561 19.4113V15.4304L8.7787 16.1739V19.4117C8.7789 19.6815 8.88623 19.9402 9.0771 20.1309C9.26797 20.3217 9.52679 20.429 9.79672 20.4292H15.1946C15.4642 20.4282 15.7224 20.3207 15.9128 20.13C16.1032 19.9394 16.2103 19.6811 16.2107 19.4117V13.3522C16.2107 12.4659 16.1265 11.5816 15.9593 10.7112V10.7112ZM14.6454 6.91873C14.7869 6.80836 14.9016 6.66736 14.9808 6.50633C15.06 6.3453 15.1016 6.16843 15.1026 5.989V5.74766C15.102 5.43476 14.9773 5.13487 14.7558 4.91376C14.5342 4.69265 14.234 4.56836 13.9209 4.56816H11.07C10.7571 4.56857 10.4571 4.69302 10.2358 4.91421C10.0146 5.13541 9.89017 5.43528 9.88986 5.74804V5.98785H10.0167H9.88986C9.8907 6.16728 9.93222 6.34419 10.0113 6.50528C10.0903 6.66638 10.2049 6.80747 10.3464 6.91797C9.31872 8.90794 8.78114 11.1143 8.77832 13.3537V14.4539L9.75533 13.7103V13.3518C9.75797 11.1934 10.295 9.06915 11.3184 7.1685H13.6707C14.1378 8.03416 14.5053 8.94994 14.7661 9.89832L15.5998 9.26433C15.353 8.45567 15.0336 7.67099 14.6454 6.91988V6.91873ZM14.1237 5.98709C14.1235 6.04091 14.102 6.09247 14.064 6.13056C14.026 6.16866 13.9744 6.1902 13.9206 6.1905H11.0704C11.0166 6.1902 10.965 6.16872 10.927 6.13072C10.8889 6.09272 10.8673 6.04126 10.8669 5.98747V5.74919C10.8673 5.6954 10.8889 5.64394 10.927 5.60594C10.965 5.56794 11.0166 5.54646 11.0704 5.54616H13.9206C13.9743 5.54646 14.0258 5.56795 14.0639 5.60596C14.1019 5.64397 14.1234 5.69544 14.1237 5.74919V5.98709ZM14.6454 6.91873C14.7869 6.80836 14.9016 6.66736 14.9808 6.50633C15.06 6.3453 15.1016 6.16843 15.1026 5.989V5.74766C15.102 5.43476 14.9773 5.13487 14.7558 4.91376C14.5342 4.69265 14.234 4.56836 13.9209 4.56816H11.07C10.7571 4.56857 10.4571 4.69302 10.2358 4.91421C10.0146 5.13541 9.89017 5.43528 9.88986 5.74804V5.98785H10.0167H9.88986C9.8907 6.16728 9.93222 6.34419 10.0113 6.50528C10.0903 6.66638 10.2049 6.80747 10.3464 6.91797C9.31872 8.90794 8.78114 11.1143 8.77832 13.3537V14.4539L9.75533 13.7103V13.3518C9.75797 11.1934 10.295 9.06915 11.3184 7.1685H13.6707C14.1378 8.03416 14.5053 8.94994 14.7661 9.89832L15.5998 9.26433C15.353 8.45567 15.0336 7.67099 14.6454 6.91988V6.91873ZM14.1237 5.98709C14.1235 6.04091 14.102 6.09247 14.064 6.13056C14.026 6.16866 13.9744 6.1902 13.9206 6.1905H11.0704C11.0166 6.1902 10.965 6.16872 10.927 6.13072C10.8889 6.09272 10.8673 6.04126 10.8669 5.98747V5.74919C10.8673 5.6954 10.8889 5.64394 10.927 5.60594C10.965 5.56794 11.0166 5.54646 11.0704 5.54616H13.9206C13.9743 5.54646 14.0258 5.56795 14.0639 5.60596C14.1019 5.64397 14.1234 5.69544 14.1237 5.74919V5.98709ZM15.9593 10.7112L15.0831 11.3778C15.1836 12.0311 15.2343 12.6911 15.2345 13.3522V19.4109C15.2345 19.4218 15.2302 19.4322 15.2226 19.4399C15.215 19.4477 15.2047 19.4521 15.1939 19.4523H9.79711C9.78626 19.4522 9.77589 19.4479 9.76822 19.4402C9.76055 19.4325 9.7562 19.4222 9.7561 19.4113V15.4304L8.7787 16.1739V19.4117C8.7789 19.6815 8.88623 19.9402 9.0771 20.1309C9.26797 20.3217 9.52679 20.429 9.79672 20.4292H15.1946C15.4642 20.4282 15.7224 20.3207 15.9128 20.13C16.1032 19.9394 16.2103 19.6811 16.2107 19.4117V13.3522C16.2107 12.4659 16.1265 11.5816 15.9593 10.7112V10.7112ZM14.6454 6.91873C14.7869 6.80836 14.9016 6.66736 14.9808 6.50633C15.06 6.3453 15.1016 6.16843 15.1026 5.989V5.74766C15.102 5.43476 14.9773 5.13487 14.7558 4.91376C14.5342 4.69265 14.234 4.56836 13.9209 4.56816H11.07C10.7571 4.56857 10.4571 4.69302 10.2358 4.91421C10.0146 5.13541 9.89017 5.43528 9.88986 5.74804V5.98785H10.0167H9.88986C9.8907 6.16728 9.93222 6.34419 10.0113 6.50528C10.0903 6.66638 10.2049 6.80747 10.3464 6.91797C9.31872 8.90794 8.78114 11.1143 8.77832 13.3537V14.4539L9.75533 13.7103V13.3518C9.75797 11.1934 10.295 9.06915 11.3184 7.1685H13.6707C14.1378 8.03416 14.5053 8.94994 14.7661 9.89832L15.5998 9.26433C15.353 8.45567 15.0336 7.67099 14.6454 6.91988V6.91873ZM14.1237 5.98709C14.1235 6.04091 14.102 6.09247 14.064 6.13056C14.026 6.16866 13.9744 6.1902 13.9206 6.1905H11.0704C11.0166 6.1902 10.965 6.16872 10.927 6.13072C10.8889 6.09272 10.8673 6.04126 10.8669 5.98747V5.74919C10.8673 5.6954 10.8889 5.64394 10.927 5.60594C10.965 5.56794 11.0166 5.54646 11.0704 5.54616H13.9206C13.9743 5.54646 14.0258 5.56795 14.0639 5.60596C14.1019 5.64397 14.1234 5.69544 14.1237 5.74919V5.98709ZM14.6454 6.91873C14.7869 6.80836 14.9016 6.66736 14.9808 6.50633C15.06 6.3453 15.1016 6.16843 15.1026 5.989V5.74766C15.102 5.43476 14.9773 5.13487 14.7558 4.91376C14.5342 4.69265 14.234 4.56836 13.9209 4.56816H11.07C10.7571 4.56857 10.4571 4.69302 10.2358 4.91421C10.0146 5.13541 9.89017 5.43528 9.88986 5.74804V5.98785H10.0167H9.88986C9.8907 6.16728 9.93222 6.34419 10.0113 6.50528C10.0903 6.66638 10.2049 6.80747 10.3464 6.91797C9.31872 8.90794 8.78114 11.1143 8.77832 13.3537V14.4539L9.75533 13.7103V13.3518C9.75797 11.1934 10.295 9.06915 11.3184 7.1685H13.6707C14.1378 8.03416 14.5053 8.94994 14.7661 9.89832L15.5998 9.26433C15.353 8.45567 15.0336 7.67099 14.6454 6.91988V6.91873ZM14.1237 5.98709C14.1235 6.04091 14.102 6.09247 14.064 6.13056C14.026 6.16866 13.9744 6.1902 13.9206 6.1905H11.0704C11.0166 6.1902 10.965 6.16872 10.927 6.13072C10.8889 6.09272 10.8673 6.04126 10.8669 5.98747V5.74919C10.8673 5.6954 10.8889 5.64394 10.927 5.60594C10.965 5.56794 11.0166 5.54646 11.0704 5.54616H13.9206C13.9743 5.54646 14.0258 5.56795 14.0639 5.60596C14.1019 5.64397 14.1234 5.69544 14.1237 5.74919V5.98709ZM15.9593 10.7112L15.0831 11.3778C15.1836 12.0311 15.2343 12.6911 15.2345 13.3522V19.4109C15.2345 19.4218 15.2302 19.4322 15.2226 19.4399C15.215 19.4477 15.2047 19.4521 15.1939 19.4523H9.79711C9.78626 19.4522 9.77589 19.4479 9.76822 19.4402C9.76055 19.4325 9.7562 19.4222 9.7561 19.4113V15.4304L8.7787 16.1739V19.4117C8.7789 19.6815 8.88623 19.9402 9.0771 20.1309C9.26797 20.3217 9.52679 20.429 9.79672 20.4292H15.1946C15.4642 20.4282 15.7224 20.3207 15.9128 20.13C16.1032 19.9394 16.2103 19.6811 16.2107 19.4117V13.3522C16.2107 12.4659 16.1265 11.5816 15.9593 10.7112V10.7112ZM15.9593 10.7112L15.0831 11.3778C15.1836 12.0311 15.2343 12.6911 15.2345 13.3522V19.4109C15.2345 19.4218 15.2302 19.4322 15.2226 19.4399C15.215 19.4477 15.2047 19.4521 15.1939 19.4523H9.79711C9.78626 19.4522 9.77589 19.4479 9.76822 19.4402C9.76055 19.4325 9.7562 19.4222 9.7561 19.4113V15.4304L8.7787 16.1739V19.4117C8.7789 19.6815 8.88623 19.9402 9.0771 20.1309C9.26797 20.3217 9.52679 20.429 9.79672 20.4292H15.1946C15.4642 20.4282 15.7224 20.3207 15.9128 20.13C16.1032 19.9394 16.2103 19.6811 16.2107 19.4117V13.3522C16.2107 12.4659 16.1265 11.5816 15.9593 10.7112V10.7112ZM14.6454 6.91873C14.7869 6.80836 14.9016 6.66736 14.9808 6.50633C15.06 6.3453 15.1016 6.16843 15.1026 5.989V5.74766C15.102 5.43476 14.9773 5.13487 14.7558 4.91376C14.5342 4.69265 14.234 4.56836 13.9209 4.56816H11.07C10.7571 4.56857 10.4571 4.69302 10.2358 4.91421C10.0146 5.13541 9.89017 5.43528 9.88986 5.74804V5.98785H10.0167H9.88986C9.8907 6.16728 9.93222 6.34419 10.0113 6.50528C10.0903 6.66638 10.2049 6.80747 10.3464 6.91797C9.31872 8.90794 8.78114 11.1143 8.77832 13.3537V14.4539L9.75533 13.7103V13.3518C9.75797 11.1934 10.295 9.06915 11.3184 7.1685H13.6707C14.1378 8.03416 14.5053 8.94994 14.7661 9.89832L15.5998 9.26433C15.353 8.45567 15.0336 7.67099 14.6454 6.91988V6.91873ZM14.1237 5.98709C14.1235 6.04091 14.102 6.09247 14.064 6.13056C14.026 6.16866 13.9744 6.1902 13.9206 6.1905H11.0704C11.0166 6.1902 10.965 6.16872 10.927 6.13072C10.8889 6.09272 10.8673 6.04126 10.8669 5.98747V5.74919C10.8673 5.6954 10.8889 5.64394 10.927 5.60594C10.965 5.56794 11.0166 5.54646 11.0704 5.54616H13.9206C13.9743 5.54646 14.0258 5.56795 14.0639 5.60596C14.1019 5.64397 14.1234 5.69544 14.1237 5.74919V5.98709ZM22.1188 8.28977C21.2931 6.39957 19.927 4.79536 18.192 3.67865L18.1579 3.65682C16.4681 2.5742 14.503 1.99916 12.4959 2C12.4265 2 12.3575 2 12.2885 2.00192C9.52431 2.05913 6.89408 3.20305 4.96818 5.18562C3.04228 7.1682 1.97595 9.82961 2.00041 12.5928C2.02487 15.3559 3.13816 17.998 5.09886 19.9463C7.05956 21.8945 9.70962 22.9917 12.4744 23V23C13.2385 22.9998 14.0003 22.9168 14.7466 22.7525C16.2638 22.4201 17.6884 21.7555 18.9177 20.8065C20.1469 19.8576 21.1503 18.6479 21.8554 17.2646C22.5606 15.8814 22.9499 14.3591 22.9955 12.8073C23.041 11.2556 22.7416 9.71308 22.1188 8.29092V8.28977ZM4.63532 17.8855C3.94085 16.8746 3.45004 15.7382 3.19031 14.5397L3.17881 14.4884C2.65285 12.028 3.12265 9.45951 4.48558 7.34423C5.8485 5.22895 7.99374 3.73881 10.4525 3.19942C12.1431 2.83006 13.9022 2.92679 15.542 3.47926C17.1818 4.03174 18.6405 5.01919 19.7623 6.33607L16.7343 8.6468L16.7378 8.65102L14.0643 10.6859L9.7561 13.975V13.9628L8.77908 14.7063V14.7221L4.63532 17.8855ZM20.5254 17.6193L20.5182 17.6312C19.8465 18.6871 18.9718 19.5993 17.9447 20.3148C16.9176 21.0303 15.7587 21.5349 14.535 21.7994C12.845 22.1683 11.0864 22.0712 9.44732 21.5184C7.80826 20.9657 6.35033 19.9781 5.22942 18.6612L8.19993 16.3942L8.18498 16.3747L17.4518 9.326L17.4541 9.32907L20.3568 7.11257C21.4116 8.65498 21.9902 10.473 22.0206 12.341C22.0511 14.209 21.5321 16.0449 20.5281 17.6208L20.5254 17.6193ZM15.0827 11.3778C15.1833 12.0311 15.2339 12.6911 15.2341 13.3522V19.4109C15.2341 19.4218 15.2298 19.4322 15.2223 19.4399C15.2147 19.4477 15.2043 19.4521 15.1935 19.4523H9.79711C9.78626 19.4522 9.77589 19.4479 9.76822 19.4402C9.76055 19.4325 9.7562 19.4222 9.7561 19.4113V15.4304L8.7787 16.1739V19.4117C8.7789 19.6815 8.88623 19.9402 9.0771 20.1309C9.26797 20.3217 9.52679 20.429 9.79672 20.4292H15.1946C15.4642 20.4282 15.7224 20.3207 15.9128 20.13C16.1032 19.9394 16.2103 19.6811 16.2107 19.4117V13.3522C16.2103 12.4658 16.1257 11.5816 15.9581 10.7112L15.0827 11.3778ZM9.75495 13.3518C9.75759 11.1934 10.2946 9.06915 11.318 7.1685H13.6703C14.1374 8.03416 14.5049 8.94994 14.7657 9.89832L15.5994 9.26433C15.3524 8.45565 15.0327 7.67096 14.6442 6.91988C14.7858 6.80951 14.9004 6.66851 14.9796 6.50748C15.0588 6.34645 15.1005 6.16958 15.1015 5.99015V5.74881C15.1009 5.43591 14.9761 5.13602 14.7546 4.91491C14.5331 4.6938 14.2329 4.56951 13.9198 4.56931H11.07C10.7571 4.56972 10.4571 4.69417 10.2358 4.91536C10.0146 5.13656 9.89017 5.43643 9.88986 5.74919V5.989H10.0167H9.88986C9.89088 6.16824 9.93247 6.34492 10.0115 6.5058C10.0906 6.66668 10.2051 6.80759 10.3464 6.91797C9.31872 8.90794 8.78114 11.1143 8.77832 13.3537V14.4539L9.75533 13.7103L9.75495 13.3518ZM10.8665 5.74919C10.8669 5.6954 10.8885 5.64394 10.9266 5.60594C10.9647 5.56794 11.0162 5.54646 11.07 5.54616H13.9202C13.974 5.54646 14.0255 5.56795 14.0635 5.60596C14.1015 5.64397 14.123 5.69544 14.1233 5.74919V5.98823C14.1231 6.04206 14.1017 6.09362 14.0636 6.13171C14.0256 6.16981 13.974 6.19135 13.9202 6.19165H11.0704C11.0166 6.19135 10.965 6.16987 10.927 6.13187C10.8889 6.09387 10.8673 6.04241 10.8669 5.98862L10.8665 5.74919ZM14.645 6.91988C14.7865 6.80951 14.9012 6.66851 14.9804 6.50748C15.0596 6.34645 15.1013 6.16958 15.1022 5.99015V5.74881C15.1016 5.43591 14.9769 5.13602 14.7554 4.91491C14.5339 4.6938 14.2336 4.56951 13.9206 4.56931H11.07C10.7571 4.56972 10.4571 4.69417 10.2358 4.91536C10.0146 5.13656 9.89017 5.43643 9.88986 5.74919V5.989H10.0167H9.88986C9.89088 6.16824 9.93247 6.34492 10.0115 6.5058C10.0906 6.66668 10.2051 6.80759 10.3464 6.91797C9.31872 8.90794 8.78114 11.1143 8.77832 13.3537V14.4539L9.75533 13.7103V13.3518C9.75797 11.1934 10.295 9.06915 11.3184 7.1685H13.6707C14.1378 8.03416 14.5053 8.94994 14.7661 9.89832L15.5998 9.26433C15.353 8.45567 15.0336 7.67099 14.6454 6.91988H14.645ZM14.1233 5.98823C14.1231 6.04206 14.1017 6.09362 14.0636 6.13171C14.0256 6.16981 13.974 6.19135 13.9202 6.19165H11.0704C11.0166 6.19135 10.965 6.16987 10.927 6.13187C10.8889 6.09387 10.8673 6.04241 10.8669 5.98862V5.74919C10.8673 5.6954 10.8889 5.64394 10.927 5.60594C10.965 5.56794 11.0166 5.54646 11.0704 5.54616H13.9206C13.9743 5.54646 14.0258 5.56795 14.0639 5.60596C14.1019 5.64397 14.1234 5.69544 14.1237 5.74919L14.1233 5.98823ZM15.9593 10.7112L15.0831 11.3778C15.1836 12.0311 15.2343 12.6911 15.2345 13.3522V19.4109C15.2345 19.4218 15.2302 19.4322 15.2226 19.4399C15.215 19.4477 15.2047 19.4521 15.1939 19.4523H9.79711C9.78626 19.4522 9.77589 19.4479 9.76822 19.4402C9.76055 19.4325 9.7562 19.4222 9.7561 19.4113V15.4304L8.7787 16.1739V19.4117C8.7789 19.6815 8.88623 19.9402 9.0771 20.1309C9.26797 20.3217 9.52679 20.429 9.79672 20.4292H15.1946C15.4642 20.4282 15.7224 20.3207 15.9128 20.13C16.1032 19.9394 16.2103 19.6811 16.2107 19.4117V13.3522C16.2107 12.4659 16.1265 11.5816 15.9593 10.7112V10.7112ZM15.9593 10.7112L15.0831 11.3778C15.1836 12.0311 15.2343 12.6911 15.2345 13.3522V19.4109C15.2345 19.4218 15.2302 19.4322 15.2226 19.4399C15.215 19.4477 15.2047 19.4521 15.1939 19.4523H9.79711C9.78626 19.4522 9.77589 19.4479 9.76822 19.4402C9.76055 19.4325 9.7562 19.4222 9.7561 19.4113V15.4304L8.7787 16.1739V19.4117C8.7789 19.6815 8.88623 19.9402 9.0771 20.1309C9.26797 20.3217 9.52679 20.429 9.79672 20.4292H15.1946C15.4642 20.4282 15.7224 20.3207 15.9128 20.13C16.1032 19.9394 16.2103 19.6811 16.2107 19.4117V13.3522C16.2107 12.4659 16.1265 11.5816 15.9593 10.7112V10.7112ZM14.6454 6.91873C14.7869 6.80836 14.9016 6.66736 14.9808 6.50633C15.06 6.3453 15.1016 6.16843 15.1026 5.989V5.74766C15.102 5.43476 14.9773 5.13487 14.7558 4.91376C14.5342 4.69265 14.234 4.56836 13.9209 4.56816H11.07C10.7571 4.56857 10.4571 4.69302 10.2358 4.91421C10.0146 5.13541 9.89017 5.43528 9.88986 5.74804V5.98785H10.0167H9.88986C9.8907 6.16728 9.93222 6.34419 10.0113 6.50528C10.0903 6.66638 10.2049 6.80747 10.3464 6.91797C9.31872 8.90794 8.78114 11.1143 8.77832 13.3537V14.4539L9.75533 13.7103V13.3518C9.75797 11.1934 10.295 9.06915 11.3184 7.1685H13.6707C14.1378 8.03416 14.5053 8.94994 14.7661 9.89832L15.5998 9.26433C15.353 8.45567 15.0336 7.67099 14.6454 6.91988V6.91873ZM14.1237 5.98709C14.1235 6.04091 14.102 6.09247 14.064 6.13056C14.026 6.16866 13.9744 6.1902 13.9206 6.1905H11.0704C11.0166 6.1902 10.965 6.16872 10.927 6.13072C10.8889 6.09272 10.8673 6.04126 10.8669 5.98747V5.74919C10.8673 5.6954 10.8889 5.64394 10.927 5.60594C10.965 5.56794 11.0166 5.54646 11.0704 5.54616H13.9206C13.9743 5.54646 14.0258 5.56795 14.0639 5.60596C14.1019 5.64397 14.1234 5.69544 14.1237 5.74919V5.98709ZM14.6454 6.91873C14.7869 6.80836 14.9016 6.66736 14.9808 6.50633C15.06 6.3453 15.1016 6.16843 15.1026 5.989V5.74766C15.102 5.43476 14.9773 5.13487 14.7558 4.91376C14.5342 4.69265 14.234 4.56836 13.9209 4.56816H11.07C10.7571 4.56857 10.4571 4.69302 10.2358 4.91421C10.0146 5.13541 9.89017 5.43528 9.88986 5.74804V5.98785H10.0167H9.88986C9.8907 6.16728 9.93222 6.34419 10.0113 6.50528C10.0903 6.66638 10.2049 6.80747 10.3464 6.91797C9.31872 8.90794 8.78114 11.1143 8.77832 13.3537V14.4539L9.75533 13.7103V13.3518C9.75797 11.1934 10.295 9.06915 11.3184 7.1685H13.6707C14.1378 8.03416 14.5053 8.94994 14.7661 9.89832L15.5998 9.26433C15.353 8.45567 15.0336 7.67099 14.6454 6.91988V6.91873ZM14.1237 5.98709C14.1235 6.04091 14.102 6.09247 14.064 6.13056C14.026 6.16866 13.9744 6.1902 13.9206 6.1905H11.0704C11.0166 6.1902 10.965 6.16872 10.927 6.13072C10.8889 6.09272 10.8673 6.04126 10.8669 5.98747V5.74919C10.8673 5.6954 10.8889 5.64394 10.927 5.60594C10.965 5.56794 11.0166 5.54646 11.0704 5.54616H13.9206C13.9743 5.54646 14.0258 5.56795 14.0639 5.60596C14.1019 5.64397 14.1234 5.69544 14.1237 5.74919V5.98709ZM15.9593 10.7112L15.0831 11.3778C15.1836 12.0311 15.2343 12.6911 15.2345 13.3522V19.4109C15.2345 19.4218 15.2302 19.4322 15.2226 19.4399C15.215 19.4477 15.2047 19.4521 15.1939 19.4523H9.79711C9.78626 19.4522 9.77589 19.4479 9.76822 19.4402C9.76055 19.4325 9.7562 19.4222 9.7561 19.4113V15.4304L8.7787 16.1739V19.4117C8.7789 19.6815 8.88623 19.9402 9.0771 20.1309C9.26797 20.3217 9.52679 20.429 9.79672 20.4292H15.1946C15.4642 20.4282 15.7224 20.3207 15.9128 20.13C16.1032 19.9394 16.2103 19.6811 16.2107 19.4117V13.3522C16.2107 12.4659 16.1265 11.5816 15.9593 10.7112V10.7112ZM14.6454 6.91873C14.7869 6.80836 14.9016 6.66736 14.9808 6.50633C15.06 6.3453 15.1016 6.16843 15.1026 5.989V5.74766C15.102 5.43476 14.9773 5.13487 14.7558 4.91376C14.5342 4.69265 14.234 4.56836 13.9209 4.56816H11.07C10.7571 4.56857 10.4571 4.69302 10.2358 4.91421C10.0146 5.13541 9.89017 5.43528 9.88986 5.74804V5.98785H10.0167H9.88986C9.8907 6.16728 9.93222 6.34419 10.0113 6.50528C10.0903 6.66638 10.2049 6.80747 10.3464 6.91797C9.31872 8.90794 8.78114 11.1143 8.77832 13.3537V14.4539L9.75533 13.7103V13.3518C9.75797 11.1934 10.295 9.06915 11.3184 7.1685H13.6707C14.1378 8.03416 14.5053 8.94994 14.7661 9.89832L15.5998 9.26433C15.353 8.45567 15.0336 7.67099 14.6454 6.91988V6.91873ZM14.1237 5.98709C14.1235 6.04091 14.102 6.09247 14.064 6.13056C14.026 6.16866 13.9744 6.1902 13.9206 6.1905H11.0704C11.0166 6.1902 10.965 6.16872 10.927 6.13072C10.8889 6.09272 10.8673 6.04126 10.8669 5.98747V5.74919C10.8673 5.6954 10.8889 5.64394 10.927 5.60594C10.965 5.56794 11.0166 5.54646 11.0704 5.54616H13.9206C13.9743 5.54646 14.0258 5.56795 14.0639 5.60596C14.1019 5.64397 14.1234 5.69544 14.1237 5.74919V5.98709ZM14.6454 6.91873C14.7869 6.80836 14.9016 6.66736 14.9808 6.50633C15.06 6.3453 15.1016 6.16843 15.1026 5.989V5.74766C15.102 5.43476 14.9773 5.13487 14.7558 4.91376C14.5342 4.69265 14.234 4.56836 13.9209 4.56816H11.07C10.7571 4.56857 10.4571 4.69302 10.2358 4.91421C10.0146 5.13541 9.89017 5.43528 9.88986 5.74804V5.98785H10.0167H9.88986C9.8907 6.16728 9.93222 6.34419 10.0113 6.50528C10.0903 6.66638 10.2049 6.80747 10.3464 6.91797C9.31872 8.90794 8.78114 11.1143 8.77832 13.3537V14.4539L9.75533 13.7103V13.3518C9.75797 11.1934 10.295 9.06915 11.3184 7.1685H13.6707C14.1378 8.03416 14.5053 8.94994 14.7661 9.89832L15.5998 9.26433C15.353 8.45567 15.0336 7.67099 14.6454 6.91988V6.91873ZM14.1237 5.98709C14.1235 6.04091 14.102 6.09247 14.064 6.13056C14.026 6.16866 13.9744 6.1902 13.9206 6.1905H11.0704C11.0166 6.1902 10.965 6.16872 10.927 6.13072C10.8889 6.09272 10.8673 6.04126 10.8669 5.98747V5.74919C10.8673 5.6954 10.8889 5.64394 10.927 5.60594C10.965 5.56794 11.0166 5.54646 11.0704 5.54616H13.9206C13.9743 5.54646 14.0258 5.56795 14.0639 5.60596C14.1019 5.64397 14.1234 5.69544 14.1237 5.74919V5.98709ZM15.9593 10.7112L15.0831 11.3778C15.1836 12.0311 15.2343 12.6911 15.2345 13.3522V19.4109C15.2345 19.4218 15.2302 19.4322 15.2226 19.4399C15.215 19.4477 15.2047 19.4521 15.1939 19.4523H9.79711C9.78626 19.4522 9.77589 19.4479 9.76822 19.4402C9.76055 19.4325 9.7562 19.4222 9.7561 19.4113V15.4304L8.7787 16.1739V19.4117C8.7789 19.6815 8.88623 19.9402 9.0771 20.1309C9.26797 20.3217 9.52679 20.429 9.79672 20.4292H15.1946C15.4642 20.4282 15.7224 20.3207 15.9128 20.13C16.1032 19.9394 16.2103 19.6811 16.2107 19.4117V13.3522C16.2107 12.4659 16.1265 11.5816 15.9593 10.7112V10.7112ZM14.6454 6.91873C14.7869 6.80836 14.9016 6.66736 14.9808 6.50633C15.06 6.3453 15.1016 6.16843 15.1026 5.989V5.74766C15.102 5.43476 14.9773 5.13487 14.7558 4.91376C14.5342 4.69265 14.234 4.56836 13.9209 4.56816H11.07C10.7571 4.56857 10.4571 4.69302 10.2358 4.91421C10.0146 5.13541 9.89017 5.43528 9.88986 5.74804V5.98785H10.0167H9.88986C9.8907 6.16728 9.93222 6.34419 10.0113 6.50528C10.0903 6.66638 10.2049 6.80747 10.3464 6.91797C9.31872 8.90794 8.78114 11.1143 8.77832 13.3537V14.4539L9.75533 13.7103V13.3518C9.75797 11.1934 10.295 9.06915 11.3184 7.1685H13.6707C14.1378 8.03416 14.5053 8.94994 14.7661 9.89832L15.5998 9.26433C15.353 8.45567 15.0336 7.67099 14.6454 6.91988V6.91873ZM14.1237 5.98709C14.1235 6.04091 14.102 6.09247 14.064 6.13056C14.026 6.16866 13.9744 6.1902 13.9206 6.1905H11.0704C11.0166 6.1902 10.965 6.16872 10.927 6.13072C10.8889 6.09272 10.8673 6.04126 10.8669 5.98747V5.74919C10.8673 5.6954 10.8889 5.64394 10.927 5.60594C10.965 5.56794 11.0166 5.54646 11.0704 5.54616H13.9206C13.9743 5.54646 14.0258 5.56795 14.0639 5.60596C14.1019 5.64397 14.1234 5.69544 14.1237 5.74919V5.98709ZM15.9593 10.7112L15.0831 11.3778C15.1836 12.0311 15.2343 12.6911 15.2345 13.3522V19.4109C15.2345 19.4218 15.2302 19.4322 15.2226 19.4399C15.215 19.4477 15.2047 19.4521 15.1939 19.4523H9.79711C9.78626 19.4522 9.77589 19.4479 9.76822 19.4402C9.76055 19.4325 9.7562 19.4222 9.7561 19.4113V15.4304L8.7787 16.1739V19.4117C8.7789 19.6815 8.88623 19.9402 9.0771 20.1309C9.26797 20.3217 9.52679 20.429 9.79672 20.4292H15.1946C15.4642 20.4282 15.7224 20.3207 15.9128 20.13C16.1032 19.9394 16.2103 19.6811 16.2107 19.4117V13.3522C16.2107 12.4659 16.1265 11.5816 15.9593 10.7112V10.7112Z" fill="#F5F5F5"/>
</svg>
