<svg width="21" height="21" viewBox="0 0 21 21" fill="none" xmlns="http://www.w3.org/2000/svg">
<g clip-path="url(#clip0_1346_214)">
<path d="M14.6275 12.1013C14.6173 12.0033 14.5737 11.9117 14.504 11.842C14.4343 11.7723 14.3428 11.7287 14.2447 11.7184C14.1372 11.7053 14.0297 11.699 13.9241 11.6945C14.5147 10.8954 14.7674 9.89607 14.6275 8.91225C14.6173 8.81419 14.5737 8.72262 14.504 8.6529C14.4343 8.58319 14.3428 8.53957 14.2447 8.52935C14.1372 8.51624 14.0297 8.50987 13.9241 8.50537C14.5154 7.70565 14.7681 6.70521 14.6275 5.72054C14.6155 5.6243 14.5714 5.53493 14.5022 5.46693C14.4331 5.39893 14.343 5.35628 14.2466 5.34588C13.563 5.25699 12.868 5.34897 12.231 5.61264C12.2663 5.41951 12.285 5.22373 12.2868 5.02742C12.277 4.45648 12.1361 3.89545 11.875 3.38764C11.6139 2.87983 11.2396 2.43884 10.7811 2.09872C10.7046 2.03705 10.6093 2.00342 10.511 2.00342C10.4127 2.00342 10.3174 2.03705 10.2409 2.09872C9.78209 2.43858 9.40761 2.87952 9.1465 3.38738C8.88538 3.89525 8.74463 4.45641 8.73516 5.02742C8.73705 5.22373 8.75572 5.41951 8.79097 5.61264C8.1546 5.34918 7.46028 5.2572 6.77728 5.34588C6.71 5.35364 6.64549 5.37715 6.589 5.41452C6.53251 5.45189 6.48562 5.50205 6.45215 5.56094L7.24811 6.35708V6.18699C7.62443 6.17017 8.0002 6.23082 8.35212 6.36519C8.70405 6.49956 9.02463 6.70479 9.29402 6.96815C9.55508 7.2392 9.75879 7.56013 9.89298 7.91175C10.0272 8.26336 10.0891 8.63844 10.075 9.01453H9.9027L11.4302 10.5446C11.521 10.408 11.6248 10.2804 11.74 10.1636C12.0109 9.90244 12.3318 9.69865 12.6833 9.56442C13.0349 9.4302 13.4099 9.3683 13.7859 9.38245C13.8006 9.75831 13.7391 10.1333 13.6049 10.4847C13.4707 10.8361 13.2668 11.1566 13.0053 11.427C12.8837 11.5415 12.7511 11.6436 12.6094 11.7319L13.4709 12.5753C13.5769 12.57 13.6832 12.57 13.7893 12.5753C13.7893 12.6753 13.781 12.7754 13.7698 12.875L14.5249 13.6326C14.6574 13.1335 14.6922 12.6136 14.6275 12.1013V12.1013ZM9.61915 5.0203C9.6259 4.64416 9.70843 4.27325 9.8618 3.92975C10.0152 3.58624 10.2362 3.27721 10.5118 3.02113C10.7874 3.27716 11.0085 3.58618 11.1619 3.92969C11.3154 4.2732 11.398 4.64413 11.4047 5.0203C11.398 5.39648 11.3154 5.76741 11.1619 6.11092C11.0085 6.45443 10.7874 6.76344 10.5118 7.01948C10.2362 6.7634 10.0152 6.45436 9.8618 6.11086C9.70843 5.76736 9.6259 5.39644 9.61915 5.0203V5.0203ZM12.9989 8.233C12.7286 8.49507 12.4079 8.69946 12.0562 8.83374C11.7045 8.96803 11.3291 9.02941 10.953 9.01416C10.9322 8.63738 10.9911 8.26045 11.1258 7.90797C11.2605 7.55549 11.468 7.23539 11.7348 6.96856C12.0015 6.70173 12.3216 6.49418 12.674 6.35944C13.0264 6.2247 13.4032 6.16581 13.7799 6.18661C13.7942 6.56274 13.7324 6.93787 13.5982 7.28952C13.464 7.64116 13.2601 7.96207 12.9989 8.233V8.233Z" fill="#868686"/>
<path d="M6.77694 8.52782C6.67885 8.53817 6.58728 8.58188 6.51754 8.65164C6.44779 8.7214 6.4041 8.81298 6.39375 8.9111C6.25443 9.89494 6.5072 10.8941 7.09757 11.6933C6.99015 11.6893 6.88262 11.6972 6.77694 11.7169V11.7169C6.67868 11.7273 6.58698 11.7712 6.51721 11.8412C6.44745 11.9111 6.40386 12.003 6.39375 12.1013C6.30937 12.6671 6.35651 13.2448 6.53152 13.7894C6.70653 14.334 7.00469 14.831 7.40285 15.2417C7.74206 15.5786 8.14517 15.8443 8.5885 16.0231C9.03182 16.202 9.50641 16.2904 9.98439 16.2832H10.0297V17.4368C10.0297 17.5511 10.0751 17.6607 10.1559 17.7415C10.2367 17.8223 10.3462 17.8677 10.4605 17.8677C10.5747 17.8677 10.6843 17.8223 10.7651 17.7415C10.8458 17.6607 10.8912 17.5511 10.8912 17.4368V16.2728H10.9901C11.965 16.2898 12.9068 15.9189 13.6084 15.2417C13.752 15.097 13.8828 14.9401 13.999 14.7726L13.3686 14.1379C13.2643 14.3121 13.1394 14.4731 12.9967 14.6175C12.7255 14.8777 12.4048 15.0808 12.0537 15.215C11.7026 15.3491 11.3282 15.4114 10.9527 15.3983C10.9385 15.0222 11.0004 14.6471 11.1346 14.2955C11.2688 13.9439 11.4726 13.6229 11.7336 13.3519C11.8789 13.2084 12.0408 13.0826 12.2157 12.9773L11.4175 12.1762C11.2642 12.1976 11.1097 12.2084 10.9549 12.2085C10.9526 12.0522 10.962 11.8961 10.983 11.7413L6.48814 7.23975C6.60578 7.69748 6.81291 8.12737 7.09757 8.50459C6.99232 8.51096 6.88481 8.51508 6.77694 8.52782ZM9.28656 10.1568C9.5476 10.4279 9.7513 10.7488 9.88549 11.1004C10.0197 11.4521 10.0816 11.8271 10.0675 12.2032C9.69167 12.2161 9.31701 12.1537 8.96565 12.0195C8.61428 11.8853 8.29331 11.6822 8.02164 11.4221C7.75978 11.1516 7.55555 10.8307 7.42131 10.479C7.28706 10.1272 7.2256 9.75188 7.24066 9.37567C7.61699 9.36123 7.99236 9.42298 8.34425 9.55721C8.69614 9.69145 9.01729 9.8954 9.28844 10.1568H9.28656ZM9.28656 13.3459C9.54797 13.6168 9.75204 13.9377 9.88656 14.2893C10.0211 14.6409 10.0833 15.0161 10.0694 15.3923C9.6938 15.4047 9.31947 15.3421 8.96836 15.208C8.61724 15.074 8.29641 14.8712 8.02463 14.6115C7.76292 14.3409 7.55878 14.0201 7.42455 13.6684C7.29031 13.3166 7.22878 12.9413 7.24365 12.5651C7.61984 12.5495 7.99525 12.6108 8.347 12.7451C8.69875 12.8794 9.01946 13.0839 9.28956 13.3463L9.28656 13.3459Z" fill="#868686"/>
<path d="M10.5121 6.95765e-06C8.08235 -0.00278929 5.72685 0.837346 3.84709 2.37721C1.96732 3.91707 0.679651 6.06134 0.203559 8.44452C-0.272534 10.8277 0.0924248 13.3023 1.23622 15.4464C2.38003 17.5906 4.23187 19.2716 6.4761 20.203C8.72032 21.1344 11.218 21.2584 13.5434 20.554C15.8689 19.8495 17.8781 18.3603 19.2286 16.34C20.5791 14.3197 21.1873 11.8934 20.9496 9.47479C20.7119 7.05616 19.6429 4.79486 17.9248 3.07632C15.9594 1.10844 13.293 0.0018926 10.5121 6.95765e-06ZM10.5121 20.0513C8.66735 20.0533 6.86151 19.5209 5.31275 18.5185C3.76398 17.5161 2.53857 16.0865 1.78455 14.4026C1.03054 12.7186 0.78019 10.8522 1.06376 9.02898C1.34732 7.20575 2.15267 5.50366 3.38249 4.12836L3.57614 3.93691L17.0566 17.428L16.8648 17.6217C15.1186 19.1865 12.8565 20.0516 10.5121 20.0513ZM17.6825 16.7997L17.4933 16.9915L4.01701 3.50343L4.20842 3.31386C6.03221 1.71427 8.39612 0.868636 10.8204 0.948566C13.2448 1.0285 15.5479 2.028 17.2624 3.74425C18.9769 5.46049 19.9744 7.76491 20.0524 10.1898C20.1304 12.6148 19.2831 14.9786 17.6825 16.8015V16.7997Z" fill="#868686"/>
</g>
<defs>
<clipPath id="clip0_1346_214">
<rect width="21" height="21" fill="white"/>
</clipPath>
</defs>
</svg>
