<svg width="30" height="30" viewBox="0 0 30 30" fill="none" xmlns="http://www.w3.org/2000/svg">
<path d="M17.6097 14.8882L12.3467 20.1526C12.0755 20.4334 11.9255 20.8095 11.9289 21.1998C11.9323 21.5902 12.0888 21.9636 12.3649 22.2397C12.6409 22.5157 13.0143 22.6723 13.4047 22.6757C13.7951 22.6791 14.1711 22.529 14.4519 22.2578L20.769 15.9407C21.0481 15.6616 21.2049 15.2829 21.2049 14.8882C21.2049 14.4934 21.0481 14.1148 20.769 13.8356L14.4519 7.51852C14.1711 7.24732 13.7951 7.09725 13.4047 7.10065C13.0143 7.10404 12.6409 7.26062 12.3649 7.53665C12.0888 7.81269 11.9323 8.18611 11.9289 8.57647C11.9255 8.96683 12.0755 9.34291 12.3467 9.6237L17.6097 14.8882ZM14.8882 29.7763C6.66543 29.7763 0 23.1109 0 14.8882C0 6.66543 6.66543 0 14.8882 0C23.1109 0 29.7763 6.66543 29.7763 14.8882C29.7763 23.1109 23.1109 29.7763 14.8882 29.7763Z" fill="#F5F5F5"/>
</svg>
