<svg width="30" height="36" viewBox="0 0 30 36" fill="none" xmlns="http://www.w3.org/2000/svg">
<path d="M10.5971 30.9495C11.3047 31.0255 11.9796 31.0392 12.6294 31.1737C13.4432 31.3378 14.2435 31.5626 15.0236 31.8463C15.6111 32.0645 16.1424 32.4437 16.156 33.1779C16.1697 33.938 15.602 34.277 15.0274 34.5605C14.0507 35.0423 12.9859 35.2156 11.9165 35.3251C10.1046 35.5105 8.29492 35.4649 6.52022 35.021C5.87225 34.8632 5.2517 34.6088 4.6794 34.2663C3.75215 33.6986 3.75443 32.7759 4.63456 32.1382C5.49113 31.5188 6.50274 31.3219 7.51664 31.1699C8.1642 31.0726 8.81859 31.0278 9.51859 30.9541V30.5543C9.51859 28.0203 9.51099 25.4863 9.52695 22.9538C9.52695 22.5966 9.42283 22.3739 9.12869 22.1763C7.6086 21.1533 6.06724 20.1554 4.59352 19.0685C3.40405 18.1922 2.28527 17.2178 1.16117 16.2564C-0.000177656 15.2599 -0.169667 13.9671 0.12979 12.5489C0.455848 11.009 1.01296 9.54747 1.7008 8.14063C1.81936 7.89817 2.15682 7.6846 2.43348 7.61392C3.154 7.43379 3.89276 7.27038 4.63076 7.2339C6.7794 7.11381 8.93032 7.01044 11.0812 7.00056C13.0794 6.99144 15.0798 7.09101 17.0559 7.44139C17.2667 7.48101 17.4753 7.53175 17.6807 7.5934C18.0911 7.7112 18.3647 7.95138 18.5441 8.3656C19.1308 9.71011 19.6963 11.0622 19.96 12.5116C20.0579 13.0971 20.0973 13.6908 20.0779 14.284C20.0642 14.9217 19.688 15.4241 19.2859 15.8839C18.1983 17.1395 16.8773 18.1245 15.5298 19.07C14.031 20.1219 12.5109 21.1449 10.9916 22.1672C10.7005 22.3625 10.5865 22.5814 10.5887 22.9417C10.6055 25.4627 10.5971 27.9838 10.5971 30.5056V30.9495ZM10.0575 21.5098C10.4778 21.2058 10.8737 20.9192 11.2735 20.6403C12.7822 19.5983 14.3281 18.6064 15.7905 17.5036C16.7785 16.7618 17.6556 15.8779 18.5585 15.0312C18.9583 14.6557 19.0784 14.1465 19.0191 13.6C18.8519 12.0624 18.31 10.6396 17.74 9.28449C12.6419 10.0072 7.46732 10.0059 2.36963 9.28069C2.23587 9.60903 2.07626 9.96473 1.94401 10.3341C1.54803 11.4278 1.15965 12.5268 1.0958 13.7011C1.05476 14.4482 1.14217 14.566 1.8452 14.8115C3.39873 15.3527 5.02066 15.532 6.64791 15.6476C7.77125 15.7236 8.89916 15.7365 10.0255 15.7829C10.4056 15.7981 10.6077 16.0063 10.5956 16.3468C10.5956 16.4201 10.5802 16.4926 10.5502 16.5595C10.5203 16.6264 10.4765 16.6862 10.4218 16.735C10.3671 16.7838 10.3028 16.8205 10.2329 16.8427C10.163 16.8649 10.0892 16.872 10.0164 16.8636C8.18548 16.7595 6.35529 16.6508 4.52663 16.5155C3.94748 16.473 3.37517 16.3415 2.70709 16.2358C5.05638 18.2431 7.62761 19.7647 10.0575 21.5098ZM5.05714 33.3223C5.54129 33.5192 5.98667 33.7563 6.4617 33.8855C8.38233 34.4062 10.3379 34.4259 12.2958 34.1683C13.0497 34.0687 13.7855 33.8065 14.5197 33.5876C14.7294 33.5245 14.9065 33.3527 15.1817 33.1787C13.714 32.2454 12.1681 32.1853 10.5963 32.1382C10.6617 32.2803 10.7537 32.4095 10.8661 32.4316C11.1755 32.4909 11.4924 32.5076 11.8063 32.538C12.162 32.5737 12.3999 32.8139 12.3832 33.1202C12.3768 33.1994 12.354 33.2764 12.3164 33.3464C12.2787 33.4164 12.227 33.4778 12.1645 33.5269C12.102 33.5759 12.03 33.6115 11.953 33.6314C11.8761 33.6512 11.7958 33.655 11.7174 33.6423C11.2165 33.5815 10.7187 33.4903 10.2193 33.4181C10.1235 33.3996 10.0254 33.395 9.92825 33.4044C9.44183 33.4804 8.95768 33.5663 8.47049 33.6324C8.06083 33.6887 7.74465 33.4584 7.72869 33.1171C7.71349 32.788 7.9719 32.5661 8.38537 32.5334C8.68794 32.5158 8.98905 32.4784 9.28678 32.4217C9.38482 32.4004 9.45627 32.2568 9.60448 32.1017C8.03727 32.0728 5.44704 32.5524 5.05714 33.3223ZM4.23934 8.39828C8.10982 8.82202 12.015 8.82202 15.8855 8.39828C12.0141 7.99052 8.11067 7.99052 4.23934 8.39828Z" fill="#8C8C8C"/>
<rect x="14" width="16" height="16" rx="2.56" fill="#8C8C8C"/>
<path d="M23.1944 11.9262H21.9831L21.25 9.54625H18.9231L18.2113 11.9262H17L19.5287 4H20.6656L23.1944 11.9262ZM20.9419 8.49438L20.1025 5.68938L19.2525 8.49438H20.9419Z" fill="white"/>
<path d="M26.078 11.9262H24.9199V4H26.078V11.9262Z" fill="white"/>
</svg>
