<svg width="20" height="19" viewBox="0 0 20 19" fill="none" xmlns="http://www.w3.org/2000/svg">
<path d="M10.7667 0.47289L13.1953 5.36653C13.2567 5.49019 13.3475 5.59713 13.4597 5.67813C13.572 5.75913 13.7023 5.81175 13.8396 5.83147L19.2682 6.61597C19.426 6.63875 19.5743 6.70499 19.6962 6.80721C19.8182 6.90943 19.9089 7.04355 19.9582 7.19439C20.0075 7.34523 20.0133 7.50678 19.9751 7.66075C19.9368 7.81472 19.856 7.95497 19.7418 8.06564L15.8132 11.8748C15.714 11.9711 15.6398 12.0898 15.597 12.2209C15.5542 12.352 15.5441 12.4915 15.5675 12.6273L16.4937 18.0055C16.5207 18.1617 16.5032 18.3223 16.4433 18.4691C16.3833 18.6159 16.2833 18.7432 16.1544 18.8364C16.0256 18.9297 15.8731 18.9853 15.7142 18.9969C15.5552 19.0085 15.3962 18.9757 15.255 18.9021L10.3979 16.362C10.2752 16.2979 10.1387 16.2644 10.0002 16.2644C9.86165 16.2644 9.72518 16.2979 9.60255 16.362L4.74576 18.9021C4.60462 18.976 4.44549 19.0092 4.28639 18.9978C4.12728 18.9864 3.97456 18.931 3.84549 18.8378C3.71643 18.7446 3.61618 18.6173 3.55609 18.4703C3.496 18.3234 3.47848 18.1626 3.50549 18.0063L4.43167 12.6281C4.45514 12.4922 4.445 12.3527 4.40214 12.2216C4.35927 12.0905 4.28496 11.9718 4.18563 11.8756L0.258237 8.06564C0.144 7.95497 0.0631868 7.81472 0.0249385 7.66075C-0.0133098 7.50678 -0.00746598 7.34523 0.0418085 7.19439C0.091083 7.04355 0.181822 6.90943 0.303759 6.80721C0.425697 6.70499 0.573967 6.63875 0.731795 6.61597L6.16201 5.83147C6.29924 5.81169 6.42959 5.75904 6.54183 5.67804C6.65407 5.59705 6.74483 5.49015 6.8063 5.36653L9.23449 0.47289C9.3052 0.330904 9.41439 0.21139 9.54976 0.127833C9.68513 0.0442761 9.84128 0 10.0006 0C10.1599 0 10.3161 0.0442761 10.4514 0.127833C10.5868 0.21139 10.696 0.330904 10.7667 0.47289V0.47289Z" fill="#FFCB45"/>
</svg>
