<svg width="20" height="20" viewBox="0 0 20 20" fill="none" xmlns="http://www.w3.org/2000/svg">
<path d="M10.7667 0.97289L13.1953 5.86653C13.2567 5.99019 13.3475 6.09713 13.4597 6.17813C13.572 6.25913 13.7023 6.31175 13.8396 6.33147L19.2682 7.11597C19.426 7.13875 19.5743 7.20499 19.6962 7.30721C19.8182 7.40943 19.9089 7.54355 19.9582 7.69439C20.0075 7.84523 20.0133 8.00678 19.9751 8.16075C19.9368 8.31472 19.856 8.45497 19.7418 8.56564L15.8132 12.3748C15.714 12.4711 15.6398 12.5898 15.597 12.7209C15.5542 12.852 15.5441 12.9915 15.5675 13.1273L16.4937 18.5055C16.5207 18.6617 16.5032 18.8223 16.4433 18.9691C16.3833 19.1159 16.2833 19.2432 16.1544 19.3364C16.0256 19.4297 15.8731 19.4853 15.7142 19.4969C15.5552 19.5085 15.3962 19.4757 15.255 19.4021L10.3979 16.862C10.2752 16.7979 10.1387 16.7644 10.0002 16.7644C9.86165 16.7644 9.72518 16.7979 9.60255 16.862L4.74576 19.4021C4.60462 19.476 4.44549 19.5092 4.28639 19.4978C4.12728 19.4864 3.97456 19.431 3.84549 19.3378C3.71643 19.2446 3.61618 19.1173 3.55609 18.9703C3.496 18.8234 3.47848 18.6626 3.50549 18.5063L4.43167 13.1281C4.45514 12.9922 4.445 12.8527 4.40214 12.7216C4.35927 12.5905 4.28496 12.4718 4.18563 12.3756L0.258237 8.56564C0.144 8.45497 0.0631868 8.31472 0.0249385 8.16075C-0.0133098 8.00678 -0.00746598 7.84523 0.0418085 7.69439C0.091083 7.54355 0.181822 7.40943 0.303759 7.30721C0.425697 7.20499 0.573967 7.13875 0.731795 7.11597L6.16201 6.33147C6.29924 6.31169 6.42959 6.25904 6.54183 6.17804C6.65407 6.09705 6.74483 5.99015 6.8063 5.86653L9.23449 0.97289C9.3052 0.830904 9.41439 0.71139 9.54976 0.627833C9.68513 0.544276 9.84128 0.5 10.0006 0.5C10.1599 0.5 10.3161 0.544276 10.4514 0.627833C10.5868 0.71139 10.696 0.830904 10.7667 0.97289V0.97289Z" fill="#A0A0A0"/>
</svg>
