<svg width="25" height="25" viewBox="0 0 25 25" fill="none" xmlns="http://www.w3.org/2000/svg">
<circle cx="12.5" cy="12.5" r="12.5" fill="#8A4B53"/>
<path d="M11.4816 21.1806C11.4725 21.1808 11.4635 21.1802 11.4546 21.179C9.48167 21.0491 7.84941 20.2861 6.60647 18.9103C4.58029 16.6641 3.68952 12.8806 4.09627 8.25647C4.11303 8.05836 4.28106 7.89468 4.50038 7.92253C7.23189 8.07433 10.2248 9.59035 12.3125 11.8791C14.2131 13.961 15.1462 16.3987 14.943 18.7466C14.9347 18.8432 14.8864 18.9328 14.8087 18.9955C14.731 19.0583 14.6303 19.0891 14.5287 19.0812C14.4272 19.0732 14.3331 19.0272 14.2672 18.9533C14.2012 18.8793 14.1689 18.7835 14.1772 18.6868C14.3627 16.5377 13.4943 14.2899 11.7318 12.3576C9.87264 10.318 7.26017 8.93405 4.83019 8.68149C4.52406 12.8869 5.37504 16.4259 7.18651 18.4342C8.2897 19.6567 9.74374 20.3358 11.5052 20.4498C11.6066 20.4566 11.7011 20.5013 11.7679 20.5742C11.8348 20.6471 11.8686 20.7422 11.862 20.8388C11.8567 20.9313 11.8142 21.0184 11.7435 21.082C11.6727 21.1456 11.5789 21.1809 11.4816 21.1806Z" fill="#F5F5F5"/>
<path d="M13.4924 21.8269C13.4053 21.8268 13.3208 21.7984 13.2529 21.7465C13.185 21.6946 13.1377 21.6221 13.1189 21.5412C12.1936 17.6203 7.77423 12.5223 5.90062 10.8004C5.82736 10.7332 5.78515 10.641 5.78327 10.5442C5.78139 10.4474 5.81999 10.3538 5.89059 10.2841C5.96118 10.2144 6.05799 10.1742 6.1597 10.1724C6.26142 10.1706 6.35972 10.2074 6.43297 10.2746C8.35788 12.0469 12.9032 17.2998 13.8663 21.3803C13.8883 21.475 13.8702 21.5741 13.8159 21.6561C13.7616 21.7382 13.6755 21.7965 13.5762 21.8185C13.5487 21.8241 13.5206 21.8268 13.4924 21.8266V21.8269Z" fill="#F5F5F5"/>
<path d="M14.5994 17.9535C14.5043 17.9537 14.4125 17.9203 14.3418 17.8597C14.2711 17.7992 14.2266 17.7158 14.2168 17.6257C14.2071 17.5357 14.2328 17.4454 14.289 17.3724C14.3452 17.2994 14.428 17.2488 14.5211 17.2306C20.3001 16.0791 20.3392 8.58352 20.1403 5.76022C16.8028 6.10448 13.3226 8.5397 11.7521 11.6725C11.7062 11.7562 11.6279 11.8197 11.5338 11.8497C11.4398 11.8796 11.3371 11.8738 11.2475 11.8333C11.1579 11.7928 11.0882 11.7208 11.0531 11.6325C11.018 11.5442 11.0202 11.4464 11.0593 11.3596C12.8017 7.88184 16.76 5.20845 20.4711 5.00158C20.6753 4.98249 20.8594 5.13897 20.8755 5.33521C21.4934 12.3354 19.1752 17.0493 14.6776 17.946C14.6518 17.9506 14.6256 17.9531 14.5994 17.9535V17.9535Z" fill="#F5F5F5"/>
<path d="M13.4921 14.5404C13.4241 14.5408 13.3573 14.5236 13.2987 14.4906C13.211 14.4414 13.1473 14.361 13.1217 14.2671C13.0961 14.1732 13.1107 14.0735 13.1623 13.9899C14.927 11.1237 17.36 8.43464 18.5651 7.3236C18.6386 7.25632 18.7372 7.2196 18.8392 7.22151C18.9411 7.22341 19.0381 7.2638 19.1088 7.33377C19.1795 7.40374 19.2181 7.49757 19.2161 7.59462C19.2141 7.69167 19.1716 7.78399 19.0981 7.85126C17.9236 8.93132 15.5495 11.5565 13.8232 14.361C13.7887 14.4153 13.7402 14.4603 13.6822 14.4916C13.6242 14.5229 13.5587 14.5394 13.4921 14.5397V14.5404Z" fill="#F5F5F5"/>
</svg>
