<svg width="21" height="21" viewBox="0 0 21 21" fill="none" xmlns="http://www.w3.org/2000/svg">
<path d="M21 5.24577L17.2935 5.72478C19.2029 3.48214 20.1015 1.74029 20.1464 1.6532L20.4609 1.04355L19.787 1.21773C17.8326 1.71851 16.0564 3.13377 15.2269 3.85229L14.9349 1L14.4407 1.63142C13.2722 3.112 12.9356 4.6159 12.8682 5.41995C11.9456 4.96272 10.9364 4.8974 9.88057 5.24577C7.22988 6.1167 4.7589 9.44799 3.14153 12.0608C1.34445 14.9582 0.108557 17.8524 0.0191043 18.4403C-0.0482861 18.9193 0.0640313 19.3346 0.333593 19.5943C0.53416 19.7887 0.872717 19.8991 1.2562 19.8991C1.34664 19.9027 1.43718 19.8954 1.52576 19.8773C2.15474 19.7902 5.11992 18.5943 8.10756 16.8726C10.8256 15.305 14.2401 12.9099 15.1386 10.3407C15.4531 9.46977 15.4531 8.64238 15.1607 7.88032C17.3397 7.70614 19.8106 6.0296 19.923 5.96428L21 5.24577ZM14.4182 10.123C13.9465 11.4511 12.711 12.7575 11.2284 13.9115L9.38638 12.1261L8.84725 12.6486L10.6215 14.3687C9.97043 14.8477 9.29773 15.2832 8.64468 15.6969L7.94871 15.0219L7.40959 15.5445L7.99364 16.1106C7.90379 16.1541 7.81353 16.2194 7.72408 16.263C4.64658 18.0266 1.83865 19.0935 1.41184 19.1573C1.09735 19.2008 0.917644 19.1137 0.872717 19.0702C0.82779 19.0266 0.737936 18.8524 0.782863 18.5476C0.805326 18.3081 1.2546 17.1541 2.01835 15.6082L2.24299 15.826L2.78211 15.3034L2.37777 14.9131C2.78211 14.151 3.25385 13.3252 3.77051 12.4527C3.99514 12.0825 4.2647 11.6689 4.53266 11.2769L5.52266 12.2365L6.06178 11.714L4.96107 10.6471C5.63498 9.68905 6.37627 8.75281 7.18496 7.9472L9.38638 10.0794L9.9255 9.55686L7.72408 7.42309C8.48623 6.74812 9.29652 6.20379 10.1052 5.94251C10.4516 5.82474 10.8164 5.76581 11.1835 5.76833C12.0146 5.76833 12.7784 6.11825 13.5197 6.83521C14.553 7.815 14.8434 8.90366 14.4182 10.123ZM14.8675 7.29245C14.6669 6.94252 14.3957 6.61748 14.0588 6.29088C13.8755 6.1119 13.6804 5.94463 13.4747 5.7901C13.4972 5.28932 13.6544 4.04824 14.4631 2.69831L14.7327 5.22555L15.2028 4.74499C15.2253 4.72321 17.0448 2.89427 19.1789 2.06689C18.3306 3.43769 17.361 4.73445 16.2811 5.94251L15.7195 6.57393L18.2595 6.24889C17.316 6.7279 15.9906 7.27223 14.8675 7.294V7.29245Z" fill="#868686"/>
</svg>
