<svg width="21" height="21" viewBox="0 0 21 21" fill="none" xmlns="http://www.w3.org/2000/svg">
<g clip-path="url(#clip0_1346_213)">
<path d="M9.25624 20.1935C9.24509 20.1938 9.23393 20.1931 9.22289 20.1916C6.78197 20.0295 4.76253 19.0772 3.22475 17.3602C0.717937 14.5569 -0.384134 9.83512 0.1191 4.06418C0.139848 3.81694 0.347732 3.61266 0.61908 3.64743C3.99852 3.83686 7.70138 5.72887 10.2843 8.58524C12.6357 11.1834 13.7902 14.2257 13.5388 17.1559C13.5285 17.2765 13.4687 17.3883 13.3726 17.4666C13.2765 17.5449 13.1519 17.5833 13.0262 17.5735C12.9006 17.5636 12.7842 17.5062 12.7026 17.4139C12.6211 17.3216 12.581 17.2019 12.5913 17.0813C12.8208 14.3991 11.7464 11.5939 9.56583 9.18245C7.26568 6.63699 4.03351 4.90981 1.02712 4.5946C0.648371 9.84293 1.70122 14.2597 3.94238 16.7661C5.30726 18.2917 7.10621 19.1393 9.28553 19.2815C9.41099 19.29 9.52784 19.3459 9.61054 19.4368C9.69325 19.5278 9.73509 19.6465 9.72693 19.767C9.72036 19.8825 9.66786 19.9911 9.58027 20.0705C9.49268 20.1498 9.37669 20.1939 9.25624 20.1935Z" fill="#868686"/>
<path d="M11.7444 21C11.6366 20.9999 11.5321 20.9645 11.4481 20.8997C11.3641 20.8348 11.3056 20.7445 11.2823 20.6434C10.1375 15.7501 4.66986 9.38784 2.35181 7.23882C2.26117 7.15496 2.20895 7.03998 2.20662 6.91915C2.2043 6.79833 2.25206 6.68156 2.3394 6.59455C2.42674 6.50753 2.54651 6.45739 2.67235 6.45516C2.7982 6.45292 2.91981 6.49878 3.01045 6.58263C5.39196 8.79453 11.0154 15.3502 12.207 20.4427C12.2343 20.5608 12.2119 20.6845 12.1447 20.7869C12.0775 20.8893 11.9709 20.9621 11.8482 20.9895C11.8141 20.9965 11.7793 20.9999 11.7444 20.9996V21Z" fill="#868686"/>
<path d="M13.1134 16.1661C12.9958 16.1663 12.8822 16.1246 12.7948 16.049C12.7073 15.9734 12.6522 15.8694 12.6401 15.757C12.6281 15.6446 12.6599 15.5319 12.7295 15.4408C12.799 15.3497 12.9014 15.2866 13.0166 15.2638C20.1665 13.8268 20.2149 4.47225 19.9687 0.948757C15.8395 1.3784 11.5338 4.41757 9.5908 8.32736C9.53393 8.43179 9.43715 8.51103 9.32075 8.54843C9.20436 8.58583 9.0774 8.5785 8.96651 8.52797C8.85562 8.47744 8.76943 8.38764 8.72601 8.27742C8.68259 8.16719 8.68532 8.0451 8.73363 7.93677C10.8894 3.59655 15.7866 0.26015 20.378 0.00197116C20.6306 -0.0218547 20.8585 0.173439 20.8784 0.418338C21.6428 9.15463 18.7747 15.0377 13.2103 16.1567C13.1783 16.1625 13.1459 16.1656 13.1134 16.1661V16.1661Z" fill="#868686"/>
<path d="M11.7435 11.9065C11.6594 11.907 11.5767 11.8856 11.5043 11.8444C11.3957 11.783 11.3169 11.6826 11.2853 11.5655C11.2536 11.4483 11.2717 11.3239 11.3355 11.2195C13.5189 7.64248 16.5289 4.28655 18.0199 2.89996C18.1109 2.816 18.2328 2.77017 18.359 2.77255C18.4851 2.77493 18.6051 2.82533 18.6926 2.91265C18.78 2.99998 18.8278 3.11708 18.8253 3.2382C18.8228 3.35932 18.7703 3.47453 18.6794 3.55849C17.2262 4.90641 14.289 8.18267 12.1532 11.6827C12.1105 11.7505 12.0504 11.8066 11.9787 11.8456C11.907 11.8847 11.826 11.9054 11.7435 11.9058V11.9065Z" fill="#868686"/>
</g>
<defs>
<clipPath id="clip0_1346_213">
<rect width="21" height="21" fill="white"/>
</clipPath>
</defs>
</svg>
