<svg width="25" height="25" viewBox="0 0 25 25" fill="none" xmlns="http://www.w3.org/2000/svg">
<g clip-path="url(#clip0_740_389)">
<path d="M12.5 25C19.4036 25 25 19.4036 25 12.5C25 5.59644 19.4036 0 12.5 0C5.59644 0 0 5.59644 0 12.5C0 19.4036 5.59644 25 12.5 25Z" fill="#361037"/>
<path d="M11.4816 21.1801C11.4725 21.1803 11.4635 21.1797 11.4546 21.1785C9.48167 21.0486 7.84941 20.2856 6.60647 18.9098C4.58029 16.6636 3.68952 12.8801 4.09627 8.25599C4.11303 8.05788 4.28106 7.8942 4.50038 7.92205C7.23189 8.07385 10.2248 9.58987 12.3125 11.8786C14.2131 13.9605 15.1462 16.3982 14.943 18.7461C14.9347 18.8427 14.8864 18.9323 14.8087 18.995C14.731 19.0578 14.6303 19.0886 14.5287 19.0807C14.4272 19.0727 14.3331 19.0267 14.2672 18.9528C14.2012 18.8788 14.1689 18.783 14.1772 18.6863C14.3627 16.5372 13.4943 14.2894 11.7318 12.3571C9.87264 10.3175 7.26017 8.93357 4.83019 8.68101C4.52406 12.8864 5.37504 16.4254 7.18651 18.4337C8.2897 19.6562 9.74374 20.3353 11.5052 20.4493C11.6066 20.4561 11.7011 20.5008 11.7679 20.5737C11.8348 20.6466 11.8686 20.7417 11.862 20.8383C11.8567 20.9308 11.8142 21.0179 11.7435 21.0815C11.6727 21.1451 11.5789 21.1804 11.4816 21.1801Z" fill="#F5F5F5"/>
<path d="M13.4914 21.8264C13.4043 21.8263 13.3198 21.7979 13.2519 21.746C13.184 21.6941 13.1367 21.6216 13.1179 21.5407C12.1926 17.6198 7.77325 12.5218 5.89964 10.7999C5.82638 10.7327 5.78417 10.6405 5.78229 10.5437C5.78041 10.4469 5.81901 10.3533 5.88961 10.2836C5.9602 10.2139 6.05701 10.1737 6.15872 10.1719C6.26044 10.1701 6.35874 10.2069 6.432 10.2741C8.3569 12.0464 12.9022 17.2993 13.8653 21.3798C13.8873 21.4745 13.8692 21.5736 13.8149 21.6556C13.7606 21.7377 13.6745 21.796 13.5753 21.818C13.5477 21.8236 13.5196 21.8266 13.4914 21.8264Z" fill="#F5F5F5"/>
<path d="M14.5994 17.9535C14.5042 17.9537 14.4124 17.9203 14.3418 17.8597C14.2711 17.7992 14.2265 17.7158 14.2168 17.6257C14.2071 17.5357 14.2328 17.4454 14.289 17.3724C14.3452 17.2994 14.4279 17.2488 14.5211 17.2306C20.3001 16.0791 20.3392 8.58352 20.1403 5.76022C16.8028 6.10448 13.3225 8.5397 11.7521 11.6725C11.7061 11.7562 11.6279 11.8197 11.5338 11.8497C11.4398 11.8796 11.3371 11.8738 11.2475 11.8333C11.1579 11.7928 11.0882 11.7208 11.0531 11.6325C11.018 11.5442 11.0202 11.4464 11.0593 11.3596C12.8017 7.88184 16.76 5.20845 20.4711 5.00158C20.6753 4.98249 20.8594 5.13897 20.8755 5.33521C21.4934 12.3354 19.1752 17.0493 14.6776 17.946C14.6518 17.9506 14.6256 17.9531 14.5994 17.9535Z" fill="#F5F5F5"/>
<path d="M13.4911 14.5406C13.4231 14.541 13.3563 14.5238 13.2977 14.4908C13.21 14.4416 13.1463 14.3612 13.1207 14.2673C13.0951 14.1735 13.1097 14.0737 13.1613 13.9901C14.9261 11.1239 17.359 8.43488 18.5641 7.32384C18.6376 7.25657 18.7362 7.21984 18.8382 7.22175C18.9401 7.22366 19.0371 7.26404 19.1078 7.33401C19.1785 7.40399 19.2171 7.49782 19.2151 7.59487C19.2131 7.69192 19.1706 7.78423 19.0971 7.85151C17.9226 8.93157 15.5485 11.5568 13.8222 14.3613C13.7877 14.4156 13.7392 14.4605 13.6812 14.4918C13.6232 14.5231 13.5577 14.5403 13.4911 14.5406Z" fill="#F5F5F5"/>
</g>
<defs>
<clipPath id="clip0_740_389">
<rect width="25" height="25" fill="white"/>
</clipPath>
</defs>
</svg>
