<svg width="25" height="25" viewBox="0 0 25 25" fill="none" xmlns="http://www.w3.org/2000/svg">
<g clip-path="url(#clip0_740_365)">
<path d="M12.5 25C19.4036 25 25 19.4036 25 12.5C25 5.59644 19.4036 0 12.5 0C5.59644 0 0 5.59644 0 12.5C0 19.4036 5.59644 25 12.5 25Z" fill="#361037"/>
<path d="M11.9583 20.5017C9.2303 19.7848 7.51396 17.9038 6.41991 16.7047C6.309 16.5832 6.20448 16.4686 6.10596 16.363C3.829 13.9223 3.96178 10.0978 6.40253 7.82081C8.84328 5.54384 12.6677 5.67662 14.9447 8.11738C15.5333 8.74827 15.8387 9.182 16.011 9.56231C16.181 9.93764 16.231 10.2812 16.2726 10.7626C16.2795 10.8426 16.2861 10.9254 16.293 11.0117C16.3712 11.9893 16.4848 13.4081 17.4337 16.1321C17.5338 16.4195 17.7165 16.7684 17.9156 17.1227C18.0149 17.2995 18.1211 17.4825 18.2268 17.6647L18.2316 17.673C18.3393 17.8586 18.4466 18.0436 18.548 18.2243C18.7528 18.589 18.9253 18.9219 19.0252 19.1912C19.0753 19.3261 19.1018 19.4311 19.1092 19.5074C19.1146 19.5622 19.1086 19.5853 19.1072 19.59C18.9629 19.8047 18.6383 20.031 18.1305 20.2311C17.631 20.4279 16.9971 20.5826 16.2953 20.681C14.8891 20.878 13.256 20.8427 11.9583 20.5017Z" stroke="#F5F5F5" stroke-width="0.6"/>
<path d="M8.80088 6.16533L8.2793 4.39844" stroke="white" stroke-width="0.951616" stroke-linecap="round" stroke-linejoin="round"/>
<path fill-rule="evenodd" clip-rule="evenodd" d="M8.30176 4.42193C8.30176 4.42193 8.9608 2.22969 11.4021 2.43104C11.4021 2.43104 11.6827 4.42273 8.51848 4.8958" fill="white"/>
<path d="M7.53842 8.58691C5.60866 10.3872 5.50368 13.4109 7.30394 15.3407" stroke="white" stroke-width="0.6" stroke-linecap="round" stroke-linejoin="round"/>
</g>
<defs>
<clipPath id="clip0_740_365">
<rect width="25" height="25" fill="white"/>
</clipPath>
</defs>
</svg>
