<svg width="25" height="25" viewBox="0 0 25 25" fill="none" xmlns="http://www.w3.org/2000/svg">
<g clip-path="url(#clip0_740_378)">
<path d="M12.5 25C19.4036 25 25 19.4036 25 12.5C25 5.59644 19.4036 0 12.5 0C5.59644 0 0 5.59644 0 12.5C0 19.4036 5.59644 25 12.5 25Z" fill="#361037"/>
<path d="M16.6275 14.1018C16.6173 14.0038 16.5737 13.9122 16.504 13.8425C16.4343 13.7728 16.3428 13.7292 16.2447 13.7189C16.1372 13.7058 16.0297 13.6995 15.9241 13.695C16.5147 12.8959 16.7674 11.8966 16.6275 10.9128C16.6173 10.8147 16.5737 10.7231 16.504 10.6534C16.4343 10.5837 16.3428 10.5401 16.2447 10.5299C16.1372 10.5167 16.0297 10.5104 15.9241 10.5059C16.5154 9.70614 16.7681 8.7057 16.6275 7.72103C16.6155 7.62479 16.5714 7.53542 16.5022 7.46742C16.4331 7.39942 16.343 7.35677 16.2466 7.34637C15.563 7.25748 14.868 7.34946 14.231 7.61313C14.2663 7.42 14.285 7.22422 14.2868 7.02791C14.277 6.45697 14.1361 5.89594 13.875 5.38813C13.6139 4.88032 13.2396 4.43933 12.7811 4.09921C12.7046 4.03754 12.6093 4.00391 12.511 4.00391C12.4127 4.00391 12.3174 4.03754 12.2409 4.09921C11.7821 4.43907 11.4076 4.88001 11.1465 5.38787C10.8854 5.89574 10.7446 6.4569 10.7352 7.02791C10.7371 7.22422 10.7557 7.42 10.791 7.61313C10.1546 7.34967 9.46028 7.25769 8.77728 7.34637C8.71 7.35413 8.64549 7.37764 8.589 7.41501C8.53251 7.45238 8.48562 7.50254 8.45215 7.56143L9.24811 8.35757V8.18748C9.62443 8.17066 10.0002 8.23131 10.3521 8.36568C10.704 8.50005 11.0246 8.70528 11.294 8.96864C11.5551 9.23969 11.7588 9.56062 11.893 9.91224C12.0272 10.2639 12.0891 10.6389 12.075 11.015H11.9027L13.4302 12.5451C13.521 12.4085 13.6248 12.2809 13.74 12.1641C14.0109 11.9029 14.3318 11.6991 14.6833 11.5649C15.0349 11.4307 15.4099 11.3688 15.7859 11.3829C15.8006 11.7588 15.7391 12.1338 15.6049 12.4852C15.4707 12.8366 15.2668 13.1571 15.0053 13.4275C14.8837 13.542 14.7511 13.6441 14.6094 13.7324L15.4709 14.5758C15.5769 14.5705 15.6832 14.5705 15.7893 14.5758C15.7893 14.6758 15.781 14.7759 15.7698 14.8755L16.5249 15.6331C16.6574 15.134 16.6922 14.6141 16.6275 14.1018ZM11.6192 7.02079C11.6259 6.64465 11.7084 6.27374 11.8618 5.93024C12.0152 5.58673 12.2362 5.2777 12.5118 5.02162C12.7874 5.27765 13.0085 5.58667 13.1619 5.93018C13.3154 6.27369 13.398 6.64462 13.4047 7.02079C13.398 7.39697 13.3154 7.7679 13.1619 8.11141C13.0085 8.45492 12.7874 8.76393 12.5118 9.01997C12.2362 8.76389 12.0152 8.45485 11.8618 8.11135C11.7084 7.76785 11.6259 7.39693 11.6192 7.02079ZM14.9989 10.2335C14.7286 10.4956 14.4079 10.7 14.0562 10.8342C13.7045 10.9685 13.3291 11.0299 12.953 11.0147C12.9322 10.6379 12.9911 10.2609 13.1258 9.90846C13.2605 9.55598 13.468 9.23588 13.7348 8.96905C14.0015 8.70223 14.3216 8.49467 14.674 8.35993C15.0264 8.22519 15.4032 8.1663 15.7799 8.1871C15.7942 8.56323 15.7324 8.93836 15.5982 9.29001C15.464 9.64165 15.2601 9.96256 14.9989 10.2335Z" fill="#F5F5F5"/>
<path d="M8.77645 10.5283C8.67836 10.5387 8.58679 10.5824 8.51705 10.6521C8.4473 10.7219 8.40361 10.8135 8.39326 10.9116C8.25394 11.8954 8.50671 12.8946 9.09708 13.6938C8.98966 13.6898 8.88213 13.6977 8.77645 13.7174C8.67819 13.7278 8.58649 13.7717 8.51672 13.8417C8.44696 13.9116 8.40337 14.0035 8.39326 14.1018C8.30888 14.6676 8.35602 15.2453 8.53103 15.7899C8.70604 16.3345 9.0042 16.8315 9.40236 17.2422C9.74157 17.5791 10.1447 17.8448 10.588 18.0236C11.0313 18.2025 11.5059 18.2909 11.9839 18.2837H12.0292V19.4373C12.0292 19.5516 12.0746 19.6612 12.1554 19.742C12.2362 19.8228 12.3457 19.8682 12.46 19.8682C12.5742 19.8682 12.6838 19.8228 12.7646 19.742C12.8453 19.6612 12.8907 19.5516 12.8907 19.4373V18.2733H12.9896C13.9645 18.2903 14.9063 17.9194 15.6079 17.2422C15.7515 17.0975 15.8823 16.9406 15.9985 16.7731L15.3681 16.1384C15.2638 16.3126 15.1389 16.4736 14.9962 16.618C14.725 16.8782 14.4043 17.0813 14.0532 17.2155C13.7021 17.3496 13.3277 17.4119 12.9522 17.3988C12.938 17.0227 12.9999 16.6476 13.1341 16.296C13.2683 15.9444 13.4721 15.6234 13.7331 15.3524C13.8784 15.2089 14.0403 15.0831 14.2152 14.9778L13.417 14.1767C13.2637 14.1981 13.1092 14.2089 12.9544 14.209C12.9521 14.0527 12.9615 13.8966 12.9825 13.7418L8.48765 9.24023C8.60529 9.69796 8.81242 10.1279 9.09708 10.5051C8.99183 10.5115 8.88432 10.5156 8.77645 10.5283ZM11.2861 12.1573C11.5471 12.4284 11.7508 12.7493 11.885 13.1009C12.0192 13.4526 12.0811 13.8276 12.067 14.2037C11.6912 14.2166 11.3165 14.1542 10.9651 14.02C10.6138 13.8858 10.2928 13.6827 10.0211 13.4226C9.75929 13.1521 9.55506 12.8312 9.42082 12.4795C9.28657 12.1277 9.22511 11.7524 9.24017 11.3762C9.6165 11.3617 9.99187 11.4235 10.3438 11.5577C10.6956 11.6919 11.0168 11.8959 11.2879 12.1573H11.2861ZM11.2861 15.3464C11.5475 15.6173 11.7515 15.9382 11.8861 16.2898C12.0206 16.6414 12.0828 17.0166 12.0689 17.3928C11.6933 17.4052 11.319 17.3426 10.9679 17.2085C10.6167 17.0745 10.2959 16.8717 10.0241 16.612C9.76243 16.3414 9.55829 16.0206 9.42406 15.6689C9.28982 15.3171 9.22829 14.9418 9.24316 14.5656C9.61935 14.55 9.99476 14.6113 10.3465 14.7456C10.6983 14.8799 11.019 15.0844 11.2891 15.3468L11.2861 15.3464Z" fill="#F5F5F5"/>
<path d="M12.5121 2.00001C10.0824 1.99721 7.72685 2.83735 5.84709 4.37721C3.96732 5.91707 2.67965 8.06134 2.20356 10.4445C1.72747 12.8277 2.09242 15.3023 3.23623 17.4464C4.38003 19.5906 6.23187 21.2716 8.4761 22.203C10.7203 23.1344 13.218 23.2584 15.5434 22.554C17.8689 21.8495 19.8781 20.3603 21.2286 18.34C22.5791 16.3197 23.1873 13.8934 22.9496 11.4748C22.7119 9.05616 21.6429 6.79486 19.9248 5.07632C17.9594 3.10844 15.293 2.00189 12.5121 2.00001ZM12.5121 22.0513C10.6673 22.0533 8.86151 21.5209 7.31275 20.5185C5.76398 19.5161 4.53857 18.0865 3.78455 16.4026C3.03054 14.7186 2.78019 12.8522 3.06376 11.029C3.34732 9.20575 4.15267 7.50366 5.38249 6.12836L5.57614 5.93691L19.0566 19.428L18.8648 19.6217C17.1186 21.1865 14.8565 22.0516 12.5121 22.0513ZM19.6825 18.7997L19.4933 18.9915L6.01701 5.50343L6.20842 5.31386C8.03221 3.71427 10.3961 2.86864 12.8204 2.94857C15.2448 3.0285 17.5479 4.028 19.2624 5.74425C20.9769 7.46049 21.9744 9.76491 22.0524 12.1898C22.1304 14.6148 21.2831 16.9786 19.6825 18.8015V18.7997Z" fill="#F5F5F5"/>
</g>
<defs>
<clipPath id="clip0_740_378">
<rect width="25" height="25" fill="white"/>
</clipPath>
</defs>
</svg>
