<svg width="91" height="91" viewBox="0 0 91 91" fill="none" xmlns="http://www.w3.org/2000/svg">
<circle cx="45.5" cy="45.5" r="45" fill="#361037" stroke="white"/>
<path d="M65.271 28.6092C63.5892 24.5727 60.7693 21.1284 57.1641 18.7076C53.559 16.2868 49.3289 14.9971 45.0035 15H44.744C38.9532 15.0627 33.4208 17.4379 29.3493 21.6092C25.2777 25.7806 22.996 31.4111 23 37.277V59.5576H66.9999V37.2841C67.0061 34.3041 66.418 31.3534 65.271 28.6092ZM53.3468 17.2806C57.2311 18.9395 60.5458 21.7223 62.8759 25.2805C65.2059 28.8388 66.4478 33.0143 66.4458 37.2841V58.0656L54.1009 33.0603C55.6639 30.8663 56.4045 28.1801 56.1899 25.4832C55.9752 22.7862 54.8194 20.2549 52.9295 18.3428C52.5924 18.0015 52.2352 17.6812 51.8598 17.3837C51.2505 16.9028 50.5934 16.4873 49.8994 16.1439C51.0787 16.4217 52.2321 16.802 53.3468 17.2806ZM38.0384 30.6376L44.3126 36.9928H34.9101L38.0384 30.6376ZM38.3049 30.0976L44.4669 17.6394V36.3321L38.3049 30.0976ZM34.619 37.5576H44.4564V58.9785H24.0521L34.619 37.5576ZM53.5573 32.0195L45.6628 16.0337C47.439 16.1616 49.1518 16.7557 50.6325 17.7576C52.1132 18.7595 53.3108 20.1347 54.1074 21.7479C54.9041 23.361 55.2723 25.1565 55.1758 26.9575C55.0793 28.7586 54.5215 30.5031 53.5573 32.0195ZM45.4384 38.1402L55.2231 48.0301V48.1651C55.2235 50.8325 54.2104 53.3978 52.3939 55.329C50.5774 57.2603 48.0968 58.4094 45.4664 58.538L45.4384 38.1402ZM45.8382 37.7388C48.5121 37.5347 51.0249 36.3649 52.919 34.4422C53.1976 34.162 53.461 33.8667 53.7081 33.5577L65.6848 57.8204L45.8382 37.7388ZM53.1925 32.5417C52.8883 32.9568 52.5542 33.3487 52.193 33.714C50.3936 35.5424 47.9843 36.6232 45.4384 36.7442V16.8508L53.1925 32.5417ZM49.6118 58.5487C50.1945 58.2811 50.7531 57.9625 51.2812 57.5966L51.3653 57.5327L51.4285 57.4865L51.6389 57.3338C52.0874 56.9966 52.5106 56.6261 52.905 56.2254C54.8241 54.3003 55.9892 51.7357 56.1841 49.007L65.6041 58.5487H49.6118ZM25.2586 28.8294C26.8561 24.9981 29.507 21.7126 32.8957 19.3641C36.2843 17.0155 40.268 15.7029 44.3722 15.5826L33.7983 36.9928H23.5787C23.609 34.1869 24.1796 31.414 25.2586 28.8294ZM23.5752 37.5648H33.5178L23.5752 57.6997V37.5648Z" fill="white"/>
<path d="M29.1234 63.8382C29.5064 63.805 29.8918 63.811 30.2737 63.856L28.7832 69.9661C28.4067 70.0069 28.0269 70.0069 27.6504 69.9661L26.7351 66.6801C26.6811 66.4591 26.6413 66.2349 26.6158 66.0087H26.5842C26.5646 66.2352 26.527 66.4597 26.472 66.6801L25.5602 69.9661C25.2109 70.0113 24.8573 70.0113 24.5081 69.9661L23.021 63.8631C23.3704 63.8195 23.7238 63.8195 24.0732 63.8631L24.9394 67.8027C24.9958 68.0353 25.0368 68.2714 25.0622 68.5096H25.1043C25.1181 68.2623 25.1568 68.0171 25.22 67.7778L26.1143 64.4918C26.3142 64.4741 26.465 64.4634 26.5842 64.4634C26.745 64.4658 26.9054 64.4777 27.0647 64.4989L27.9485 67.7849C28.0122 68.0171 28.0533 68.255 28.0713 68.4954H28.1168C28.1168 68.3639 28.173 68.1188 28.2466 67.7636L29.1234 63.8382Z" fill="white"/>
<path d="M33.5458 63.8382V69.9412C33.206 69.9873 32.8616 69.9873 32.5218 69.9412V63.8382C32.8616 63.7921 33.206 63.7921 33.5458 63.8382Z" fill="white"/>
<path d="M40.1427 63.8453C40.462 63.792 40.7878 63.792 41.1071 63.8453V69.9412C40.8272 69.9874 40.5418 69.9874 40.2619 69.9412L37.4212 65.7636L37.3791 65.792C37.4098 65.9259 37.4239 66.0631 37.4212 66.2005V69.9412C37.103 69.9945 36.7784 69.9945 36.4602 69.9412V63.8453C36.733 63.7991 37.0115 63.7991 37.2844 63.8453L40.1321 68.0193L40.1847 67.9945C40.1542 67.8606 40.1401 67.7234 40.1427 67.586V63.8453Z" fill="white"/>
<path d="M47.7355 69.1028C47.7776 69.3807 47.7776 69.6634 47.7355 69.9412H44.0005V63.8382H47.6584C47.6969 64.1163 47.6969 64.3985 47.6584 64.6766H45.0175V65.9483C45.0196 66.0798 45.0054 66.2111 44.9754 66.3391L45.0175 66.3853H47.3076C47.3462 66.6621 47.3462 66.9432 47.3076 67.2201H45.0175V68.6694C45.0196 68.801 45.0054 68.9322 44.9754 69.0602L45.0175 69.1028H47.7355Z" fill="white"/>
<path d="M53.8203 69.5042C53.8589 69.6473 53.8589 69.7982 53.8203 69.9412H50.4816V63.8382C50.6504 63.792 50.8283 63.792 50.9971 63.8382V69.0673C50.9993 69.2 50.9852 69.3325 50.955 69.4616L50.9971 69.5042H53.8203Z" fill="white"/>
<path d="M58.3795 63.8417L60.4838 69.9661C60.2975 69.9944 60.1074 69.9823 59.9262 69.9305L59.2773 68.0549H56.9241L56.2753 69.9661C56.1036 70.0088 55.9243 70.0088 55.7527 69.9661L57.857 63.8631C58.0264 63.8104 58.2064 63.8031 58.3795 63.8417ZM57.0924 67.6286H59.1511L58.2498 65.0247C58.1982 64.8863 58.1583 64.7437 58.1305 64.5984H58.0884C58.0703 64.7439 58.0362 64.8869 57.9867 65.0247L57.0924 67.6286Z" fill="white"/>
<path d="M65.8707 66.8186C66.1826 66.8429 66.4743 66.9849 66.6878 67.2165C66.8832 67.4447 66.987 67.7387 66.9789 68.0407V68.5451C66.9889 68.7408 66.9542 68.9361 66.8775 69.116C66.8009 69.2959 66.6844 69.4555 66.537 69.5824C66.1688 69.8569 65.7165 69.9903 65.2604 69.9589H63.0194V63.8382H65.0009C65.4542 63.8034 65.9054 63.9289 66.2775 64.1934C66.424 64.3134 66.5406 64.4666 66.618 64.6406C66.6953 64.8146 66.7313 65.0046 66.7229 65.1952V65.7032C66.7304 65.9596 66.6498 66.2107 66.4949 66.4137C66.3387 66.6129 66.1173 66.749 65.8707 66.7973V66.8186ZM65.0009 64.2822H63.5385V66.2005C63.5412 66.3323 63.5259 66.4638 63.4929 66.5913L63.5385 66.6339H65.0009C65.3252 66.6606 65.6482 66.57 65.9127 66.3781C66.017 66.2738 66.0972 66.1474 66.1476 66.008C66.1979 65.8686 66.2171 65.7196 66.2038 65.5718V65.348C66.2171 65.2006 66.1978 65.0522 66.1475 64.9134C66.0971 64.7745 66.017 64.6487 65.9127 64.5451C65.6481 64.353 65.3258 64.26 65.0009 64.2822ZM66.4634 68.403V68.1899C66.4783 68.036 66.46 67.8807 66.4097 67.7347C66.3595 67.5887 66.2784 67.4555 66.1723 67.3444C65.91 67.1474 65.5858 67.054 65.2604 67.0815H63.5385V69.0851C63.5415 69.218 63.5262 69.3507 63.4929 69.4794L63.5385 69.522H65.2604C65.5852 69.549 65.9088 69.4569 66.1723 69.2627C66.2797 69.1481 66.3614 69.0112 66.4116 68.8616C66.4619 68.712 66.4795 68.5531 66.4634 68.3959V68.403Z" fill="white"/>
</svg>
