<svg width="107" height="15" viewBox="0 0 107 15" fill="none" xmlns="http://www.w3.org/2000/svg">
<path d="M14.8361 0.0838176C15.7674 0.00349831 16.7043 0.0179108 17.6328 0.126822L14.009 14.9178C13.0936 15.0166 12.1704 15.0166 11.255 14.9178L9.02954 6.96336C8.89845 6.42843 8.80162 5.88555 8.73965 5.33808H8.6629C8.61507 5.88631 8.52383 6.4298 8.39006 6.96336L6.17317 14.9178C5.32398 15.0274 4.46441 15.0274 3.61523 14.9178L0 0.144026C0.849449 0.0386759 1.7085 0.0386759 2.55795 0.144026L4.66399 9.68077C4.80114 10.2439 4.90083 10.8156 4.96241 11.3921H5.06473C5.0983 10.7934 5.19258 10.1998 5.3461 9.62057L7.52036 1.66611C8.00637 1.62312 8.373 1.59732 8.6629 1.59732C9.0536 1.6031 9.44364 1.63182 9.83103 1.68332L11.9797 9.63777C12.1346 10.1999 12.2346 10.7759 12.2781 11.3577H12.389C12.389 11.0395 12.5254 10.4461 12.7045 9.58618L14.8361 0.0838176Z" fill="white"/>
<path d="M25.588 0.0838176V14.8576C24.7618 14.9692 23.9245 14.9692 23.0982 14.8576V0.0838176C23.9245 -0.02777 24.7618 -0.02777 25.588 0.0838176Z" fill="white"/>
<path d="M41.6263 0.101021C42.4027 -0.0279549 43.1947 -0.0279549 43.9711 0.101021V14.8576C43.2906 14.9695 42.5967 14.9695 41.9162 14.8576L35.0097 4.7447L34.9074 4.8135C34.9821 5.13758 35.0165 5.46978 35.0097 5.80243V14.8576C34.2362 14.9866 33.447 14.9866 32.6735 14.8576V0.101021C33.3368 -0.0107532 34.0139 -0.0107532 34.6772 0.101021L41.6007 10.2053L41.7286 10.1451C41.6545 9.82097 41.6201 9.48883 41.6263 9.15621V0.101021Z" fill="white"/>
<path d="M60.0861 12.8282C60.1885 13.5007 60.1885 14.1851 60.0861 14.8576H51.0054V0.0838176H59.8985C59.9923 0.756998 59.9923 1.44011 59.8985 2.11329H53.4781V5.19189C53.4831 5.51026 53.4487 5.828 53.3758 6.1378L53.4781 6.2496H59.0459C59.1397 6.9199 59.1397 7.60017 59.0459 8.27047H53.4781V11.779C53.4831 12.0974 53.4487 12.4152 53.3758 12.725L53.4781 12.8282H60.0861Z" fill="white"/>
<path d="M74.8796 13.7999C74.9735 14.1461 74.9735 14.5114 74.8796 14.8576H66.7624V0.0838176C67.1728 -0.0279392 67.6053 -0.0279392 68.0158 0.0838176V12.7422C68.0212 13.0634 67.9868 13.384 67.9134 13.6967L68.0158 13.7999H74.8796Z" fill="white"/>
<path d="M85.964 0.0924241L91.0799 14.9178C90.6271 14.9864 90.165 14.957 89.7242 14.8318L88.1468 10.2913H82.4255L80.8481 14.9178C80.4309 15.0213 79.9949 15.0213 79.5777 14.9178L84.6936 0.144035C85.1056 0.0166191 85.5432 -0.00116999 85.964 0.0924241ZM82.8348 9.25941H87.8398L85.6485 2.95602C85.5232 2.62091 85.4262 2.27571 85.3586 1.9241H85.2563C85.2123 2.2763 85.1294 2.62243 85.0091 2.95602L82.8348 9.25941Z" fill="white"/>
<path d="M104.177 7.29872C104.935 7.35736 105.644 7.70108 106.163 8.26185C106.638 8.81424 106.891 9.52606 106.871 10.2569V11.478C106.895 11.9517 106.811 12.4246 106.625 12.8601C106.438 13.2956 106.155 13.6819 105.797 13.9891C104.902 14.6536 103.802 14.9766 102.693 14.9006H97.2445V0.0838176H102.062C103.164 -0.000439518 104.261 0.303488 105.166 0.943763C105.522 1.23422 105.805 1.60499 105.993 2.0262C106.182 2.44742 106.269 2.90731 106.248 3.36881V4.59851C106.267 5.21921 106.071 5.82707 105.694 6.3184C105.315 6.80078 104.776 7.13021 104.177 7.24713V7.29872ZM102.062 1.15875H98.5065V5.80243C98.5132 6.1214 98.4759 6.43976 98.3956 6.74836L98.5065 6.85156H102.062C102.85 6.91621 103.636 6.69683 104.279 6.2324C104.532 5.97991 104.727 5.67391 104.85 5.33639C104.972 4.99888 105.019 4.63823 104.987 4.28034V3.73857C105.019 3.38198 104.972 3.02265 104.85 2.68654C104.727 2.35042 104.532 2.04594 104.279 1.79511C103.636 1.32995 102.852 1.10497 102.062 1.15875ZM105.618 11.1341V10.6181C105.654 10.2456 105.609 9.86959 105.487 9.51617C105.365 9.16275 105.168 8.84038 104.91 8.57144C104.272 8.09461 103.484 7.86841 102.693 7.9351H98.5065V12.7852C98.514 13.107 98.4767 13.4283 98.3956 13.7397L98.5065 13.8429H102.693C103.483 13.9081 104.269 13.6854 104.91 13.2151C105.171 12.9377 105.37 12.6065 105.492 12.2442C105.614 11.882 105.657 11.4974 105.618 11.1169V11.1341Z" fill="white"/>
</svg>
