<svg width="23" height="23" viewBox="0 0 23 23" fill="none" xmlns="http://www.w3.org/2000/svg">
<path d="M12.7202 3.03324C10.2665 2.77777 8.78813 5.06925 8.92808 7.22078C9.03916 8.86692 9.35794 10.4686 9.6012 12.0914C9.89444 14.0375 9.52011 16.0046 8.86033 17.8385C8.52441 18.7482 8.13725 19.6383 7.7007 20.5043C7.56852 20.7709 7.42079 21.0485 7.30638 21.3351C7.14866 21.7305 6.92762 22.1126 7.02314 22.5392C7.1742 23.2201 8.06281 22.8235 8.45379 22.5803C10.5176 21.2974 14.9228 18.2028 15.7592 12.4313C16.5956 6.65985 15.1738 3.28427 12.7202 3.03324ZM10.2643 9.78551C9.39904 6.98863 10.2421 5.1259 10.2776 5.04815C10.3086 4.98128 10.3648 4.92943 10.434 4.90402C10.5031 4.87861 10.5795 4.88171 10.6464 4.91264C10.7133 4.94357 10.7651 4.9998 10.7905 5.06896C10.816 5.13812 10.8129 5.21454 10.7819 5.28141C10.7388 5.38468 10.7017 5.49038 10.6709 5.59797C10.5858 5.88456 10.5245 6.17769 10.4876 6.47436C10.3647 7.53374 10.4704 8.60715 10.7975 9.62223C10.8083 9.65702 10.8121 9.6936 10.8087 9.72987C10.8054 9.76614 10.7949 9.80139 10.7778 9.83359C10.7608 9.86579 10.7376 9.89431 10.7095 9.91751C10.6814 9.94071 10.649 9.95814 10.6142 9.96878C10.5877 9.97745 10.5599 9.98195 10.532 9.98211C10.4722 9.98257 10.4138 9.96367 10.3655 9.92824C10.3173 9.89282 10.2818 9.84275 10.2643 9.78551ZM11.184 12.4746C11.182 12.5469 11.1518 12.6156 11.1 12.666C11.0481 12.7164 10.9787 12.7446 10.9063 12.7446H10.8974C10.8239 12.7419 10.7543 12.7104 10.704 12.6567C10.6536 12.603 10.6265 12.5316 10.6286 12.458C10.6336 12.0659 10.6105 11.6739 10.5598 11.285C10.5496 11.2114 10.5691 11.1367 10.614 11.0774C10.6589 11.0182 10.7255 10.9792 10.7991 10.969C10.8728 10.9589 10.9475 10.9784 11.0067 11.0233C11.066 11.0681 11.105 11.1347 11.1152 11.2084C11.1696 11.6282 11.1926 12.0514 11.184 12.4746Z" fill="#EF1C27"/>
<path d="M12.9679 2.1226C12.6637 1.92876 12.3132 1.81984 11.9527 1.80715C11.9525 1.77207 11.9469 1.73723 11.936 1.70385C11.5995 0.30097 11.0885 -0.105565 10.4432 0.0221711C10.2644 0.0577152 10.1211 0.168791 10.1266 0.362062C10.1266 0.430928 10.1877 0.657522 10.2655 0.678626C10.3432 0.69973 10.4432 0.603095 10.4765 0.555333C10.8553 0.0777088 11.1518 0.855236 11.2696 1.13848C11.2918 1.19179 11.4262 1.59944 11.4917 1.86935C11.1229 1.99108 10.8084 2.23832 10.6031 2.56802C10.6031 2.56802 10.3099 3.01232 10.532 3.01232C10.7542 3.01232 11.2651 2.27145 13.0746 2.55024C13.0612 2.55469 13.5022 2.44361 12.9679 2.1226Z" fill="#00973A"/>
</svg>
