<svg width="25" height="25" viewBox="0 0 25 25" fill="none" xmlns="http://www.w3.org/2000/svg">
<circle cx="12.5" cy="12.5" r="12.5" fill="#8CC541"/>
<path d="M16.6275 14.1013C16.6173 14.0033 16.5737 13.9117 16.504 13.842C16.4343 13.7723 16.3428 13.7287 16.2447 13.7184C16.1372 13.7053 16.0297 13.699 15.9241 13.6945C16.5147 12.8954 16.7674 11.8961 16.6275 10.9123C16.6173 10.8142 16.5737 10.7226 16.504 10.6529C16.4343 10.5832 16.3428 10.5396 16.2447 10.5294C16.1372 10.5162 16.0297 10.5099 15.9241 10.5054C16.5154 9.70565 16.7681 8.70521 16.6275 7.72054C16.6155 7.6243 16.5714 7.53493 16.5022 7.46693C16.4331 7.39893 16.343 7.35628 16.2466 7.34588C15.563 7.25699 14.868 7.34897 14.231 7.61264C14.2663 7.41951 14.285 7.22373 14.2868 7.02742C14.277 6.45648 14.1361 5.89545 13.875 5.38764C13.6139 4.87983 13.2396 4.43884 12.7811 4.09872C12.7046 4.03705 12.6093 4.00342 12.511 4.00342C12.4127 4.00342 12.3174 4.03705 12.2409 4.09872C11.7821 4.43858 11.4076 4.87952 11.1465 5.38738C10.8854 5.89525 10.7446 6.45641 10.7352 7.02742C10.7371 7.22373 10.7557 7.41951 10.791 7.61264C10.1546 7.34918 9.46028 7.2572 8.77728 7.34588C8.71 7.35364 8.64549 7.37715 8.589 7.41452C8.53251 7.45189 8.48562 7.50205 8.45215 7.56094L9.24811 8.35708V8.18699C9.62443 8.17017 10.0002 8.23082 10.3521 8.36519C10.704 8.49956 11.0246 8.70479 11.294 8.96815C11.5551 9.2392 11.7588 9.56013 11.893 9.91175C12.0272 10.2634 12.0891 10.6384 12.075 11.0145H11.9027L13.4302 12.5446C13.521 12.408 13.6248 12.2804 13.74 12.1636C14.0109 11.9024 14.3318 11.6986 14.6833 11.5644C15.0349 11.4302 15.4099 11.3683 15.7859 11.3824C15.8006 11.7583 15.7391 12.1333 15.6049 12.4847C15.4707 12.8361 15.2668 13.1566 15.0053 13.427C14.8837 13.5415 14.7511 13.6436 14.6094 13.7319L15.4709 14.5753C15.5769 14.57 15.6832 14.57 15.7893 14.5753C15.7893 14.6753 15.781 14.7754 15.7698 14.875L16.5249 15.6326C16.6574 15.1335 16.6922 14.6136 16.6275 14.1013ZM11.6192 7.0203C11.6259 6.64416 11.7084 6.27325 11.8618 5.92975C12.0152 5.58624 12.2362 5.27721 12.5118 5.02113C12.7874 5.27716 13.0085 5.58618 13.1619 5.92969C13.3154 6.2732 13.398 6.64413 13.4047 7.0203C13.398 7.39648 13.3154 7.76741 13.1619 8.11092C13.0085 8.45443 12.7874 8.76344 12.5118 9.01948C12.2362 8.7634 12.0152 8.45436 11.8618 8.11086C11.7084 7.76736 11.6259 7.39644 11.6192 7.0203ZM14.9989 10.233C14.7286 10.4951 14.4079 10.6995 14.0562 10.8337C13.7045 10.968 13.3291 11.0294 12.953 11.0142C12.9322 10.6374 12.9911 10.2604 13.1258 9.90797C13.2605 9.55549 13.468 9.23539 13.7348 8.96856C14.0015 8.70174 14.3216 8.49418 14.674 8.35944C15.0264 8.2247 15.4032 8.16581 15.7799 8.18661C15.7942 8.56274 15.7324 8.93787 15.5982 9.28952C15.464 9.64116 15.2601 9.96207 14.9989 10.233Z" fill="#F5F5F5"/>
<path d="M8.77694 10.5278C8.67885 10.5382 8.58728 10.5819 8.51754 10.6516C8.44779 10.7214 8.4041 10.813 8.39375 10.9111C8.25443 11.8949 8.5072 12.8941 9.09757 13.6933C8.99015 13.6893 8.88262 13.6972 8.77694 13.7169C8.67868 13.7273 8.58698 13.7712 8.51721 13.8412C8.44745 13.9111 8.40386 14.003 8.39375 14.1013C8.30937 14.6671 8.35651 15.2448 8.53152 15.7894C8.70653 16.334 9.00469 16.831 9.40285 17.2417C9.74206 17.5786 10.1452 17.8443 10.5885 18.0231C11.0318 18.202 11.5064 18.2904 11.9844 18.2832H12.0297V19.4368C12.0297 19.5511 12.0751 19.6607 12.1559 19.7415C12.2367 19.8223 12.3462 19.8677 12.4605 19.8677C12.5747 19.8677 12.6843 19.8223 12.7651 19.7415C12.8458 19.6607 12.8912 19.5511 12.8912 19.4368V18.2728H12.9901C13.965 18.2898 14.9068 17.9189 15.6084 17.2417C15.752 17.097 15.8828 16.9401 15.999 16.7726L15.3686 16.1379C15.2643 16.3121 15.1394 16.4731 14.9967 16.6175C14.7255 16.8777 14.4048 17.0808 14.0537 17.215C13.7026 17.3491 13.3282 17.4114 12.9527 17.3983C12.9385 17.0222 13.0004 16.6471 13.1346 16.2955C13.2688 15.9439 13.4726 15.6229 13.7336 15.3519C13.8789 15.2084 14.0408 15.0826 14.2157 14.9773L13.4175 14.1762C13.2642 14.1976 13.1097 14.2084 12.9549 14.2085C12.9526 14.0522 12.962 13.8961 12.983 13.7413L8.48814 9.23975C8.60578 9.69748 8.81291 10.1274 9.09757 10.5046C8.99232 10.511 8.88481 10.5151 8.77694 10.5278ZM11.2866 12.1568C11.5476 12.4279 11.7513 12.7488 11.8855 13.1004C12.0197 13.4521 12.0816 13.8271 12.0675 14.2032C11.6917 14.2161 11.317 14.1537 10.9656 14.0195C10.6143 13.8853 10.2933 13.6822 10.0216 13.4221C9.75978 13.1516 9.55555 12.8307 9.42131 12.479C9.28706 12.1272 9.2256 11.7519 9.24066 11.3757C9.61699 11.3612 9.99236 11.423 10.3443 11.5572C10.6961 11.6914 11.0173 11.8954 11.2884 12.1568H11.2866ZM11.2866 15.3459C11.548 15.6168 11.752 15.9377 11.8866 16.2893C12.0211 16.6409 12.0833 17.0161 12.0694 17.3923C11.6938 17.4047 11.3195 17.3421 10.9684 17.208C10.6172 17.074 10.2964 16.8712 10.0246 16.6115C9.76292 16.3409 9.55878 16.0201 9.42455 15.6684C9.29031 15.3166 9.22878 14.9413 9.24365 14.5651C9.61984 14.5495 9.99525 14.6108 10.347 14.7451C10.6988 14.8794 11.0195 15.0839 11.2896 15.3463L11.2866 15.3459Z" fill="#F5F5F5"/>
<path d="M12.5121 2.00001C10.0824 1.99721 7.72685 2.83735 5.84709 4.37721C3.96732 5.91707 2.67965 8.06134 2.20356 10.4445C1.72747 12.8277 2.09242 15.3023 3.23623 17.4464C4.38003 19.5906 6.23187 21.2716 8.4761 22.203C10.7203 23.1344 13.218 23.2584 15.5434 22.554C17.8689 21.8495 19.8781 20.3603 21.2286 18.34C22.5791 16.3197 23.1873 13.8934 22.9496 11.4748C22.7119 9.05616 21.6429 6.79486 19.9248 5.07632C17.9594 3.10844 15.293 2.00189 12.5121 2.00001ZM12.5121 22.0513C10.6673 22.0533 8.86151 21.5209 7.31275 20.5185C5.76398 19.5161 4.53857 18.0865 3.78455 16.4026C3.03054 14.7186 2.78019 12.8522 3.06376 11.029C3.34732 9.20575 4.15267 7.50366 5.38249 6.12836L5.57614 5.93691L19.0566 19.428L18.8648 19.6217C17.1186 21.1865 14.8565 22.0516 12.5121 22.0513ZM19.6825 18.7997L19.4933 18.9915L6.01701 5.50343L6.20842 5.31386C8.03221 3.71427 10.3961 2.86864 12.8204 2.94857C15.2448 3.0285 17.5479 4.028 19.2624 5.74425C20.9769 7.46049 21.9744 9.76491 22.0524 12.1898C22.1304 14.6148 21.2831 16.9786 19.6825 18.8015V18.7997Z" fill="#F5F5F5"/>
</svg>
