<svg width="25" height="25" viewBox="0 0 25 25" fill="none" xmlns="http://www.w3.org/2000/svg">
<circle cx="12.5" cy="12.5" r="12.5" fill="#8CC541"/>
<path d="M11.4816 21.1806C11.4725 21.1808 11.4635 21.1802 11.4546 21.179C9.48167 21.0491 7.84941 20.2861 6.60647 18.9103C4.58029 16.6641 3.68952 12.8806 4.09627 8.25647C4.11303 8.05836 4.28106 7.89468 4.50038 7.92253C7.23189 8.07433 10.2248 9.59035 12.3125 11.8791C14.2131 13.961 15.1462 16.3987 14.943 18.7466C14.9347 18.8432 14.8864 18.9328 14.8087 18.9955C14.731 19.0583 14.6303 19.0891 14.5287 19.0812C14.4272 19.0732 14.3331 19.0272 14.2672 18.9533C14.2012 18.8793 14.1689 18.7835 14.1772 18.6868C14.3627 16.5377 13.4943 14.2899 11.7318 12.3576C9.87264 10.318 7.26017 8.93405 4.83019 8.68149C4.52406 12.8869 5.37504 16.4259 7.18651 18.4342C8.2897 19.6567 9.74374 20.3358 11.5052 20.4498C11.6066 20.4566 11.7011 20.5013 11.7679 20.5742C11.8348 20.6471 11.8686 20.7422 11.862 20.8388C11.8567 20.9313 11.8142 21.0184 11.7435 21.082C11.6727 21.1456 11.5789 21.1809 11.4816 21.1806Z" fill="#F5F5F5"/>
<path d="M13.4919 21.8269C13.4048 21.8268 13.3203 21.7984 13.2524 21.7465C13.1845 21.6946 13.1372 21.6221 13.1184 21.5412C12.1931 17.6203 7.77374 12.5223 5.90013 10.8004C5.82687 10.7332 5.78466 10.641 5.78278 10.5442C5.7809 10.4474 5.8195 10.3538 5.8901 10.2841C5.96069 10.2144 6.0575 10.1742 6.15921 10.1724C6.26093 10.1706 6.35923 10.2074 6.43249 10.2746C8.35739 12.0469 12.9027 17.2998 13.8658 21.3803C13.8878 21.475 13.8697 21.5741 13.8154 21.6561C13.7611 21.7382 13.675 21.7965 13.5758 21.8185C13.5482 21.8241 13.5201 21.8268 13.4919 21.8266V21.8269Z" fill="#F5F5F5"/>
<path d="M14.5999 17.9535C14.5047 17.9537 14.4129 17.9203 14.3423 17.8597C14.2716 17.7992 14.227 17.7158 14.2173 17.6257C14.2076 17.5357 14.2333 17.4454 14.2895 17.3724C14.3457 17.2994 14.4284 17.2488 14.5216 17.2306C20.3006 16.0791 20.3397 8.58352 20.1408 5.76022C16.8033 6.10448 13.323 8.5397 11.7526 11.6725C11.7066 11.7562 11.6284 11.8197 11.5343 11.8497C11.4403 11.8796 11.3376 11.8738 11.248 11.8333C11.1584 11.7928 11.0887 11.7208 11.0536 11.6325C11.0185 11.5442 11.0207 11.4464 11.0598 11.3596C12.8022 7.88184 16.7605 5.20845 20.4716 5.00158C20.6758 4.98249 20.8599 5.13897 20.876 5.33521C21.4939 12.3354 19.1757 17.0493 14.6781 17.946C14.6523 17.9506 14.6261 17.9531 14.5999 17.9535Z" fill="#F5F5F5"/>
<path d="M13.4916 14.5406C13.4236 14.541 13.3568 14.5238 13.2982 14.4908C13.2105 14.4416 13.1468 14.3612 13.1212 14.2673C13.0956 14.1735 13.1102 14.0737 13.1618 13.9901C14.9266 11.1239 17.3595 8.43488 18.5646 7.32384C18.6381 7.25657 18.7367 7.21984 18.8387 7.22175C18.9406 7.22366 19.0376 7.26404 19.1083 7.33401C19.179 7.40399 19.2176 7.49782 19.2156 7.59487C19.2136 7.69192 19.1711 7.78423 19.0976 7.85151C17.9231 8.93157 15.549 11.5568 13.8227 14.3613C13.7882 14.4156 13.7397 14.4605 13.6817 14.4918C13.6237 14.5231 13.5582 14.5397 13.4916 14.54V14.5406Z" fill="#F5F5F5"/>
</svg>
