<svg width="25" height="25" viewBox="0 0 25 25" fill="none" xmlns="http://www.w3.org/2000/svg">
<circle cx="12.5" cy="12.5" r="12.5" fill="#8CC541"/>
<path d="M19.1642 10.0067L18.9988 9.92645L18.8389 10.017L14.9927 12.1955L14.455 12.5L14.9927 12.8045L18.8389 14.983L18.9988 15.0736L19.1642 14.9933L21.6608 13.7821L22.5275 15.5011L20.1978 16.6308L19.9858 16.7336L20.0013 16.9687L20.1686 19.5119L18.207 19.636L18.0279 16.9196L18.0155 16.7312L17.8512 16.6381L14.0049 14.4596L13.4825 14.1637V14.7642V19.1211V19.3104L13.6409 19.414L15.9479 20.9226L14.8627 22.5189L12.6913 21.0991L12.4997 20.9739L12.3082 21.0991L10.1368 22.5189L9.05158 20.9226L11.3586 19.414L11.517 19.3104V19.1211V14.7642V14.1638L10.9945 14.4596L7.14776 16.6381L6.98338 16.7312L6.97099 16.9197L6.79239 19.636L4.83135 19.5119L4.99817 16.9687L5.01359 16.7336L4.80166 16.6309L2.47248 15.5011L3.33872 13.7822L5.83472 14.9933L6.00006 15.0736L6.15998 14.983L10.0068 12.8046L10.5446 12.5L10.0068 12.1954L6.15998 10.017L6.00006 9.92644L5.83472 10.0067L3.33872 11.2178L2.47248 9.49885L4.80166 8.36915L5.01359 8.26636L4.99817 8.03132L4.83135 5.48812L6.79239 5.36397L6.97099 8.08033L6.98338 8.26884L7.14776 8.36193L10.9945 10.5404L11.517 10.8362V10.2358V5.87893V5.68962L11.3586 5.58601L9.05158 4.07739L10.1368 2.48107L12.3082 3.90088L12.4997 4.02612L12.6913 3.90088L14.8627 2.48107L15.9479 4.07739L13.6409 5.58601L13.4825 5.68962V5.87893V10.2358V10.8363L14.0049 10.5404L17.8512 8.36191L18.0155 8.26884L18.0279 8.08039L18.207 5.36396L20.1686 5.48812L20.0013 8.03126L19.9858 8.26636L20.1978 8.36916L22.5275 9.49885L21.6608 11.2179L19.1642 10.0067Z" fill="white" stroke="#8CC541" stroke-width="0.7"/>
</svg>
