<svg width="91" height="91" viewBox="0 0 91 91" fill="none" xmlns="http://www.w3.org/2000/svg">
<circle cx="45.5" cy="45.5" r="45" fill="#1A1A1A" stroke="white"/>
<path d="M24.1191 56.628V35.1519H24.7943V56.0284H35.4751V56.628H24.1191Z" fill="#95C11F"/>
<path d="M48.6986 53.4812C48.6986 54.0052 48.7229 54.5683 48.7741 55.1654C48.8253 55.7626 48.8814 56.2525 48.9423 56.6279H48.3037C48.2577 56.3864 48.2276 56.1421 48.2135 55.8966C48.194 55.6042 48.1672 55.3019 48.138 54.9875C48.1087 54.6731 48.0868 54.3635 48.077 54.0613C48.0673 53.759 48.0624 53.5055 48.0624 53.3032H47.9698C47.6433 54.4737 46.8982 55.4834 45.876 56.1404C44.9239 56.7461 43.8187 57.0674 42.6903 57.0666C42.1202 57.0654 41.5531 56.9834 41.0061 56.8229C40.4669 56.6682 39.9588 56.4207 39.5046 56.0916C39.0557 55.7645 38.6873 55.3394 38.4273 54.8486C38.143 54.2951 38.0022 53.6791 38.0178 53.057C38.0178 52.0675 38.2753 51.2688 38.7904 50.6611C39.3151 50.0477 39.9751 49.5645 40.7184 49.2498C41.5048 48.907 42.3378 48.6827 43.19 48.5844C43.9909 48.4889 44.7965 48.4384 45.603 48.4333H48.0405V47.3096C48.0405 45.7529 47.6261 44.6154 46.7974 43.8972C45.9686 43.179 44.8864 42.8199 43.5507 42.8199C42.7538 42.8133 41.9638 42.9675 41.2279 43.2732C40.5231 43.5704 39.8725 43.9822 39.3023 44.4919L38.9367 43.9776C39.5796 43.4128 40.3241 42.9752 41.1304 42.6882C41.903 42.4021 42.7195 42.2528 43.5434 42.2471C45.1391 42.2471 46.3985 42.6533 47.3214 43.4658C48.2444 44.2783 48.7042 45.5685 48.701 47.3364L48.6986 53.4812ZM48.0307 49.0182H45.876C45.0617 49.0207 44.2481 49.0663 43.4386 49.1547C42.6383 49.2355 41.8527 49.4249 41.1036 49.7178C40.4311 49.9756 39.832 50.394 39.3584 50.9365C38.9017 51.463 38.6743 52.1706 38.6759 53.0595C38.6547 53.6246 38.7851 54.1851 39.0537 54.6828C39.293 55.103 39.6268 55.4618 40.0286 55.7309C40.4268 55.9965 40.868 56.1911 41.3327 56.3061C41.7734 56.4233 42.227 56.4848 42.683 56.4889C43.5817 56.5175 44.4725 56.3135 45.2691 55.8966C45.9254 55.5422 46.4916 55.0419 46.9241 54.4342C47.3378 53.8387 47.6309 53.168 47.787 52.4599C47.9469 51.7684 48.0286 51.0612 48.0307 50.3515V49.0182Z" fill="white"/>
<path d="M55.4357 46.4712C55.9297 45.2154 56.7934 44.1392 57.9123 43.385C59.0313 42.6307 60.353 42.2339 61.7023 42.2472C62.675 42.2365 63.6394 42.4273 64.5346 42.8078C65.3687 43.1676 66.1202 43.6943 66.7429 44.3555C67.3717 45.0352 67.8559 45.8354 68.1664 46.7076C68.5073 47.6616 68.6765 48.6683 68.6661 49.6813C68.6754 50.6796 68.501 51.671 68.1518 52.6062C67.8294 53.471 67.3409 54.2643 66.7137 54.9413C66.0913 55.604 65.3387 56.131 64.5029 56.489C63.6188 56.8697 62.6649 57.0615 61.7023 57.0521C61.0429 57.0518 60.3866 56.9599 59.7524 56.7791C59.1251 56.6003 58.5279 56.3292 57.9804 55.9747C57.4266 55.6122 56.9275 55.1723 56.4984 54.6683C56.0411 54.1345 55.6821 53.5238 55.4382 52.8646H55.3455V56.628H54.6484V35.125H55.3455V46.4712H55.4357ZM67.9982 49.6862C68.0018 48.7982 67.8534 47.9161 67.5595 47.0781C67.2839 46.2734 66.857 45.5288 66.3018 44.8845C65.7514 44.2531 65.0768 43.742 64.3201 43.383C63.5068 43.0163 62.6253 42.8254 61.7332 42.8229C60.841 42.8204 59.9584 43.0063 59.143 43.3684C58.3819 43.718 57.6976 44.2151 57.1297 44.8308C56.5541 45.4651 56.1027 46.2018 55.7989 47.0026C55.1521 48.703 55.1521 50.5817 55.7989 52.282C56.1026 53.0822 56.554 53.8181 57.1297 54.4513C57.6976 55.0671 58.3819 55.5642 59.143 55.9138C59.9453 56.2828 60.8194 56.4692 61.7023 56.4598C62.6045 56.4732 63.4985 56.2868 64.3201 55.9138C65.0749 55.5689 65.7497 55.0709 66.3018 54.4513C66.8579 53.8168 67.2851 53.08 67.5595 52.282C67.852 51.4479 68.0004 50.5701 67.9982 49.6862Z" fill="white"/>
<path d="M29.6404 36.7527H28.5143V40.3967C28.5111 40.52 28.5259 40.6432 28.5582 40.7623C28.5784 40.8472 28.6204 40.9253 28.68 40.989C28.7343 41.0413 28.8003 41.0798 28.8726 41.1011C28.9522 41.1216 29.0342 41.1314 29.1163 41.1304C29.1987 41.1287 29.2805 41.1173 29.3601 41.0962C29.4447 41.0741 29.5265 41.0422 29.6038 41.0012L29.6282 41.5057C29.5248 41.5457 29.4179 41.5759 29.3089 41.5959C29.1889 41.6161 29.0674 41.6259 28.9457 41.6251C28.8308 41.6239 28.7164 41.61 28.6045 41.5837C28.4835 41.5539 28.3704 41.4982 28.273 41.4204C28.1682 41.3323 28.0848 41.2214 28.0293 41.0962C27.9586 40.9257 27.9253 40.742 27.9318 40.5576V36.7527H27.1055V36.2653H27.9318V35.1392H28.5119V36.2653H29.638L29.6404 36.7527Z" fill="white"/>
<path d="M31.1587 38.2376C31.2726 37.999 31.4619 37.8046 31.6974 37.6843C31.9428 37.5487 32.2189 37.4782 32.4993 37.4796C32.7107 37.4642 32.9229 37.4968 33.12 37.5749C33.317 37.653 33.494 37.7745 33.6376 37.9305C33.9039 38.2708 34.0389 38.6956 34.0178 39.1273V41.5647H33.4377V39.3539C33.4393 39.1626 33.4222 38.9716 33.3865 38.7836C33.3581 38.627 33.2984 38.4778 33.211 38.3448C33.128 38.2209 33.0125 38.1222 32.8771 38.0597C32.7128 37.9851 32.5333 37.95 32.353 37.9573C32.1987 37.9567 32.046 37.9882 31.9045 38.0499C31.7566 38.1163 31.6244 38.2136 31.517 38.3351C31.3946 38.4779 31.3018 38.6436 31.244 38.8226C31.1713 39.0468 31.1367 39.2816 31.1416 39.5172V41.5647H30.5615V35.125H31.1319V38.2376H31.1587Z" fill="white"/>
<path d="M39.1534 39.4585V39.5853C39.1534 39.6316 39.1534 39.6803 39.1534 39.7315H35.8336C35.8379 39.925 35.8784 40.116 35.953 40.2946C36.024 40.4669 36.1284 40.6234 36.2601 40.7552C36.393 40.8869 36.5492 40.9927 36.7208 41.0672C36.9384 41.1566 37.1737 41.1944 37.4083 41.178C37.643 41.1615 37.8706 41.091 38.0736 40.9722C38.2705 40.8481 38.437 40.6816 38.5611 40.4847L38.9949 40.8284C38.7864 41.1036 38.5158 41.3258 38.2052 41.4767C37.9147 41.607 37.5997 41.6735 37.2814 41.6717C36.999 41.674 36.719 41.6202 36.4576 41.5133C36.212 41.4135 35.9896 41.2641 35.8043 41.0745C35.6188 40.8827 35.4723 40.6568 35.3729 40.4091C35.2669 40.1433 35.2139 39.8593 35.2169 39.5731C35.214 39.2871 35.2661 39.0033 35.3705 38.737C35.4672 38.4892 35.6122 38.263 35.797 38.0716C35.9784 37.8841 36.1956 37.735 36.4356 37.6329C36.6869 37.5263 36.9573 37.4723 37.2302 37.4745C37.5137 37.4693 37.7951 37.5232 38.0565 37.6329C38.2846 37.7292 38.4886 37.8749 38.6537 38.0594C38.815 38.2421 38.9385 38.4551 39.0169 38.6859C39.1058 38.9338 39.152 39.1951 39.1534 39.4585ZM38.5635 39.2708C38.5559 38.9296 38.4272 38.6021 38.2003 38.3471C38.0772 38.2193 37.9278 38.12 37.7623 38.056C37.5969 37.992 37.4194 37.9649 37.2424 37.9766C37.0576 37.9743 36.8743 38.01 36.7037 38.0814C36.382 38.2212 36.1221 38.4733 35.9725 38.7907C35.8995 38.9436 35.8565 39.1091 35.8458 39.2782L38.5635 39.2708Z" fill="white"/>
<path d="M20.6508 32H20V59.7866H20.6508V32Z" fill="white"/>
<path d="M27.149 32H20V32.6508H27.149V32Z" fill="white"/>
<path d="M27.149 59.1357H20V59.7865H27.149V59.1357Z" fill="white"/>
<path d="M72.0004 32H71.3496V59.7866H72.0004V32Z" fill="white"/>
<path d="M71.9976 32H64.8486V32.6508H71.9976V32Z" fill="white"/>
<path d="M71.9976 59.1357H64.8486V59.7865H71.9976V59.1357Z" fill="white"/>
</svg>
