<svg width="52" height="28" viewBox="0 0 52 28" fill="none" xmlns="http://www.w3.org/2000/svg">
<path d="M4.11938 24.628V3.15186H4.79455V24.0284H15.4753V24.628H4.11938Z" fill="#95C11F"/>
<path d="M28.6983 21.4812C28.6983 22.0052 28.7227 22.5683 28.7739 23.1654C28.8251 23.7626 28.8811 24.2525 28.9421 24.6279H28.3035C28.2575 24.3864 28.2274 24.1421 28.2133 23.8966C28.1938 23.6042 28.167 23.3019 28.1377 22.9875C28.1085 22.6731 28.0865 22.3635 28.0768 22.0613C28.067 21.759 28.0622 21.5055 28.0622 21.3032H27.9695C27.6431 22.4737 26.8979 23.4834 25.8758 24.1404C24.9237 24.7461 23.8185 25.0674 22.6901 25.0666C22.1199 25.0654 21.5529 24.9834 21.0058 24.8229C20.4667 24.6682 19.9586 24.4207 19.5044 24.0916C19.0555 23.7645 18.687 23.3394 18.427 22.8486C18.1427 22.2951 18.0019 21.6791 18.0175 21.057C18.0175 20.0675 18.2751 19.2688 18.7902 18.6611C19.3149 18.0477 19.9749 17.5645 20.7182 17.2498C21.5046 16.907 22.3375 16.6827 23.1897 16.5844C23.9906 16.4889 24.7962 16.4384 25.6028 16.4333H28.0402V15.3096C28.0402 13.7529 27.6259 12.6154 26.7971 11.8972C25.9684 11.179 24.8862 10.8199 23.5505 10.8199C22.7536 10.8133 21.9636 10.9675 21.2276 11.2732C20.5229 11.5704 19.8722 11.9822 19.302 12.4919L18.9364 11.9776C19.5794 11.4128 20.3238 10.9752 21.1301 10.6882C21.9027 10.4021 22.7193 10.2528 23.5432 10.2471C25.1389 10.2471 26.3982 10.6533 27.3212 11.4658C28.2441 12.2783 28.704 13.5685 28.7008 15.3364L28.6983 21.4812ZM28.0305 17.0182H25.8758C25.0615 17.0207 24.2479 17.0663 23.4384 17.1547C22.6381 17.2355 21.8525 17.4249 21.1033 17.7178C20.4309 17.9756 19.8317 18.394 19.3581 18.9365C18.9015 19.463 18.674 20.1706 18.6756 21.0595C18.6544 21.6246 18.7849 22.1851 19.0534 22.6828C19.2928 23.103 19.6266 23.4618 20.0284 23.7309C20.4266 23.9965 20.8678 24.1911 21.3324 24.3061C21.7731 24.4233 22.2268 24.4848 22.6828 24.4889C23.5814 24.5175 24.4722 24.3135 25.2689 23.8966C25.9252 23.5422 26.4914 23.0419 26.9239 22.4342C27.3375 21.8387 27.6307 21.168 27.7867 20.4599C27.9466 19.7684 28.0284 19.0612 28.0305 18.3515V17.0182Z" fill="white"/>
<path d="M35.4352 14.4712C35.9292 13.2154 36.7929 12.1392 37.9119 11.385C39.0308 10.6307 40.3525 10.2339 41.7019 10.2472C42.6745 10.2365 43.6389 10.4273 44.5341 10.8078C45.3682 11.1676 46.1197 11.6943 46.7424 12.3555C47.3712 13.0352 47.8555 13.8354 48.1659 14.7076C48.5068 15.6616 48.676 16.6683 48.6656 17.6813C48.6749 18.6796 48.5005 19.671 48.1513 20.6062C47.829 21.471 47.3404 22.2643 46.7132 22.9413C46.0908 23.604 45.3382 24.131 44.5025 24.489C43.6183 24.8697 42.6644 25.0615 41.7019 25.0521C41.0424 25.0518 40.3861 24.9599 39.7519 24.7791C39.1247 24.6003 38.5274 24.3292 37.9799 23.9747C37.4261 23.6122 36.927 23.1723 36.498 22.6683C36.0406 22.1345 35.6816 21.5238 35.4377 20.8646H35.345V24.628H34.6479V3.125H35.345V14.4712H35.4352ZM47.9977 17.6862C48.0013 16.7982 47.853 15.9161 47.559 15.0781C47.2834 14.2734 46.8565 13.5288 46.3013 12.8844C45.7509 12.2531 45.0764 11.742 44.3196 11.383C43.5064 11.0163 42.6248 10.8254 41.7327 10.8229C40.8405 10.8204 39.9579 11.0063 39.1426 11.3684C38.3814 11.718 37.6971 12.2151 37.1292 12.8308C36.5537 13.4651 36.1022 14.2018 35.7984 15.0026C35.1516 16.703 35.1516 18.5817 35.7984 20.282C36.1021 21.0822 36.5535 21.8181 37.1292 22.4513C37.6971 23.0671 38.3814 23.5642 39.1426 23.9138C39.9448 24.2828 40.8189 24.4692 41.7019 24.4598C42.6041 24.4732 43.498 24.2868 44.3196 23.9138C45.0744 23.5689 45.7492 23.0709 46.3013 22.4513C46.8574 21.8168 47.2846 21.08 47.559 20.282C47.8515 19.4479 47.9999 18.5701 47.9977 17.6862Z" fill="white"/>
<path d="M9.6399 4.75274H8.51381V8.39669C8.51059 8.52004 8.52538 8.64321 8.55769 8.7623C8.57793 8.84717 8.61993 8.92529 8.67956 8.98898C8.73378 9.04131 8.79984 9.07978 8.87211 9.1011C8.95171 9.1216 9.03367 9.13143 9.11586 9.13035C9.19817 9.12873 9.28 9.11727 9.3596 9.09623C9.44425 9.07408 9.52604 9.04218 9.60334 9.00117L9.62772 9.50572C9.52434 9.5457 9.41743 9.57589 9.30841 9.5959C9.18843 9.61611 9.06691 9.6259 8.94524 9.62515C8.83032 9.62387 8.71589 9.60997 8.604 9.58371C8.48298 9.55393 8.36987 9.49821 8.27251 9.4204C8.1677 9.33225 8.08435 9.22139 8.02877 9.09623C7.95809 8.92572 7.92484 8.74202 7.93127 8.55756V4.75274H7.10498V4.26525H7.93127V3.13916H8.51138V4.26525H9.63746L9.6399 4.75274Z" fill="white"/>
<path d="M11.1584 6.23759C11.2724 5.99902 11.4617 5.80459 11.6971 5.6843C11.9426 5.54873 12.2186 5.47825 12.499 5.47955C12.7105 5.46423 12.9226 5.49682 13.1197 5.5749C13.3168 5.65297 13.4937 5.77452 13.6373 5.93047C13.9037 6.27077 14.0387 6.6956 14.0175 7.12725V9.56468H13.4374V7.35393C13.4391 7.1626 13.4219 6.97156 13.3863 6.78357C13.3578 6.62703 13.2981 6.47782 13.2108 6.34484C13.1278 6.2209 13.0122 6.12223 12.8768 6.05966C12.7125 5.98509 12.5331 5.95002 12.3528 5.95729C12.1985 5.95669 12.0457 5.98824 11.9043 6.04991C11.7563 6.11633 11.6242 6.21355 11.5167 6.33509C11.3944 6.47792 11.3016 6.64361 11.2438 6.82257C11.171 7.04678 11.1364 7.28159 11.1414 7.51724V9.56468H10.5613V3.125H11.1316V6.23759H11.1584Z" fill="white"/>
<path d="M19.1531 7.45852V7.58527C19.1531 7.63158 19.1531 7.68033 19.1531 7.73151H15.8333C15.8377 7.92501 15.8782 8.11598 15.9528 8.29456C16.0238 8.46686 16.1282 8.62342 16.2599 8.75524C16.3928 8.88689 16.549 8.99269 16.7206 9.06723C16.9382 9.15655 17.1734 9.19445 17.4081 9.17796C17.6427 9.16147 17.8704 9.09105 18.0733 8.97217C18.2702 8.84813 18.4368 8.68155 18.5608 8.48468L18.9947 8.82836C18.7861 9.10362 18.5156 9.32577 18.205 9.47671C17.9145 9.60696 17.5995 9.67345 17.2812 9.67171C16.9988 9.67403 16.7187 9.62017 16.4573 9.51328C16.2117 9.41349 15.9894 9.26414 15.8041 9.07454C15.6186 8.88274 15.4721 8.65675 15.3727 8.40912C15.2666 8.14329 15.2136 7.85927 15.2167 7.57308C15.2137 7.28713 15.2659 7.00329 15.3702 6.73705C15.467 6.48921 15.612 6.26303 15.7968 6.07163C15.9782 5.88414 16.1953 5.73495 16.4354 5.6329C16.6866 5.52626 16.9571 5.47233 17.23 5.47446C17.5134 5.46929 17.7948 5.52325 18.0563 5.6329C18.2844 5.72925 18.4883 5.87492 18.6534 6.05944C18.8148 6.24214 18.9382 6.45506 19.0166 6.68586C19.1056 6.93382 19.1517 7.1951 19.1531 7.45852ZM18.5633 7.27084C18.5557 6.92957 18.4269 6.60212 18.2001 6.34706C18.077 6.21931 17.9275 6.11997 17.7621 6.05598C17.5966 5.99199 17.4192 5.96489 17.2422 5.97657C17.0573 5.97434 16.874 6.01001 16.7035 6.08138C16.3818 6.22123 16.1219 6.47334 15.9723 6.79067C15.8993 6.94358 15.8562 7.10906 15.8455 7.27816L18.5633 7.27084Z" fill="white"/>
<path d="M0.650792 0H0V27.7866H0.650792V0Z" fill="white"/>
<path d="M7.14896 0H0V0.650792H7.14896V0Z" fill="white"/>
<path d="M7.14896 27.1357H0V27.7865H7.14896V27.1357Z" fill="white"/>
<path d="M51.9999 0H51.3491V27.7866H51.9999V0Z" fill="white"/>
<path d="M51.9976 0H44.8486V0.650792H51.9976V0Z" fill="white"/>
<path d="M51.9976 27.1357H44.8486V27.7865H51.9976V27.1357Z" fill="white"/>
</svg>
